<svg width="68" height="32" viewBox="0 0 68 32" fill="none" xmlns="http://www.w3.org/2000/svg">
<g clip-path="url(#clip0_168_365)">
<path d="M11.4699 11.8878C11.3354 11.8314 11.1875 11.8605 11.0849 11.9647C10.6915 12.3643 10.3232 12.6598 9.9567 12.8716C9.56494 13.1141 9.11433 13.3071 8.61496 13.442C8.05002 13.5957 7.48508 13.6641 6.9319 13.6453C5.44893 13.6658 4.01471 13.0441 2.99075 11.9476C2.46784 11.3788 2.07608 10.7332 1.82724 10.0261C1.53132 9.18584 1.39008 8.3609 1.40521 7.56671C1.3884 6.77764 1.53132 5.93904 1.82724 5.07653C2.07776 4.37115 2.46953 3.72384 2.99243 3.1551C3.47163 2.63247 4.08029 2.20548 4.75284 1.92025C5.47079 1.61282 6.2005 1.4574 6.91845 1.4574C7.50357 1.4574 8.06347 1.52059 8.58134 1.64186C9.12442 1.79045 9.55822 1.96637 9.94493 2.19523C10.3132 2.40702 10.6713 2.69395 11.0681 3.09873C11.169 3.20633 11.3169 3.23878 11.4531 3.18413C11.5893 3.12948 11.6734 3.00138 11.6734 2.85279V1.92709C11.6734 1.83144 11.628 1.74263 11.5507 1.68968C11.0042 1.15851 10.3434 0.745189 9.5868 0.461671L9.50273 0.436052V0.439468C8.63346 0.155949 7.77091 0.0210219 6.93695 0.0398093C6.92013 0.0398093 6.90164 0.0398093 6.88483 0.0398093C4.0433 0.0398093 1.48928 1.85023 0.515763 4.56073C-0.171921 6.48217 -0.171921 8.59831 0.515763 10.5197C1.17991 12.308 2.48129 13.7119 4.17781 14.4736C5.04708 14.8596 5.97688 15.0424 6.9319 15.0219C6.9958 15.0219 7.05801 15.0236 7.12022 15.0236C8.00631 15.0236 8.81505 14.8887 9.58512 14.6103C10.298 14.3421 10.9622 13.9305 11.5675 13.3805C11.6448 13.3259 11.6902 13.2354 11.6902 13.1397V12.2209C11.6902 12.0723 11.6061 11.9459 11.4716 11.8878H11.4699Z" fill="#111111"/>
<path d="M21.0944 0.48929C21.007 0.275798 20.8119 0.142578 20.5833 0.142578C20.3546 0.142578 20.1596 0.275798 20.0721 0.48929L14.5505 14.0948C14.4799 14.269 14.4984 14.4654 14.6026 14.6225C14.7052 14.7796 14.8767 14.8719 15.0633 14.8719H15.3744C15.6013 14.8719 15.8014 14.7335 15.8872 14.52L20.4 3.11098C20.437 3.01875 20.5143 2.99313 20.5833 2.98459C20.6488 2.98459 20.7312 3.01704 20.7682 3.11098L23.2163 9.26982L24.7884 13.2032C24.8136 13.2664 24.8069 13.333 24.7699 13.3894C24.7329 13.4457 24.6724 13.4782 24.6051 13.4782H20.7884C20.4841 13.4782 20.2352 13.731 20.2352 14.0401V14.3065C20.2352 14.6157 20.4841 14.8685 20.7884 14.8685H26.1032C26.2882 14.8685 26.4597 14.7745 26.5639 14.6191C26.6682 14.4637 26.6867 14.2655 26.6161 14.0913L21.0944 0.48929Z" fill="#111111"/>
<path d="M40.0639 11.9116C39.9294 11.8553 39.7814 11.886 39.6789 11.9902C39.2838 12.3899 38.9155 12.687 38.5507 12.8971C38.1555 13.1397 37.7049 13.3326 37.2072 13.4676C36.6406 13.6213 36.079 13.6896 35.5242 13.6708C34.0463 13.693 32.607 13.0696 31.583 11.9731C31.0853 11.4317 30.6768 10.7605 30.401 10.0329C30.1051 9.18747 29.9639 8.36254 29.9807 7.57518C29.9639 6.78611 30.1051 5.94751 30.4027 5.085C30.6532 4.37962 31.045 3.73231 31.5679 3.16356C32.0471 2.64093 32.6558 2.21395 33.3283 1.92872C34.0463 1.62129 34.7743 1.46587 35.4939 1.46587C36.079 1.46587 36.6389 1.52906 37.1568 1.65033C37.7066 1.80062 38.1606 1.97483 38.5406 2.18491C38.9105 2.3984 39.2686 2.68534 39.6621 3.0867C39.7629 3.1943 39.9109 3.22676 40.0471 3.1721C40.1833 3.11745 40.2674 2.98935 40.2674 2.84076V1.93214C40.2674 1.83478 40.2203 1.74597 40.1513 1.70156C39.6251 1.17039 38.9811 0.765612 38.1808 0.466722L38.1572 0.458182H38.1488C37.2594 0.162708 36.3733 0.0209488 35.5242 0.0397362C34.5591 0.0397362 33.6091 0.229318 32.7735 0.587986C32.0219 0.907371 31.2821 1.43342 30.5759 2.15246L30.5507 2.17979C29.8865 2.90225 29.4023 3.71181 29.108 4.58457C28.4204 6.5043 28.4204 8.62044 29.108 10.5419C30.0765 13.2455 32.612 15.0457 35.4317 15.0457C35.462 15.0457 35.4939 15.0457 35.5242 15.0457C35.5881 15.0457 35.6503 15.0474 35.7125 15.0474C36.5986 15.0474 37.4073 14.9125 38.1791 14.6341C38.8937 14.366 39.5612 13.9509 40.1564 13.4095C40.2354 13.3549 40.2842 13.2643 40.2842 13.167V12.2481C40.2842 12.0995 40.2001 11.9714 40.0656 11.9151L40.0639 11.9116Z" fill="#111111"/>
<path d="M55.0632 4.61181L55.0582 4.59303C54.7135 3.6844 54.2124 2.87313 53.6122 2.24461C52.9749 1.57851 52.2284 1.06954 51.3927 0.733077C50.51 0.389781 49.5281 0.207031 48.5529 0.207031H45.6811C45.3768 0.207031 45.1279 0.459807 45.1279 0.768944V7.32744C45.1279 7.63658 45.3768 7.88935 45.6811 7.88935H45.9249C46.2292 7.88935 46.4781 7.63658 46.4781 7.32744V1.78175C46.4781 1.67074 46.5655 1.58192 46.6748 1.58192H48.5546C49.3684 1.56314 50.167 1.7066 50.927 2.00891C51.5525 2.24973 52.1275 2.64085 52.6807 3.20276C53.1565 3.72539 53.5466 4.36929 53.8055 5.061C54.315 6.6511 54.315 8.40344 53.8055 9.99695C53.5752 10.6835 53.2036 11.3087 52.6992 11.8569C52.2318 12.3505 51.6231 12.7638 50.9421 13.0525C50.1754 13.3565 49.3549 13.517 48.568 13.517H45.6962C45.3919 13.517 45.1431 13.7698 45.1431 14.0789V14.3266C45.1431 14.6357 45.3919 14.8885 45.6962 14.8885H48.568C49.5533 14.8885 50.51 14.7109 51.4096 14.3625C52.2486 14.026 52.9951 13.517 53.6307 12.8509C54.2713 12.1575 54.7521 11.3736 55.0582 10.5179C55.7307 8.58619 55.7307 6.5452 55.0632 4.61352V4.61181Z" fill="#111111"/>
<path d="M67.8386 13.6455C67.7344 13.5396 67.5965 13.4815 67.4486 13.4815H67.4452L61.1854 13.5293C61.0896 13.5293 61.0291 13.4661 61.0038 13.4081C60.9719 13.3312 60.987 13.2509 61.0442 13.1912L65.6074 8.35427C66.085 7.86922 66.5322 7.29194 66.9761 6.58997H67.0164V6.52678C67.4132 5.84702 67.6117 5.05624 67.5932 4.23814C67.573 3.19458 67.2199 2.20739 66.5961 1.45761C66.2396 1.01354 65.7823 0.654873 65.2762 0.417469C64.7079 0.147614 64.0202 -0.000976562 63.3426 -0.000976562C63.1409 -0.000976562 62.9778 0.164694 62.9778 0.369647V0.960595C62.9778 1.16555 63.1409 1.33122 63.3494 1.33122C63.7848 1.31414 64.2489 1.40295 64.6541 1.58058C64.9904 1.75137 65.2644 1.9717 65.4931 2.2518L65.5133 2.27913C65.7302 2.53532 65.9101 2.86837 66.0211 3.21679L66.0278 3.23728C66.1438 3.54471 66.2043 3.88118 66.2043 4.23984C66.2043 4.71636 66.1354 5.11089 65.9925 5.44565C65.8496 5.78382 65.6831 6.1442 65.4326 6.47383C65.219 6.75052 64.9349 7.10748 64.6104 7.42345H64.5919L64.5734 7.45931L58.5776 13.8607C58.4229 14.0264 58.3809 14.2603 58.47 14.4687C58.5591 14.6788 58.7525 14.8086 58.9778 14.8086H67.4502C67.7546 14.8086 68.0034 14.5558 68.0034 14.2467V14.04C68.0034 13.8897 67.9462 13.748 67.8403 13.6421L67.8386 13.6455Z" fill="#01A04C"/>
<path d="M3.09967 23.9321C3.06436 24.3215 2.92312 24.6238 2.67596 24.8424C2.4288 25.061 2.10261 25.1686 1.69235 25.1686C1.40652 25.1686 1.15431 25.1003 0.937412 24.962C0.720514 24.8236 0.552376 24.6289 0.432999 24.3744C0.313621 24.1199 0.253091 23.8262 0.248047 23.4914V23.1515C0.248047 22.8082 0.308577 22.5059 0.427954 22.2429C0.547332 21.9799 0.720514 21.7801 0.944138 21.6383C1.16776 21.4965 1.42669 21.4248 1.72093 21.4248C2.11606 21.4248 2.43552 21.5341 2.67596 21.751C2.9164 21.9679 3.05763 22.2771 3.09798 22.675H2.47756C2.44729 22.4137 2.37331 22.2241 2.25225 22.108C2.13119 21.9918 1.95465 21.9338 1.72093 21.9338C1.45023 21.9338 1.24174 22.0345 1.09714 22.2361C0.952545 22.4376 0.876882 22.7331 0.87352 23.1208V23.4436C0.87352 23.8381 0.942456 24.1387 1.08201 24.3454C1.22157 24.552 1.42333 24.6562 1.69235 24.6562C1.93783 24.6562 2.1211 24.5999 2.24384 24.4889C2.36658 24.3778 2.44561 24.1917 2.47756 23.9304H3.09798L3.09967 23.9321Z" fill="#111111"/>
<path d="M5.18783 23.7171H4.49342V25.1176H3.86963V21.4746H5.13066C5.54428 21.4746 5.86374 21.5685 6.08905 21.7581C6.31435 21.9477 6.42701 22.2193 6.42701 22.5762C6.42701 22.8205 6.36984 23.0237 6.25382 23.1877C6.13781 23.3516 5.9764 23.478 5.76959 23.5668L6.57497 25.0835V25.1159H5.90746L5.18783 23.7154V23.7171ZM4.49342 23.2065H5.13403C5.3442 23.2065 5.50897 23.1535 5.62667 23.0459C5.74437 22.9383 5.80321 22.7914 5.80321 22.6036C5.80321 22.4157 5.74773 22.2568 5.64012 22.151C5.53083 22.0451 5.36774 21.9887 5.15084 21.9853H4.49342V23.2065Z" fill="#111111"/>
<path d="M9.32543 23.4918H7.85238V24.6122H9.5743V25.1178H7.22852V21.4747H9.5558V21.9854H7.85069V22.9914H9.32374V23.4918H9.32543ZM8.58386 20.4824H9.26657L8.58386 21.2407H8.10293L8.58386 20.4824Z" fill="#111111"/>
<path d="M10.2925 25.1176V21.4746H11.3517C11.6678 21.4746 11.9503 21.5463 12.1958 21.6898C12.4413 21.8333 12.6313 22.0365 12.7658 22.2995C12.9003 22.5626 12.9676 22.8649 12.9676 23.2048V23.3875C12.9676 23.7325 12.9003 24.0365 12.7641 24.2978C12.6296 24.5592 12.4362 24.7607 12.1857 24.9024C11.9352 25.0442 11.6477 25.1159 11.3248 25.1159H10.2925V25.1176ZM10.9146 21.9853V24.6121H11.3215C11.6477 24.6121 11.8999 24.5079 12.0731 24.3013C12.2479 24.0929 12.337 23.7957 12.3404 23.4063V23.203C12.3404 22.8085 12.2563 22.5062 12.0865 22.2978C11.9167 22.0895 11.6712 21.9853 11.3501 21.9853H10.9146Z" fill="#111111"/>
<path d="M14.4574 25.1176H13.8369V21.4746H14.4574V25.1176Z" fill="#111111"/>
<path d="M17.9557 21.9853H16.8376V25.1176H16.2189V21.9853H15.1108V21.4746H17.9557V21.9853Z" fill="#111111"/>
<path d="M21.9637 24.2708H20.5749L20.284 25.1196H19.6367L20.9919 21.4766H21.5518L22.9087 25.1196H22.258L21.9654 24.2708H21.9637ZM20.7481 23.7601H21.7872L21.2677 22.2486L20.7481 23.7601Z" fill="#111111"/>
<path d="M26.2224 24.6453C26.093 24.8178 25.9131 24.9476 25.6827 25.0364C25.4524 25.1252 25.1918 25.1696 24.8992 25.1696C24.6066 25.1696 24.3326 25.0996 24.1005 24.9612C23.8685 24.8229 23.6903 24.6248 23.5642 24.3669C23.4381 24.109 23.3742 23.8084 23.3691 23.4651V23.1798C23.3691 22.6299 23.4986 22.1995 23.7575 21.8903C24.0165 21.5812 24.3796 21.4258 24.8437 21.4258C25.2422 21.4258 25.56 21.5266 25.7937 21.7281C26.0274 21.9296 26.1703 22.2183 26.2174 22.5957H25.6071C25.5381 22.1568 25.2876 21.9382 24.8555 21.9382C24.5764 21.9382 24.3645 22.0406 24.2182 22.2439C24.0736 22.4488 23.998 22.7477 23.9929 23.1423V23.4224C23.9929 23.8152 24.0753 24.1209 24.2384 24.3378C24.4015 24.5547 24.6285 24.664 24.9194 24.664C25.2372 24.664 25.4641 24.5906 25.5986 24.4437V23.7315H24.8605V23.2516H26.2208V24.647L26.2224 24.6453Z" fill="#111111"/>
<path d="M28.4373 23.7171H27.7429V25.1176H27.1191V21.4746H28.3802C28.7938 21.4746 29.1133 21.5685 29.3386 21.7581C29.5639 21.9477 29.6765 22.2193 29.6765 22.5762C29.6765 22.8205 29.6194 23.0237 29.5033 23.1877C29.3873 23.3516 29.2259 23.478 29.0191 23.5668L29.8245 25.0835V25.1159H29.157L28.4373 23.7154V23.7171ZM27.7429 23.2065H28.3835C28.5937 23.2065 28.7585 23.1535 28.8762 23.0459C28.9939 22.9383 29.0527 22.7914 29.0527 22.6036C29.0527 22.4157 28.9972 22.2568 28.8896 22.151C28.7803 22.0451 28.6173 21.9887 28.4004 21.9853H27.7429V23.2065Z" fill="#111111"/>
<path d="M31.1371 25.1176H30.5166V21.4746H31.1371V25.1176Z" fill="#111111"/>
<path d="M34.8509 23.9321C34.8156 24.3215 34.6744 24.6238 34.4272 24.8424C34.18 25.061 33.8539 25.1686 33.4453 25.1686C33.1594 25.1686 32.9072 25.1003 32.6903 24.962C32.4734 24.8236 32.3053 24.6289 32.1859 24.3744C32.0665 24.1199 32.006 23.8262 32.001 23.4914V23.1515C32.001 22.8082 32.0615 22.5059 32.1809 22.2429C32.3003 21.9799 32.4734 21.7801 32.6971 21.6383C32.9207 21.4965 33.1796 21.4248 33.4739 21.4248C33.869 21.4248 34.1885 21.5341 34.4289 21.751C34.6693 21.9679 34.8106 22.2771 34.8492 22.675H34.2288C34.1985 22.4137 34.1246 22.2241 34.0035 22.108C33.8824 21.9918 33.7059 21.9338 33.4722 21.9338C33.2015 21.9338 32.993 22.0345 32.8484 22.2361C32.7021 22.4376 32.6281 22.7331 32.6248 23.1208V23.4436C32.6248 23.8381 32.6937 24.1387 32.8333 24.3454C32.9711 24.552 33.1746 24.6562 33.4419 24.6562C33.6874 24.6562 33.8707 24.5999 33.9934 24.4889C34.1161 24.3778 34.1952 24.1917 34.2271 23.9304H34.8475L34.8509 23.9321Z" fill="#111111"/>
<path d="M38.4817 23.3924C38.4817 23.7493 38.4212 24.0619 38.3001 24.3317C38.179 24.6016 38.0042 24.8082 37.7789 24.9517C37.5536 25.0952 37.293 25.1686 36.9987 25.1686C36.7045 25.1686 36.4489 25.0969 36.2219 24.9517C35.9949 24.8082 35.8184 24.6016 35.6956 24.3351C35.5712 24.0687 35.509 23.7613 35.5073 23.4111V23.2062C35.5073 22.8509 35.5695 22.5367 35.694 22.2651C35.8184 21.9935 35.9932 21.7852 36.2185 21.6417C36.4439 21.4982 36.7028 21.4248 36.9953 21.4248C37.2879 21.4248 37.5468 21.4965 37.7721 21.6383C37.9974 21.7801 38.1723 21.9867 38.2951 22.2532C38.4178 22.5196 38.48 22.8321 38.4817 23.1874V23.3906V23.3924ZM37.8579 23.2011C37.8579 22.798 37.7822 22.4889 37.6326 22.2737C37.4829 22.0585 37.2694 21.9509 36.9937 21.9509C36.7179 21.9509 36.5145 22.0584 36.3615 22.2719C36.2085 22.4854 36.1328 22.7895 36.1294 23.1806V23.3906C36.1294 23.7903 36.2068 24.1012 36.3598 24.3181C36.5128 24.5367 36.7263 24.646 36.9987 24.646C37.2711 24.646 37.4863 24.5401 37.636 24.3249C37.7839 24.1114 37.8596 23.7988 37.8596 23.3889V23.1994L37.8579 23.2011Z" fill="#111111"/>
<path d="M39.9383 24.6141H41.5661V25.1196H39.3145V21.4766H39.9383V24.6141Z" fill="#111111"/>
<path d="M44.3523 23.4917H42.8792V24.6121H44.6012V25.1176H42.2554V21.4746H44.5827V21.9853H42.8775V22.9913H44.3506V23.4917H44.3523Z" fill="#111111"/>
<path d="M49.5228 23.9321C49.4875 24.3215 49.3462 24.6238 49.0991 24.8424C48.8519 25.061 48.5257 25.1686 48.1172 25.1686C47.8313 25.1686 47.5791 25.1003 47.3622 24.962C47.1453 24.8236 46.9772 24.6289 46.8578 24.3744C46.7384 24.1199 46.6779 23.8262 46.6729 23.4914V23.1515C46.6729 22.8082 46.7334 22.5059 46.8528 22.2429C46.9721 21.9799 47.1453 21.7801 47.3689 21.6383C47.5926 21.4965 47.8515 21.4248 48.1457 21.4248C48.5409 21.4248 48.8603 21.5341 49.1008 21.751C49.3412 21.9679 49.4824 22.2771 49.5211 22.675H48.9007C48.8704 22.4137 48.7964 22.2241 48.6754 22.108C48.5543 21.9918 48.3778 21.9338 48.1441 21.9338C47.8734 21.9338 47.6649 22.0345 47.5203 22.2361C47.374 22.4376 47.3 22.7331 47.2966 23.1208V23.4436C47.2966 23.8381 47.3656 24.1387 47.5051 24.3454C47.643 24.552 47.8465 24.6562 48.1138 24.6562C48.3593 24.6562 48.5425 24.5999 48.6653 24.4889C48.788 24.3778 48.867 24.1917 48.899 23.9304H49.5194L49.5228 23.9321Z" fill="#111111"/>
<path d="M53.1521 23.3924C53.1521 23.7493 53.0916 24.0619 52.9705 24.3317C52.8494 24.6016 52.6746 24.8082 52.4493 24.9517C52.224 25.0952 51.9634 25.1686 51.6691 25.1686C51.3749 25.1686 51.1193 25.0969 50.8923 24.9517C50.6653 24.8082 50.4888 24.6016 50.366 24.3351C50.2416 24.0687 50.1794 23.7613 50.1777 23.4111V23.2062C50.1777 22.8509 50.2399 22.5367 50.3644 22.2651C50.4888 21.9935 50.6637 21.7852 50.889 21.6417C51.1143 21.4982 51.3732 21.4248 51.6658 21.4248C51.9583 21.4248 52.2172 21.4965 52.4426 21.6383C52.6679 21.7801 52.8427 21.9867 52.9655 22.2532C53.0882 22.5196 53.1504 22.8321 53.1521 23.1874V23.3906V23.3924ZM52.53 23.2011C52.53 22.798 52.4543 22.4889 52.3047 22.2737C52.155 22.0585 51.9415 21.9509 51.6658 21.9509C51.39 21.9509 51.1866 22.0584 51.0336 22.2719C50.8806 22.4854 50.8049 22.7895 50.8015 23.1806V23.3906C50.8015 23.7903 50.8789 24.1012 51.0319 24.3181C51.1849 24.5367 51.3984 24.646 51.6708 24.646C51.9432 24.646 52.1584 24.5401 52.308 24.3249C52.456 24.1114 52.5317 23.7988 52.5317 23.3889V23.1994L52.53 23.2011Z" fill="#111111"/>
<path d="M56.8305 25.1176H56.2067L54.6077 22.5335V25.1176H53.9839V21.4746H54.6077L56.2117 24.069V21.4746H56.8305V25.1176Z" fill="#111111"/>
<path d="M59.6534 24.1795C59.6534 24.0189 59.5979 23.896 59.487 23.8088C59.376 23.7217 59.1759 23.6346 58.8867 23.5458C58.5975 23.457 58.3672 23.3597 58.1974 23.2504C57.8712 23.042 57.7064 22.7704 57.7064 22.434C57.7064 22.1402 57.8241 21.8994 58.0595 21.7081C58.2949 21.5185 58.6009 21.4229 58.9775 21.4229C59.2264 21.4229 59.45 21.469 59.645 21.5629C59.8401 21.6568 59.9948 21.7901 60.1057 21.9626C60.2167 22.1351 60.2739 22.3264 60.2739 22.5364H59.6534C59.6534 22.3468 59.5946 22.1983 59.4769 22.0907C59.3592 21.9831 59.1911 21.9284 58.9725 21.9284C58.769 21.9284 58.611 21.9728 58.4983 22.0616C58.3857 22.1504 58.3302 22.2734 58.3302 22.4322C58.3302 22.5655 58.3907 22.6765 58.5118 22.767C58.6328 22.8575 58.8329 22.9429 59.112 23.0266C59.3911 23.1103 59.6148 23.2059 59.7846 23.3135C59.9544 23.4211 60.0771 23.5441 60.1562 23.6842C60.2352 23.8242 60.2739 23.9865 60.2739 24.1726C60.2739 24.4767 60.1595 24.7175 59.9309 24.8968C59.7022 25.0761 59.3911 25.165 58.9994 25.165C58.7404 25.165 58.5017 25.1154 58.2831 25.0181C58.0645 24.9207 57.8964 24.7858 57.7753 24.6133C57.6543 24.4408 57.5938 24.241 57.5938 24.0121H58.2175C58.2175 24.2188 58.2848 24.3793 58.4193 24.492C58.5538 24.6047 58.7472 24.6628 58.9977 24.6628C59.2146 24.6628 59.3777 24.6184 59.487 24.5296C59.5963 24.4408 59.6501 24.3229 59.6501 24.1761L59.6534 24.1795Z" fill="#111111"/>
<path d="M63.1306 23.4917H61.6576V24.6121H63.3795V25.1176H61.0337V21.4746H63.361V21.9853H61.6559V22.9913H63.1289V23.4917H63.1306Z" fill="#111111"/>
<path d="M64.7567 25.1176H64.1362V21.4746H64.7567V25.1176Z" fill="#111111"/>
<path d="M66.3568 24.6141H67.9845V25.1196H65.7329V21.4766H66.3568V24.6141Z" fill="#111111"/>
<path d="M0.211426 30.9683C0.211426 30.7992 0.256823 30.6455 0.347617 30.5038C0.438412 30.362 0.616638 30.1963 0.882296 30.0016C0.742741 29.824 0.645221 29.672 0.589736 29.5456C0.53425 29.4192 0.507348 29.2997 0.507348 29.1835C0.507348 28.8983 0.593099 28.6728 0.762918 28.5072C0.932737 28.3415 1.16309 28.2578 1.45228 28.2578C1.7129 28.2578 1.92643 28.3364 2.09457 28.4918C2.26271 28.6472 2.3451 28.8402 2.3451 29.0708C2.3451 29.2228 2.3081 29.3628 2.23244 29.4892C2.15678 29.6156 2.03236 29.7437 1.86086 29.8701L1.61706 30.0494L2.30979 30.8795C2.41067 30.6797 2.45943 30.4559 2.45943 30.2117H2.97897C2.97897 30.6609 2.87473 31.0281 2.66792 31.315L3.19419 31.9487H2.49978L2.29802 31.7061C2.04245 31.9009 1.73644 31.9982 1.38167 31.9982C1.02689 31.9982 0.742741 31.9026 0.530888 31.7113C0.319034 31.52 0.211426 31.2706 0.211426 30.9649V30.9683ZM1.39848 31.5166C1.60024 31.5166 1.78856 31.4482 1.9651 31.3116L1.18158 30.374L1.10592 30.4286C0.909198 30.5806 0.809997 30.7531 0.809997 30.9495C0.809997 31.1186 0.863801 31.2553 0.969728 31.3594C1.07565 31.4636 1.21857 31.5166 1.39848 31.5166ZM1.06893 29.1681C1.06893 29.3082 1.153 29.4841 1.32282 29.6959L1.59688 29.5063L1.67254 29.4431C1.77511 29.3509 1.82555 29.233 1.82555 29.0896C1.82555 28.9939 1.79024 28.9137 1.71962 28.8453C1.649 28.777 1.55989 28.7446 1.4506 28.7446C1.33459 28.7446 1.24043 28.7839 1.17149 28.8641C1.10256 28.9444 1.06725 29.0452 1.06725 29.1664L1.06893 29.1681Z" fill="#111111"/>
<path d="M5.08545 31.9507V28.3076H6.14472C6.46082 28.3076 6.74329 28.3794 6.98877 28.5228C7.23425 28.6663 7.42425 28.8695 7.55876 29.1326C7.69327 29.3956 7.76052 29.6979 7.76052 30.0378V30.2205C7.76052 30.5655 7.69327 30.8695 7.55708 31.1308C7.42257 31.3922 7.22921 31.5937 6.97868 31.7355C6.72816 31.8772 6.44064 31.949 6.11782 31.949H5.08545V31.9507ZM5.70924 28.8183V31.4451H6.11613C6.44232 31.4451 6.69453 31.3409 6.86771 31.1343C7.04257 30.9259 7.13169 30.6287 7.13505 30.2393V30.0361C7.13505 29.6415 7.05098 29.3392 6.88116 29.1308C6.71134 28.9225 6.46586 28.8183 6.14472 28.8183H5.70924Z" fill="#111111"/>
<path d="M10.5994 30.3229H9.1263V31.4433H10.8482V31.9488H8.50244V28.3058H10.8297V28.8165H9.12462V29.8224H10.5977V30.3229H10.5994ZM9.85778 27.3135H10.5405L9.85778 28.0718H9.37686L9.85778 27.3135Z" fill="#111111"/>
<path d="M12.7393 31.1574L13.6507 28.3086H14.335L13.0437 31.9516H12.4401L11.1538 28.3086H11.8364L12.7377 31.1574H12.7393Z" fill="#111111"/>
<path d="M16.9568 30.3247H15.4837V31.4451H17.2056V31.9507H14.8599V28.3076H17.1871V28.8183H15.482V29.8243H16.9551V30.3247H16.9568Z" fill="#111111"/>
<path d="M18.4574 31.4461H20.0851V31.9516H17.8335V28.3086H18.4574V31.4461Z" fill="#111111"/>
<path d="M23.3879 30.2254C23.3879 30.5823 23.3274 30.8949 23.2063 31.1647C23.0853 31.4346 22.9104 31.6412 22.6851 31.7847C22.4598 31.9282 22.1992 32.0016 21.905 32.0016C21.6107 32.0016 21.3551 31.9299 21.1282 31.7847C20.9012 31.6412 20.7246 31.4346 20.6019 31.1681C20.4775 30.9017 20.4153 30.5943 20.4136 30.2441V30.0392C20.4136 29.6839 20.4758 29.3697 20.6002 29.0981C20.7246 28.8266 20.8995 28.6182 21.1248 28.4747C21.3501 28.3313 21.609 28.2578 21.9016 28.2578C22.1942 28.2578 22.4531 28.3295 22.6784 28.4713C22.9037 28.6131 23.0786 28.8197 23.2013 29.0862C23.324 29.3526 23.3863 29.6652 23.3879 30.0204V30.2237V30.2254ZM22.7658 30.0341C22.7658 29.631 22.6902 29.3219 22.5405 29.1067C22.3909 28.8915 22.1773 28.7839 21.9016 28.7839C21.6258 28.7839 21.4224 28.8915 21.2694 29.105C21.1164 29.3184 21.0407 29.6225 21.0374 30.0136V30.2237C21.0374 30.6233 21.1147 30.9342 21.2677 31.1511C21.4207 31.3697 21.6343 31.479 21.9066 31.479C22.179 31.479 22.3942 31.3731 22.5439 31.1579C22.6918 30.9444 22.7675 30.6319 22.7675 30.2219V30.0324L22.7658 30.0341Z" fill="#111111"/>
<path d="M24.7522 30.5997V31.9507H24.1284V28.3076H25.5004C25.9006 28.3076 26.2184 28.4135 26.4554 28.6253C26.6908 28.8371 26.8085 29.1172 26.8085 29.4673C26.8085 29.8174 26.6925 30.1027 26.4622 30.3008C26.2318 30.4989 25.909 30.5997 25.4937 30.5997H24.7522ZM24.7522 30.0907H25.5004C25.7224 30.0907 25.8905 30.0378 26.0082 29.9319C26.1259 29.826 26.1831 29.6723 26.1831 29.4724C26.1831 29.2726 26.1242 29.1189 26.0065 29.001C25.8888 28.8832 25.7257 28.8234 25.5189 28.82H24.7522V30.0907Z" fill="#111111"/>
<path d="M28.0969 30.5997V31.9507H27.4731V28.3076H28.8452C29.2453 28.3076 29.5631 28.4135 29.8002 28.6253C30.0356 28.8371 30.1533 29.1172 30.1533 29.4673C30.1533 29.8174 30.0372 30.1027 29.8069 30.3008C29.5766 30.4989 29.2537 30.5997 28.8384 30.5997H28.0969ZM28.0969 30.0907H28.8452C29.0671 30.0907 29.2352 30.0378 29.3529 29.9319C29.4706 29.826 29.5278 29.6723 29.5278 29.4724C29.5278 29.2726 29.4689 29.1189 29.3512 29.001C29.2336 28.8832 29.0705 28.8234 28.8636 28.82H28.0969V30.0907Z" fill="#111111"/>
<path d="M32.9158 30.3247H31.4427V31.4451H33.1646V31.9507H30.8188V28.3076H33.1461V28.8183H31.441V29.8243H32.9141V30.3247H32.9158Z" fill="#111111"/>
<path d="M34.6003 28.3086L35.6344 31.1011L36.6667 28.3086H37.4721V31.9516H36.8517V30.7509L36.9139 29.1455L35.8546 31.9533H35.409L34.3531 29.1489L34.4154 30.7527V31.9533H33.7949V28.3103H34.602L34.6003 28.3086Z" fill="#111111"/>
<path d="M40.427 30.3247H38.9539V31.4451H40.6759V31.9507H38.3301V28.3076H40.6574V28.8183H38.9523V29.8243H40.4253V30.3247H40.427Z" fill="#111111"/>
<path d="M44.1478 31.9507H43.524L41.9251 29.3665V31.9507H41.3013V28.3076H41.9251L43.5291 30.902V28.3076H44.1478V31.9507Z" fill="#111111"/>
<path d="M47.5256 28.8183H46.4074V31.9507H45.7887V28.8183H44.6807V28.3076H47.5256V28.8183Z" fill="#111111"/>
<path d="M49.3462 31.9507V28.3076H50.4055C50.7216 28.3076 51.004 28.3794 51.2495 28.5228C51.495 28.6663 51.685 28.8695 51.8195 29.1326C51.954 29.3956 52.0213 29.6979 52.0213 30.0378V30.2205C52.0213 30.5655 51.954 30.8695 51.8178 31.1308C51.6833 31.3922 51.49 31.5937 51.2394 31.7355C50.9889 31.8772 50.7014 31.949 50.3786 31.949H49.3462V31.9507ZM49.9683 28.8183V31.4451H50.3752C50.7014 31.4451 50.9536 31.3409 51.1268 31.1343C51.3016 30.9259 51.3908 30.6287 51.3941 30.2393V30.0361C51.3941 29.6415 51.31 29.3392 51.1402 29.1308C50.9704 28.9225 50.7249 28.8183 50.4038 28.8183H49.9683Z" fill="#111111"/>
<path d="M53.4198 31.9507H52.7993V28.3076H53.4198V31.9507Z" fill="#111111"/>
<path d="M57.0554 31.4783C56.926 31.6508 56.7461 31.7806 56.5157 31.8694C56.2854 31.9582 56.0248 32.0026 55.7322 32.0026C55.4396 32.0026 55.1656 31.9326 54.9335 31.7942C54.7015 31.6559 54.5233 31.4578 54.3972 31.1999C54.2711 30.942 54.2072 30.6414 54.2021 30.2981V30.0128C54.2021 29.4629 54.3316 29.0325 54.5905 28.7233C54.8495 28.4142 55.2127 28.2588 55.6767 28.2588C56.0752 28.2588 56.393 28.3596 56.6267 28.5611C56.8604 28.7626 57.0033 29.0513 57.0504 29.4287H56.4401C56.3711 28.9898 56.1206 28.7712 55.6885 28.7712C55.4094 28.7712 55.1975 28.8736 55.0512 29.0769C54.9066 29.2818 54.831 29.5807 54.8259 29.9753V30.2554C54.8259 30.6482 54.9083 30.9539 55.0714 31.1708C55.2345 31.3877 55.4615 31.497 55.7524 31.497C56.0702 31.497 56.2971 31.4236 56.4317 31.2767V30.5645H55.6935V30.0846H57.0538V31.48L57.0554 31.4783Z" fill="#111111"/>
<path d="M58.5199 31.9507H57.8994V28.3076H58.5199V31.9507Z" fill="#111111"/>
<path d="M61.9259 28.8183H60.8078V31.9507H60.1891V28.8183H59.0811V28.3076H61.9259V28.8183Z" fill="#111111"/>
<path d="M64.2279 31.1028H62.8391L62.5482 31.9516H61.9009L63.2561 28.3086H63.816L65.1728 31.9516H64.5221L64.2296 31.1028H64.2279ZM63.014 30.5921H64.053L63.5335 29.0806L63.014 30.5921Z" fill="#111111"/>
<path d="M66.3241 31.4461H67.9518V31.9516H65.7002V28.3086H66.3241V31.4461Z" fill="#111111"/>
</g>
<defs>
<clipPath id="clip0_168_365">
<rect width="68" height="32" fill="white"/>
</clipPath>
</defs>
</svg>
