<svg width="60" height="28" viewBox="0 0 60 28" fill="none" xmlns="http://www.w3.org/2000/svg">
<g clip-path="url(#clip0_219_636)">
<path d="M10.1205 10.4018C10.0019 10.3525 9.8713 10.3779 9.7808 10.4691C9.43365 10.8188 9.10875 11.0773 8.78533 11.2626C8.43966 11.4748 8.04206 11.6437 7.60144 11.7618C7.10296 11.8963 6.60448 11.9561 6.11639 11.9396C4.80788 11.9575 3.54239 11.4136 2.6389 10.4541C2.17751 9.95648 1.83184 9.39158 1.61227 8.77288C1.35116 8.03761 1.22654 7.31579 1.23989 6.62087C1.22506 5.93044 1.35116 5.19666 1.61227 4.44196C1.83332 3.82476 2.17899 3.25836 2.64038 2.76071C3.0632 2.30341 3.60025 1.92979 4.19368 1.68022C4.82716 1.41122 5.47103 1.27523 6.10452 1.27523C6.6208 1.27523 7.11483 1.33052 7.57177 1.43663C8.05096 1.56664 8.43372 1.72057 8.77494 1.92083C9.09984 2.10614 9.41584 2.35721 9.76597 2.71139C9.85498 2.80554 9.98553 2.83394 10.1057 2.78611C10.2259 2.73829 10.3001 2.62621 10.3001 2.49619V1.6862C10.3001 1.60251 10.26 1.5248 10.1918 1.47847C9.70959 1.0137 9.12655 0.652041 8.45894 0.403962L8.38476 0.381545V0.384534C7.61776 0.136456 6.85669 0.0183942 6.12084 0.0348331C6.106 0.0348331 6.08968 0.0348331 6.07485 0.0348331C3.56761 0.0348331 1.31407 1.61895 0.455085 3.99064C-0.151695 5.6719 -0.151695 7.52352 0.455085 9.20477C1.04109 10.7695 2.18938 11.9979 3.6863 12.6644C4.4533 13.0022 5.27372 13.1621 6.11639 13.1441C6.17276 13.1441 6.22765 13.1456 6.28255 13.1456C7.06439 13.1456 7.77798 13.0276 8.45746 12.784C9.08649 12.5494 9.6725 12.1892 10.2066 11.708C10.2748 11.6602 10.3149 11.5809 10.3149 11.4973V10.6932C10.3149 10.5632 10.2407 10.4526 10.122 10.4018H10.1205Z" fill="white"/>
<path d="M18.6121 0.428129C18.5349 0.241323 18.3628 0.124756 18.161 0.124756C17.9593 0.124756 17.7872 0.241323 17.71 0.428129L12.838 12.3329C12.7757 12.4853 12.792 12.6572 12.884 12.7947C12.9745 12.9322 13.1258 13.0129 13.2905 13.0129H13.565C13.7652 13.0129 13.9418 12.8918 14.0174 12.705L17.9993 2.72211C18.032 2.64141 18.1002 2.61899 18.161 2.61152C18.2189 2.61152 18.2916 2.63991 18.3242 2.72211L20.4843 8.11109L21.8715 11.5528C21.8937 11.6081 21.8878 11.6664 21.8551 11.7157C21.8225 11.765 21.7691 11.7934 21.7097 11.7934H18.342C18.0735 11.7934 17.8539 12.0146 17.8539 12.2851V12.5182C17.8539 12.7887 18.0735 13.0099 18.342 13.0099H23.0316C23.1948 13.0099 23.3461 12.9277 23.4381 12.7917C23.5301 12.6557 23.5464 12.4824 23.4841 12.3299L18.6121 0.428129Z" fill="white"/>
<path d="M35.3505 10.4227C35.2319 10.3734 35.1013 10.4003 35.0108 10.4914C34.6622 10.8411 34.3373 11.1012 34.0153 11.285C33.6667 11.4972 33.2691 11.6661 32.83 11.7841C32.33 11.9186 31.8345 11.9784 31.3449 11.962C30.0408 11.9814 28.7709 11.4359 27.8674 10.4765C27.4283 10.0027 27.0678 9.41543 26.8245 8.77879C26.5634 8.03904 26.4387 7.31722 26.4536 6.62828C26.4387 5.93784 26.5634 5.20407 26.8259 4.44937C27.047 3.83216 27.3927 3.26577 27.8541 2.76812C28.2769 2.31082 28.8139 1.9372 29.4074 1.68763C30.0408 1.41863 30.6832 1.28263 31.3182 1.28263C31.8345 1.28263 32.3285 1.33793 32.7854 1.44403C33.2706 1.57555 33.6711 1.72798 34.0064 1.9118C34.3328 2.0986 34.6488 2.34967 34.996 2.70087C35.085 2.79502 35.2155 2.82341 35.3357 2.77559C35.4559 2.72777 35.5301 2.61568 35.5301 2.48567V1.69062C35.5301 1.60544 35.4885 1.52772 35.4277 1.48887C34.9633 1.02409 34.3951 0.66991 33.6889 0.408381L33.6682 0.400909H33.6608C32.8759 0.14237 32.0941 0.0183302 31.3449 0.0347692C30.4933 0.0347692 29.6551 0.200653 28.9178 0.514487C28.2546 0.793949 27.6019 1.25424 26.9788 1.8834L26.9565 1.90731C26.3705 2.53947 25.9432 3.24783 25.6836 4.0115C25.0768 5.69126 25.0768 7.54288 25.6836 9.22414C26.5381 11.5898 28.7754 13.165 31.2633 13.165C31.29 13.165 31.3182 13.165 31.3449 13.165C31.4013 13.165 31.4562 13.1665 31.5111 13.1665C32.2929 13.1665 33.0065 13.0484 33.6875 12.8048C34.318 12.5702 34.907 12.2071 35.4321 11.7333C35.5019 11.6855 35.5449 11.6063 35.5449 11.5211V10.7171C35.5449 10.5871 35.4707 10.475 35.352 10.4257L35.3505 10.4227Z" fill="white"/>
<path d="M48.5848 4.03534L48.5803 4.0189C48.2762 3.22385 47.8341 2.51399 47.3045 1.96403C46.7422 1.38119 46.0835 0.935849 45.3461 0.641443C44.5673 0.341058 43.7009 0.181152 42.8404 0.181152H40.3065C40.0379 0.181152 39.8184 0.402331 39.8184 0.672826V6.41151C39.8184 6.68201 40.0379 6.90318 40.3065 6.90318H40.5216C40.7901 6.90318 41.0097 6.68201 41.0097 6.41151V1.55903C41.0097 1.4619 41.0868 1.38418 41.1832 1.38418H42.8419C43.5599 1.36774 44.2646 1.49328 44.9352 1.7578C45.4871 1.96851 45.9945 2.31074 46.4826 2.80242C46.9024 3.25972 47.2466 3.82312 47.4751 4.42838C47.9246 5.81971 47.9246 7.35301 47.4751 8.74733C47.2718 9.3481 46.9439 9.89507 46.4989 10.3748C46.0864 10.8067 45.5494 11.1683 44.9485 11.4209C44.272 11.6869 43.5481 11.8274 42.8537 11.8274H40.3198C40.0513 11.8274 39.8317 12.0486 39.8317 12.3191V12.5358C39.8317 12.8063 40.0513 13.0274 40.3198 13.0274H42.8537C43.7231 13.0274 44.5673 12.872 45.361 12.5671C46.1013 12.2727 46.76 11.8274 47.3208 11.2446C47.886 10.6378 48.3103 9.95186 48.5803 9.20314C49.1737 7.51292 49.1737 5.72705 48.5848 4.03683V4.03534Z" fill="white"/>
<path d="M59.858 11.9398C59.766 11.8471 59.6443 11.7963 59.5138 11.7963H59.5108L53.9875 11.8382C53.9029 11.8382 53.8495 11.7829 53.8273 11.7321C53.7991 11.6648 53.8124 11.5946 53.8629 11.5423L57.8893 7.30999C58.3106 6.88557 58.7052 6.38044 59.0969 5.76622H59.1325V5.71093C59.4826 5.11614 59.6577 4.42421 59.6414 3.70837C59.6236 2.79526 59.312 1.93147 58.7616 1.27541C58.4471 0.886848 58.0436 0.573014 57.597 0.365286C57.0956 0.129163 56.4888 -0.000854492 55.8909 -0.000854492C55.7129 -0.000854492 55.569 0.144107 55.569 0.323441V0.84052C55.569 1.01985 55.7129 1.16482 55.8968 1.16482C56.2811 1.14987 56.6905 1.22758 57.0481 1.38301C57.3448 1.53245 57.5866 1.72523 57.7884 1.97032L57.8062 1.99424C57.9976 2.2184 58.1563 2.50982 58.2542 2.81469L58.2602 2.83262C58.3625 3.10162 58.4159 3.39603 58.4159 3.70986C58.4159 4.12681 58.3551 4.47203 58.229 4.76494C58.1029 5.06084 57.956 5.37617 57.735 5.6646C57.5466 5.9067 57.2958 6.21904 57.0095 6.49552H56.9932L56.9769 6.5269L51.6865 12.1281C51.55 12.2731 51.5129 12.4778 51.5915 12.6601C51.6701 12.8439 51.8408 12.9575 52.0396 12.9575H59.5153C59.7838 12.9575 60.0034 12.7363 60.0034 12.4658V12.285C60.0034 12.1535 59.9529 12.0295 59.8595 11.9368L59.858 11.9398Z" fill="white"/>
<path d="M2.73684 20.9406C2.70568 21.2813 2.58106 21.5458 2.36298 21.7371C2.14489 21.9284 1.85708 22.0225 1.49509 22.0225C1.24288 22.0225 1.02035 21.9628 0.828967 21.8417C0.637586 21.7207 0.489229 21.5503 0.383896 21.3276C0.278562 21.1049 0.225154 20.8479 0.220703 20.555V20.2576C0.220703 19.9572 0.274112 19.6927 0.379445 19.4625C0.484778 19.2324 0.637586 19.0575 0.834901 18.9335C1.03222 18.8095 1.26069 18.7467 1.52031 18.7467C1.86895 18.7467 2.15083 18.8423 2.36298 19.0321C2.57513 19.2219 2.69975 19.4924 2.73535 19.8406H2.18792C2.16121 19.612 2.09593 19.4461 1.98912 19.3445C1.8823 19.2429 1.72653 19.192 1.52031 19.192C1.28146 19.192 1.09749 19.2802 0.969906 19.4566C0.842319 19.6329 0.775558 19.8915 0.772591 20.2307V20.5131C0.772591 20.8584 0.833417 21.1214 0.956554 21.3022C1.07969 21.483 1.25772 21.5742 1.49509 21.5742C1.71169 21.5742 1.8734 21.5249 1.9817 21.4277C2.09 21.3306 2.15973 21.1677 2.18792 20.9391H2.73535L2.73684 20.9406Z" fill="white"/>
<path d="M4.57913 20.7525H3.96642V21.9779H3.41602V18.7903H4.52869C4.89365 18.7903 5.17553 18.8725 5.37433 19.0384C5.57313 19.2042 5.67252 19.4419 5.67252 19.7542C5.67252 19.9679 5.62208 20.1457 5.51972 20.2892C5.41735 20.4327 5.27493 20.5433 5.09245 20.621L5.80308 21.9481V21.9764H5.2141L4.57913 20.751V20.7525ZM3.96642 20.3057H4.53166C4.71711 20.3057 4.8625 20.2593 4.96635 20.1652C5.0702 20.071 5.12212 19.9425 5.12212 19.7781C5.12212 19.6137 5.07316 19.4747 4.97821 19.3821C4.88178 19.2894 4.73788 19.2401 4.5465 19.2371H3.96642V20.3057Z" fill="white"/>
<path d="M8.22912 20.5553H6.92937V21.5357H8.44871V21.9781H6.37891V18.7904H8.43239V19.2372H6.92789V20.1175H8.22764V20.5553H8.22912ZM7.57479 17.9221H8.17719L7.57479 18.5857H7.15045L7.57479 17.9221Z" fill="white"/>
<path d="M9.08203 21.9779V18.7903H10.0167C10.2956 18.7903 10.5448 18.853 10.7614 18.9786C10.978 19.1041 11.1457 19.282 11.2644 19.5121C11.383 19.7422 11.4424 20.0068 11.4424 20.3042V20.4641C11.4424 20.7659 11.383 21.032 11.2629 21.2606C11.1442 21.4893 10.9736 21.6656 10.7525 21.7896C10.5315 21.9137 10.2778 21.9764 9.99294 21.9764H9.08203V21.9779ZM9.63095 19.2371V21.5356H9.98997C10.2778 21.5356 10.5003 21.4444 10.6531 21.2636C10.8074 21.0813 10.8861 20.8212 10.889 20.4805V20.3027C10.889 19.9574 10.8148 19.6929 10.665 19.5106C10.5152 19.3283 10.2986 19.2371 10.0152 19.2371H9.63095Z" fill="white"/>
<path d="M12.7584 21.9779H12.2109V18.7903H12.7584V21.9779Z" fill="white"/>
<path d="M15.8442 19.2371H14.8576V21.9779H14.3117V19.2371H13.334V18.7903H15.8442V19.2371Z" fill="white"/>
<path d="M19.3814 21.2369H18.156L17.8993 21.9797H17.3281L18.5239 18.792H19.0179L20.2151 21.9797H19.641L19.3829 21.2369H19.3814ZM18.3088 20.7901H19.2256L18.7672 19.4675L18.3088 20.7901Z" fill="white"/>
<path d="M23.1387 21.5646C23.0245 21.7155 22.8657 21.8291 22.6625 21.9068C22.4592 21.9845 22.2293 22.0234 21.9711 22.0234C21.713 22.0234 21.4712 21.9621 21.2664 21.8411C21.0617 21.72 20.9045 21.5467 20.7932 21.321C20.6819 21.0953 20.6255 20.8323 20.6211 20.5319V20.2824C20.6211 19.8011 20.7353 19.4245 20.9638 19.154C21.1923 18.8836 21.5127 18.7476 21.9222 18.7476C22.2738 18.7476 22.5542 18.8357 22.7604 19.0121C22.9666 19.1884 23.0927 19.441 23.1343 19.7713H22.5957C22.5349 19.3872 22.3138 19.1959 21.9326 19.1959C21.6863 19.1959 21.4994 19.2856 21.3703 19.4634C21.2427 19.6427 21.1759 19.9043 21.1715 20.2495V20.4946C21.1715 20.8383 21.2442 21.1058 21.3881 21.2956C21.532 21.4854 21.7323 21.581 21.9889 21.581C22.2693 21.581 22.4696 21.5168 22.5883 21.3882V20.7651H21.937V20.3451H23.1372V21.5661L23.1387 21.5646Z" fill="white"/>
<path d="M25.0928 20.7525H24.4801V21.9779H23.9297V18.7903H25.0424C25.4073 18.7903 25.6892 18.8725 25.888 19.0384C26.0868 19.2042 26.1862 19.4419 26.1862 19.7542C26.1862 19.9679 26.1358 20.1457 26.0334 20.2892C25.931 20.4327 25.7886 20.5433 25.6061 20.621L26.3168 21.9481V21.9764H25.7278L25.0928 20.751V20.7525ZM24.4801 20.3057H25.0453C25.2308 20.3057 25.3762 20.2593 25.48 20.1652C25.5839 20.071 25.6358 19.9425 25.6358 19.7781C25.6358 19.6137 25.5868 19.4747 25.4919 19.3821C25.3955 19.2894 25.2515 19.2401 25.0602 19.2371H24.4801V20.3057Z" fill="white"/>
<path d="M27.4752 21.9779H26.9277V18.7903H27.4752V21.9779Z" fill="white"/>
<path d="M30.751 20.9406C30.7198 21.2813 30.5952 21.5458 30.3771 21.7371C30.159 21.9284 29.8712 22.0225 29.5107 22.0225C29.2585 22.0225 29.036 21.9628 28.8446 21.8417C28.6532 21.7207 28.5049 21.5503 28.3995 21.3276C28.2942 21.1049 28.2408 20.8479 28.2363 20.555V20.2576C28.2363 19.9572 28.2897 19.6927 28.3951 19.4625C28.5004 19.2324 28.6532 19.0575 28.8505 18.9335C29.0478 18.8095 29.2763 18.7467 29.5359 18.7467C29.8846 18.7467 30.1665 18.8423 30.3786 19.0321C30.5908 19.2219 30.7154 19.4924 30.7495 19.8406H30.2021C30.1754 19.612 30.1101 19.4461 30.0033 19.3445C29.8964 19.2429 29.7407 19.192 29.5345 19.192C29.2956 19.192 29.1116 19.2802 28.984 19.4566C28.855 19.6329 28.7897 19.8915 28.7867 20.2307V20.5131C28.7867 20.8584 28.8476 21.1214 28.9707 21.3022C29.0923 21.483 29.2719 21.5742 29.5077 21.5742C29.7243 21.5742 29.8861 21.5249 29.9944 21.4277C30.1027 21.3306 30.1724 21.1677 30.2006 20.9391H30.748L30.751 20.9406Z" fill="white"/>
<path d="M33.9545 20.4683C33.9545 20.7806 33.9011 21.0541 33.7943 21.2903C33.6875 21.5264 33.5332 21.7072 33.3344 21.8327C33.1356 21.9583 32.9056 22.0225 32.646 22.0225C32.3864 22.0225 32.1609 21.9598 31.9606 21.8327C31.7603 21.7072 31.6045 21.5264 31.4962 21.2932C31.3865 21.0601 31.3316 20.7911 31.3301 20.4847V20.3054C31.3301 19.9946 31.385 19.7196 31.4948 19.482C31.6045 19.2444 31.7588 19.062 31.9576 18.9365C32.1564 18.811 32.3849 18.7467 32.643 18.7467C32.9012 18.7467 33.1296 18.8095 33.3284 18.9335C33.5272 19.0575 33.6815 19.2384 33.7898 19.4715C33.8981 19.7046 33.953 19.9781 33.9545 20.289V20.4668V20.4683ZM33.4041 20.3009C33.4041 19.9482 33.3373 19.6777 33.2053 19.4894C33.0733 19.3011 32.8849 19.207 32.6416 19.207C32.3982 19.207 32.2187 19.3011 32.0837 19.4879C31.9487 19.6748 31.882 19.9408 31.879 20.283V20.4668C31.879 20.8165 31.9472 21.0885 32.0822 21.2783C32.2173 21.4696 32.4057 21.5652 32.646 21.5652C32.8863 21.5652 33.0762 21.4726 33.2083 21.2843C33.3388 21.0975 33.4056 20.824 33.4056 20.4653V20.2994L33.4041 20.3009Z" fill="white"/>
<path d="M35.2399 21.5373H36.6762V21.9797H34.6895V18.792H35.2399V21.5373Z" fill="white"/>
<path d="M39.1354 20.5552H37.8356V21.5356H39.355V21.9779H37.2852V18.7903H39.3386V19.2371H37.8341V20.1174H39.1339V20.5552H39.1354Z" fill="white"/>
<path d="M43.6982 20.9406C43.6671 21.2813 43.5425 21.5458 43.3244 21.7371C43.1063 21.9284 42.8185 22.0225 42.458 22.0225C42.2058 22.0225 41.9832 21.9628 41.7919 21.8417C41.6005 21.7207 41.4521 21.5503 41.3468 21.3276C41.2415 21.1049 41.188 20.8479 41.1836 20.555V20.2576C41.1836 19.9572 41.237 19.6927 41.3423 19.4625C41.4477 19.2324 41.6005 19.0575 41.7978 18.9335C41.9951 18.8095 42.2236 18.7467 42.4832 18.7467C42.8318 18.7467 43.1137 18.8423 43.3259 19.0321C43.538 19.2219 43.6626 19.4924 43.6968 19.8406H43.1493C43.1226 19.612 43.0573 19.4461 42.9505 19.3445C42.8437 19.2429 42.6879 19.192 42.4817 19.192C42.2429 19.192 42.0589 19.2802 41.9313 19.4566C41.8022 19.6329 41.737 19.8915 41.734 20.2307V20.5131C41.734 20.8584 41.7948 21.1214 41.918 21.3022C42.0396 21.483 42.2191 21.5742 42.455 21.5742C42.6716 21.5742 42.8333 21.5249 42.9416 21.4277C43.0499 21.3306 43.1197 21.1677 43.1478 20.9391H43.6953L43.6982 20.9406Z" fill="white"/>
<path d="M46.8998 20.4683C46.8998 20.7806 46.8464 21.0541 46.7396 21.2903C46.6328 21.5264 46.4785 21.7072 46.2797 21.8327C46.0809 21.9583 45.8509 22.0225 45.5913 22.0225C45.3317 22.0225 45.1062 21.9598 44.9059 21.8327C44.7056 21.7072 44.5499 21.5264 44.4415 21.2932C44.3318 21.0601 44.2769 20.7911 44.2754 20.4847V20.3054C44.2754 19.9946 44.3303 19.7196 44.4401 19.482C44.5498 19.2444 44.7041 19.062 44.9029 18.9365C45.1017 18.811 45.3302 18.7467 45.5884 18.7467C45.8465 18.7467 46.075 18.8095 46.2738 18.9335C46.4726 19.0575 46.6268 19.2384 46.7351 19.4715C46.8434 19.7046 46.8983 19.9781 46.8998 20.289V20.4668V20.4683ZM46.3509 20.3009C46.3509 19.9482 46.2841 19.6777 46.1521 19.4894C46.0201 19.3011 45.8317 19.207 45.5884 19.207C45.345 19.207 45.1655 19.3011 45.0305 19.4879C44.8955 19.6748 44.8288 19.9408 44.8258 20.283V20.4668C44.8258 20.8165 44.894 21.0885 45.029 21.2783C45.164 21.4696 45.3525 21.5652 45.5928 21.5652C45.8331 21.5652 46.023 21.4726 46.1551 21.2843C46.2856 21.0975 46.3524 20.824 46.3524 20.4653V20.2994L46.3509 20.3009Z" fill="white"/>
<path d="M50.1464 21.9779H49.596L48.1852 19.7168V21.9779H47.6348V18.7903H48.1852L49.6005 21.0604V18.7903H50.1464V21.9779Z" fill="white"/>
<path d="M52.6357 21.157C52.6357 21.0166 52.5868 20.909 52.4889 20.8327C52.3909 20.7565 52.2144 20.6803 51.9592 20.6026C51.7041 20.5249 51.5008 20.4397 51.351 20.3441C51.0631 20.1617 50.9178 19.9241 50.9178 19.6297C50.9178 19.3727 51.0216 19.1619 51.2293 18.9946C51.437 18.8287 51.707 18.745 52.0393 18.745C52.2589 18.745 52.4562 18.7853 52.6283 18.8675C52.8004 18.9497 52.9369 19.0663 53.0348 19.2172C53.1327 19.3682 53.1832 19.5356 53.1832 19.7194H52.6357C52.6357 19.5535 52.5838 19.4235 52.48 19.3293C52.3761 19.2352 52.2277 19.1874 52.0349 19.1874C51.8554 19.1874 51.7159 19.2262 51.6165 19.3039C51.5171 19.3816 51.4682 19.4892 51.4682 19.6282C51.4682 19.7448 51.5216 19.8419 51.6284 19.9211C51.7352 20.0003 51.9117 20.0751 52.158 20.1483C52.4043 20.2215 52.6016 20.3052 52.7515 20.3994C52.9013 20.4935 53.0096 20.6011 53.0793 20.7236C53.149 20.8462 53.1832 20.9882 53.1832 21.1511C53.1832 21.4171 53.0823 21.6278 52.8805 21.7847C52.6788 21.9416 52.4043 22.0193 52.0586 22.0193C51.8302 22.0193 51.6195 21.976 51.4266 21.8908C51.2338 21.8056 51.0854 21.6876 50.9786 21.5366C50.8718 21.3857 50.8184 21.2108 50.8184 21.0106H51.3688C51.3688 21.1914 51.4281 21.3319 51.5468 21.4305C51.6655 21.5292 51.8361 21.58 52.0571 21.58C52.2485 21.58 52.3924 21.5411 52.4889 21.4634C52.5853 21.3857 52.6328 21.2826 52.6328 21.154L52.6357 21.157Z" fill="white"/>
<path d="M55.7037 20.5552H54.404V21.5356H55.9233V21.9779H53.8535V18.7903H55.907V19.2371H54.4025V20.1174H55.7022V20.5552H55.7037Z" fill="white"/>
<path d="M57.1393 21.9779H56.5918V18.7903H57.1393V21.9779Z" fill="white"/>
<path d="M58.5505 21.5373H59.9867V21.9797H58V18.792H58.5505V21.5373Z" fill="white"/>
<path d="M0.1875 27.0973C0.1875 26.9493 0.227556 26.8148 0.307669 26.6908C0.387782 26.5667 0.54504 26.4218 0.779444 26.2514C0.656308 26.096 0.570261 25.963 0.521303 25.8524C0.472345 25.7418 0.448608 25.6372 0.448608 25.5356C0.448608 25.286 0.52427 25.0887 0.674111 24.9438C0.823951 24.7988 1.0272 24.7256 1.28237 24.7256C1.51233 24.7256 1.70074 24.7943 1.8491 24.9303C1.99745 25.0663 2.07015 25.2352 2.07015 25.4369C2.07015 25.5699 2.03751 25.6925 1.97075 25.8031C1.90399 25.9137 1.79421 26.0258 1.64288 26.1363L1.42776 26.2933L2.03899 27.0196C2.12801 26.8447 2.17103 26.6489 2.17103 26.4352H2.62946C2.62946 26.8283 2.53747 27.1496 2.355 27.4006L2.81935 27.9551H2.20664L2.02861 27.7429C1.80311 27.9132 1.5331 27.9984 1.22006 27.9984C0.907031 27.9984 0.656308 27.9147 0.469378 27.7474C0.282448 27.58 0.1875 27.3618 0.1875 27.0943V27.0973ZM1.2349 27.577C1.41293 27.577 1.57909 27.5172 1.73486 27.3977L1.04352 26.5772L0.976759 26.625C0.803181 26.758 0.715651 26.909 0.715651 27.0808C0.715651 27.2288 0.763125 27.3483 0.85659 27.4395C0.950055 27.5307 1.07616 27.577 1.2349 27.577ZM0.94412 25.5221C0.94412 25.6447 1.0183 25.7986 1.16814 25.9839L1.40996 25.818L1.47672 25.7627C1.56722 25.682 1.61173 25.5789 1.61173 25.4534C1.61173 25.3697 1.58057 25.2995 1.51826 25.2397C1.45595 25.1799 1.37732 25.1515 1.28089 25.1515C1.17852 25.1515 1.09544 25.1859 1.03462 25.2561C0.973792 25.3264 0.942637 25.4145 0.942637 25.5206L0.94412 25.5221Z" fill="white"/>
<path d="M4.48828 27.9568V24.7692H5.42293C5.70184 24.7692 5.95108 24.8319 6.16768 24.9575C6.38428 25.083 6.55193 25.2608 6.67061 25.491C6.7893 25.7211 6.84864 25.9856 6.84864 26.283V26.4429C6.84864 26.7448 6.7893 27.0108 6.66913 27.2395C6.55044 27.4681 6.37983 27.6445 6.15878 27.7685C5.93773 27.8926 5.68404 27.9553 5.39919 27.9553H4.48828V27.9568ZM5.03869 25.216V27.5145H5.39771C5.68552 27.5145 5.90806 27.4233 6.06086 27.2425C6.21516 27.0602 6.29378 26.8001 6.29675 26.4594V26.2815C6.29675 25.9363 6.22257 25.6718 6.07273 25.4895C5.92289 25.3072 5.70629 25.216 5.42293 25.216H5.03869Z" fill="white"/>
<path d="M9.35412 26.5325H8.05437V27.5129H9.57371V27.9552H7.50391V24.7676H9.55739V25.2144H8.05289V26.0946H9.35264V26.5325H9.35412ZM8.6998 23.8993H9.30219L8.6998 24.5628H8.27545L8.6998 23.8993Z" fill="white"/>
<path d="M11.2408 27.2628L12.0449 24.77H12.6487L11.5093 27.9577H10.9767L9.8418 24.77H10.4441L11.2393 27.2628H11.2408Z" fill="white"/>
<path d="M14.9635 26.5341H13.6637V27.5145H15.1831V27.9568H13.1133V24.7692H15.1668V25.216H13.6623V26.0962H14.962V26.5341H14.9635Z" fill="white"/>
<path d="M16.2868 27.5153H17.723V27.9577H15.7363V24.77H16.2868V27.5153Z" fill="white"/>
<path d="M20.6381 26.4472C20.6381 26.7595 20.5847 27.033 20.4779 27.2691C20.3711 27.5053 20.2168 27.6861 20.018 27.8116C19.8192 27.9372 19.5892 28.0014 19.3296 28.0014C19.07 28.0014 18.8445 27.9387 18.6442 27.8116C18.4439 27.6861 18.2881 27.5053 18.1798 27.2721C18.07 27.039 18.0152 26.77 18.0137 26.4636V26.2843C18.0137 25.9734 18.0686 25.6985 18.1783 25.4609C18.2881 25.2232 18.4424 25.0409 18.6412 24.9154C18.84 24.7898 19.0685 24.7256 19.3266 24.7256C19.5848 24.7256 19.8132 24.7884 20.012 24.9124C20.2108 25.0364 20.3651 25.2173 20.4734 25.4504C20.5817 25.6835 20.6366 25.957 20.6381 26.2679V26.4457V26.4472ZM20.0892 26.2798C20.0892 25.9271 20.0224 25.6566 19.8904 25.4683C19.7583 25.28 19.5699 25.1859 19.3266 25.1859C19.0833 25.1859 18.9038 25.28 18.7688 25.4668C18.6338 25.6536 18.567 25.9197 18.5641 26.2619V26.4457C18.5641 26.7954 18.6323 27.0674 18.7673 27.2572C18.9023 27.4485 19.0907 27.5441 19.3311 27.5441C19.5714 27.5441 19.7613 27.4515 19.8934 27.2632C20.0239 27.0764 20.0907 26.8029 20.0907 26.4442V26.2783L20.0892 26.2798Z" fill="white"/>
<path d="M21.8414 26.7747V27.9568H21.291V24.7692H22.5016C22.8547 24.7692 23.1351 24.8618 23.3443 25.0471C23.552 25.2324 23.6558 25.4775 23.6558 25.7839C23.6558 26.0903 23.5535 26.3398 23.3502 26.5132C23.147 26.6865 22.8621 26.7747 22.4957 26.7747H21.8414ZM21.8414 26.3294H22.5016C22.6974 26.3294 22.8458 26.283 22.9496 26.1904C23.0535 26.0977 23.1039 25.9632 23.1039 25.7884C23.1039 25.6135 23.052 25.479 22.9482 25.3759C22.8443 25.2728 22.7004 25.2205 22.5179 25.2175H21.8414V26.3294Z" fill="white"/>
<path d="M24.7926 26.7747V27.9568H24.2422V24.7692H25.4528C25.8059 24.7692 26.0863 24.8618 26.2954 25.0471C26.5031 25.2324 26.607 25.4775 26.607 25.7839C26.607 26.0903 26.5046 26.3398 26.3014 26.5132C26.0981 26.6865 25.8133 26.7747 25.4468 26.7747H24.7926ZM24.7926 26.3294H25.4528C25.6486 26.3294 25.797 26.283 25.9008 26.1904C26.0047 26.0977 26.0551 25.9632 26.0551 25.7884C26.0551 25.6135 26.0032 25.479 25.8993 25.3759C25.7955 25.2728 25.6516 25.2205 25.4691 25.2175H24.7926V26.3294Z" fill="white"/>
<path d="M29.0436 26.5341H27.7438V27.5145H29.2632V27.9568H27.1934V24.7692H29.2468V25.216H27.7423V26.0962H29.0421V26.5341H29.0436Z" fill="white"/>
<path d="M30.5309 24.77L31.4433 27.2134L32.3542 24.77H33.0649V27.9577H32.5174V26.9071L32.5723 25.5023L31.6377 27.9592H31.2445L30.3129 25.5053L30.3677 26.9086V27.9592H29.8203V24.7715H30.5324L30.5309 24.77Z" fill="white"/>
<path d="M35.6725 26.5341H34.3727V27.5145H35.8921V27.9568H33.8223V24.7692H35.8758V25.216H34.3712V26.0962H35.671V26.5341H35.6725Z" fill="white"/>
<path d="M38.955 27.9568H38.4046L36.9938 25.6957V27.9568H36.4434V24.7692H36.9938L38.4091 27.0392V24.7692H38.955V27.9568Z" fill="white"/>
<path d="M41.936 25.216H40.9494V27.9568H40.4035V25.216H39.4258V24.7692H41.936V25.216Z" fill="white"/>
<path d="M43.541 27.9568V24.7692H44.4757C44.7546 24.7692 45.0038 24.8319 45.2204 24.9575C45.437 25.083 45.6047 25.2608 45.7233 25.491C45.842 25.7211 45.9014 25.9856 45.9014 26.283V26.4429C45.9014 26.7448 45.842 27.0108 45.7219 27.2395C45.6032 27.4681 45.4326 27.6445 45.2115 27.7685C44.9905 27.8926 44.7368 27.9553 44.4519 27.9553H43.541V27.9568ZM44.0899 25.216V27.5145H44.449C44.7368 27.5145 44.9593 27.4233 45.1121 27.2425C45.2664 27.0602 45.345 26.8001 45.348 26.4594V26.2815C45.348 25.9363 45.2738 25.6718 45.124 25.4895C44.9741 25.3072 44.7575 25.216 44.4742 25.216H44.0899Z" fill="white"/>
<path d="M47.1354 27.9568H46.5879V24.7692H47.1354V27.9568Z" fill="white"/>
<path d="M50.3438 27.5435C50.2296 27.6944 50.0708 27.808 49.8676 27.8857C49.6643 27.9634 49.4344 28.0023 49.1762 28.0023C48.9181 28.0023 48.6763 27.941 48.4715 27.8199C48.2668 27.6989 48.1095 27.5255 47.9983 27.2999C47.887 27.0742 47.8306 26.8112 47.8262 26.5108V26.2612C47.8262 25.78 47.9404 25.4034 48.1689 25.1329C48.3973 24.8624 48.7178 24.7264 49.1273 24.7264C49.4789 24.7264 49.7593 24.8146 49.9655 24.991C50.1717 25.1673 50.2978 25.4199 50.3393 25.7501H49.8008C49.74 25.3661 49.5189 25.1748 49.1376 25.1748C48.8914 25.1748 48.7044 25.2644 48.5754 25.4423C48.4478 25.6216 48.381 25.8831 48.3766 26.2284V26.4735C48.3766 26.8172 48.4493 27.0847 48.5932 27.2745C48.7371 27.4643 48.9374 27.5599 49.194 27.5599C49.4744 27.5599 49.6747 27.4957 49.7934 27.3671V26.7439H49.1421V26.324H50.3423V27.545L50.3438 27.5435Z" fill="white"/>
<path d="M51.6354 27.9568H51.0879V24.7692H51.6354V27.9568Z" fill="white"/>
<path d="M54.6411 25.216H53.6545V27.9568H53.1085V25.216H52.1309V24.7692H54.6411V25.216Z" fill="white"/>
<path d="M56.6724 27.2149H55.447L55.1903 27.9577H54.6191L55.8149 24.77H56.3089L57.5062 27.9577H56.932L56.6739 27.2149H56.6724ZM55.6013 26.7681H56.5181L56.0597 25.4455L55.6013 26.7681Z" fill="white"/>
<path d="M58.5231 27.5153H59.9594V27.9577H57.9727V24.77H58.5231V27.5153Z" fill="white"/>
</g>
<defs>
<clipPath id="clip0_219_636">
<rect width="60" height="28" fill="white"/>
</clipPath>
</defs>
</svg>
