<svg width="1010" height="1010" viewBox="0 0 1010 1010" fill="none" xmlns="http://www.w3.org/2000/svg">
<g clip-path="url(#clip0_207_1080)">
<path opacity="0.35" d="M0.00032115 3.65152C2.01709 3.65152 3.65201 2.0166 3.65201 -0.000167131C3.65201 -2.01694 2.01709 -3.65186 0.00032115 -3.65186C-2.01645 -3.65186 -3.65137 -2.01694 -3.65137 -0.000167131C-3.65137 2.0166 -2.01645 3.65152 0.00032115 3.65152Z" fill="white"/>
<path opacity="0.35" d="M56.0667 3.65152C58.0835 3.65152 59.7184 2.0166 59.7184 -0.000167131C59.7184 -2.01694 58.0835 -3.65186 56.0667 -3.65186C54.05 -3.65186 52.415 -2.01694 52.415 -0.000167131C52.415 2.0166 54.05 3.65152 56.0667 3.65152Z" fill="white"/>
<path opacity="0.35" d="M112.133 3.65152C114.15 3.65152 115.785 2.0166 115.785 -0.000167131C115.785 -2.01694 114.15 -3.65186 112.133 -3.65186C110.116 -3.65186 108.481 -2.01694 108.481 -0.000167131C108.481 2.0166 110.116 3.65152 112.133 3.65152Z" fill="white"/>
<path opacity="0.35" d="M168.2 3.65152C170.216 3.65152 171.851 2.0166 171.851 -0.000167131C171.851 -2.01694 170.216 -3.65186 168.2 -3.65186C166.183 -3.65186 164.548 -2.01694 164.548 -0.000167131C164.548 2.0166 166.183 3.65152 168.2 3.65152Z" fill="white"/>
<path opacity="0.35" d="M224.266 3.65152C226.283 3.65152 227.918 2.0166 227.918 -0.000167131C227.918 -2.01694 226.283 -3.65186 224.266 -3.65186C222.249 -3.65186 220.614 -2.01694 220.614 -0.000167131C220.614 2.0166 222.249 3.65152 224.266 3.65152Z" fill="white"/>
<path opacity="0.35" d="M280.332 3.65152C282.349 3.65152 283.984 2.0166 283.984 -0.000167131C283.984 -2.01694 282.349 -3.65186 280.332 -3.65186C278.316 -3.65186 276.681 -2.01694 276.681 -0.000167131C276.681 2.0166 278.316 3.65152 280.332 3.65152Z" fill="white"/>
<path opacity="0.35" d="M336.399 3.65152C338.416 3.65152 340.05 2.0166 340.05 -0.000167131C340.05 -2.01694 338.416 -3.65186 336.399 -3.65186C334.382 -3.65186 332.747 -2.01694 332.747 -0.000167131C332.747 2.0166 334.382 3.65152 336.399 3.65152Z" fill="white"/>
<path opacity="0.35" d="M392.465 3.65152C394.482 3.65152 396.117 2.0166 396.117 -0.000167131C396.117 -2.01694 394.482 -3.65186 392.465 -3.65186C390.448 -3.65186 388.813 -2.01694 388.813 -0.000167131C388.813 2.0166 390.448 3.65152 392.465 3.65152Z" fill="white"/>
<path opacity="0.35" d="M448.532 3.65152C450.548 3.65152 452.183 2.0166 452.183 -0.000167131C452.183 -2.01694 450.548 -3.65186 448.532 -3.65186C446.515 -3.65186 444.88 -2.01694 444.88 -0.000167131C444.88 2.0166 446.515 3.65152 448.532 3.65152Z" fill="white"/>
<path opacity="0.35" d="M504.597 3.65152C506.614 3.65152 508.249 2.0166 508.249 -0.000167131C508.249 -2.01694 506.614 -3.65186 504.597 -3.65186C502.58 -3.65186 500.945 -2.01694 500.945 -0.000167131C500.945 2.0166 502.58 3.65152 504.597 3.65152Z" fill="white"/>
<path opacity="0.35" d="M560.663 3.65152C562.68 3.65152 564.315 2.0166 564.315 -0.000167131C564.315 -2.01694 562.68 -3.65186 560.663 -3.65186C558.647 -3.65186 557.012 -2.01694 557.012 -0.000167131C557.012 2.0166 558.647 3.65152 560.663 3.65152Z" fill="white"/>
<path opacity="0.35" d="M616.73 3.65152C618.747 3.65152 620.382 2.0166 620.382 -0.000167131C620.382 -2.01694 618.747 -3.65186 616.73 -3.65186C614.713 -3.65186 613.078 -2.01694 613.078 -0.000167131C613.078 2.0166 614.713 3.65152 616.73 3.65152Z" fill="white"/>
<path opacity="0.35" d="M672.796 3.65152C674.813 3.65152 676.448 2.0166 676.448 -0.000167131C676.448 -2.01694 674.813 -3.65186 672.796 -3.65186C670.779 -3.65186 669.145 -2.01694 669.145 -0.000167131C669.145 2.0166 670.779 3.65152 672.796 3.65152Z" fill="white"/>
<path opacity="0.35" d="M728.863 3.65152C730.879 3.65152 732.514 2.0166 732.514 -0.000167131C732.514 -2.01694 730.879 -3.65186 728.863 -3.65186C726.846 -3.65186 725.211 -2.01694 725.211 -0.000167131C725.211 2.0166 726.846 3.65152 728.863 3.65152Z" fill="white"/>
<path opacity="0.35" d="M784.929 3.65152C786.946 3.65152 788.581 2.0166 788.581 -0.000167131C788.581 -2.01694 786.946 -3.65186 784.929 -3.65186C782.912 -3.65186 781.277 -2.01694 781.277 -0.000167131C781.277 2.0166 782.912 3.65152 784.929 3.65152Z" fill="white"/>
<path opacity="0.35" d="M840.995 3.65152C843.012 3.65152 844.647 2.0166 844.647 -0.000167131C844.647 -2.01694 843.012 -3.65186 840.995 -3.65186C838.979 -3.65186 837.344 -2.01694 837.344 -0.000167131C837.344 2.0166 838.979 3.65152 840.995 3.65152Z" fill="white"/>
<path opacity="0.35" d="M897.062 3.65152C899.079 3.65152 900.714 2.0166 900.714 -0.000167131C900.714 -2.01694 899.079 -3.65186 897.062 -3.65186C895.045 -3.65186 893.41 -2.01694 893.41 -0.000167131C893.41 2.0166 895.045 3.65152 897.062 3.65152Z" fill="white"/>
<path opacity="0.35" d="M953.127 3.65152C955.144 3.65152 956.779 2.0166 956.779 -0.000167131C956.779 -2.01694 955.144 -3.65186 953.127 -3.65186C951.11 -3.65186 949.476 -2.01694 949.476 -0.000167131C949.476 2.0166 951.11 3.65152 953.127 3.65152Z" fill="white"/>
<path opacity="0.35" d="M1009.19 3.65152C1011.21 3.65152 1012.85 2.0166 1012.85 -0.000167131C1012.85 -2.01694 1011.21 -3.65186 1009.19 -3.65186C1007.18 -3.65186 1005.54 -2.01694 1005.54 -0.000167131C1005.54 2.0166 1007.18 3.65152 1009.19 3.65152Z" fill="white"/>
<path opacity="0.35" d="M0.00032115 59.7178C2.01709 59.7178 3.65201 58.0829 3.65201 56.0661C3.65201 54.0493 2.01709 52.4144 0.00032115 52.4144C-2.01645 52.4144 -3.65137 54.0493 -3.65137 56.0661C-3.65137 58.0829 -2.01645 59.7178 0.00032115 59.7178Z" fill="white"/>
<path d="M56.0667 59.7178C58.0835 59.7178 59.7184 58.0829 59.7184 56.0661C59.7184 54.0493 58.0835 52.4144 56.0667 52.4144C54.05 52.4144 52.415 54.0493 52.415 56.0661C52.415 58.0829 54.05 59.7178 56.0667 59.7178Z" fill="white"/>
<path opacity="0.35" d="M112.133 59.7178C114.15 59.7178 115.785 58.0829 115.785 56.0661C115.785 54.0493 114.15 52.4144 112.133 52.4144C110.116 52.4144 108.481 54.0493 108.481 56.0661C108.481 58.0829 110.116 59.7178 112.133 59.7178Z" fill="white"/>
<path d="M168.2 59.7178C170.216 59.7178 171.851 58.0829 171.851 56.0661C171.851 54.0493 170.216 52.4144 168.2 52.4144C166.183 52.4144 164.548 54.0493 164.548 56.0661C164.548 58.0829 166.183 59.7178 168.2 59.7178Z" fill="white"/>
<path d="M224.266 59.7178C226.283 59.7178 227.918 58.0829 227.918 56.0661C227.918 54.0493 226.283 52.4144 224.266 52.4144C222.249 52.4144 220.614 54.0493 220.614 56.0661C220.614 58.0829 222.249 59.7178 224.266 59.7178Z" fill="white"/>
<path d="M280.332 59.7178C282.349 59.7178 283.984 58.0829 283.984 56.0661C283.984 54.0493 282.349 52.4144 280.332 52.4144C278.316 52.4144 276.681 54.0493 276.681 56.0661C276.681 58.0829 278.316 59.7178 280.332 59.7178Z" fill="white"/>
<path opacity="0.35" d="M336.399 59.7178C338.416 59.7178 340.05 58.0829 340.05 56.0661C340.05 54.0493 338.416 52.4144 336.399 52.4144C334.382 52.4144 332.747 54.0493 332.747 56.0661C332.747 58.0829 334.382 59.7178 336.399 59.7178Z" fill="white"/>
<path opacity="0.35" d="M392.465 59.7178C394.482 59.7178 396.117 58.0829 396.117 56.0661C396.117 54.0493 394.482 52.4144 392.465 52.4144C390.448 52.4144 388.813 54.0493 388.813 56.0661C388.813 58.0829 390.448 59.7178 392.465 59.7178Z" fill="white"/>
<path opacity="0.35" d="M448.532 59.7178C450.548 59.7178 452.183 58.0829 452.183 56.0661C452.183 54.0493 450.548 52.4144 448.532 52.4144C446.515 52.4144 444.88 54.0493 444.88 56.0661C444.88 58.0829 446.515 59.7178 448.532 59.7178Z" fill="white"/>
<path opacity="0.35" d="M504.597 59.7178C506.614 59.7178 508.249 58.0829 508.249 56.0661C508.249 54.0493 506.614 52.4144 504.597 52.4144C502.58 52.4144 500.945 54.0493 500.945 56.0661C500.945 58.0829 502.58 59.7178 504.597 59.7178Z" fill="white"/>
<path d="M560.663 59.7178C562.68 59.7178 564.315 58.0829 564.315 56.0661C564.315 54.0493 562.68 52.4144 560.663 52.4144C558.647 52.4144 557.012 54.0493 557.012 56.0661C557.012 58.0829 558.647 59.7178 560.663 59.7178Z" fill="white"/>
<path d="M616.73 59.7178C618.747 59.7178 620.382 58.0829 620.382 56.0661C620.382 54.0493 618.747 52.4144 616.73 52.4144C614.713 52.4144 613.078 54.0493 613.078 56.0661C613.078 58.0829 614.713 59.7178 616.73 59.7178Z" fill="white"/>
<path opacity="0.35" d="M672.796 59.7178C674.813 59.7178 676.448 58.0829 676.448 56.0661C676.448 54.0493 674.813 52.4144 672.796 52.4144C670.779 52.4144 669.145 54.0493 669.145 56.0661C669.145 58.0829 670.779 59.7178 672.796 59.7178Z" fill="white"/>
<path d="M728.863 59.7178C730.879 59.7178 732.514 58.0829 732.514 56.0661C732.514 54.0493 730.879 52.4144 728.863 52.4144C726.846 52.4144 725.211 54.0493 725.211 56.0661C725.211 58.0829 726.846 59.7178 728.863 59.7178Z" fill="white"/>
<path opacity="0.35" d="M784.929 59.7178C786.946 59.7178 788.581 58.0829 788.581 56.0661C788.581 54.0493 786.946 52.4144 784.929 52.4144C782.912 52.4144 781.277 54.0493 781.277 56.0661C781.277 58.0829 782.912 59.7178 784.929 59.7178Z" fill="white"/>
<path opacity="0.35" d="M840.995 59.7178C843.012 59.7178 844.647 58.0829 844.647 56.0661C844.647 54.0493 843.012 52.4144 840.995 52.4144C838.979 52.4144 837.344 54.0493 837.344 56.0661C837.344 58.0829 838.979 59.7178 840.995 59.7178Z" fill="white"/>
<path opacity="0.35" d="M897.062 59.7178C899.079 59.7178 900.714 58.0829 900.714 56.0661C900.714 54.0493 899.079 52.4144 897.062 52.4144C895.045 52.4144 893.41 54.0493 893.41 56.0661C893.41 58.0829 895.045 59.7178 897.062 59.7178Z" fill="white"/>
<path opacity="0.35" d="M953.127 59.7178C955.144 59.7178 956.779 58.0829 956.779 56.0661C956.779 54.0493 955.144 52.4144 953.127 52.4144C951.11 52.4144 949.476 54.0493 949.476 56.0661C949.476 58.0829 951.11 59.7178 953.127 59.7178Z" fill="white"/>
<path opacity="0.35" d="M1009.19 59.7178C1011.21 59.7178 1012.85 58.0829 1012.85 56.0661C1012.85 54.0493 1011.21 52.4144 1009.19 52.4144C1007.18 52.4144 1005.54 54.0493 1005.54 56.0661C1005.54 58.0829 1007.18 59.7178 1009.19 59.7178Z" fill="white"/>
<path opacity="0.35" d="M0.00032115 115.784C2.01709 115.784 3.65201 114.149 3.65201 112.132C3.65201 110.116 2.01709 108.481 0.00032115 108.481C-2.01645 108.481 -3.65137 110.116 -3.65137 112.132C-3.65137 114.149 -2.01645 115.784 0.00032115 115.784Z" fill="white"/>
<path opacity="0.35" d="M56.0667 115.784C58.0835 115.784 59.7184 114.149 59.7184 112.132C59.7184 110.116 58.0835 108.481 56.0667 108.481C54.05 108.481 52.415 110.116 52.415 112.132C52.415 114.149 54.05 115.784 56.0667 115.784Z" fill="white"/>
<path opacity="0.35" d="M112.133 115.784C114.15 115.784 115.785 114.149 115.785 112.132C115.785 110.116 114.15 108.481 112.133 108.481C110.116 108.481 108.481 110.116 108.481 112.132C108.481 114.149 110.116 115.784 112.133 115.784Z" fill="white"/>
<path d="M168.2 115.784C170.216 115.784 171.851 114.149 171.851 112.132C171.851 110.116 170.216 108.481 168.2 108.481C166.183 108.481 164.548 110.116 164.548 112.132C164.548 114.149 166.183 115.784 168.2 115.784Z" fill="white"/>
<path d="M224.266 115.784C226.283 115.784 227.918 114.149 227.918 112.132C227.918 110.116 226.283 108.481 224.266 108.481C222.249 108.481 220.614 110.116 220.614 112.132C220.614 114.149 222.249 115.784 224.266 115.784Z" fill="white"/>
<path opacity="0.35" d="M280.332 115.784C282.349 115.784 283.984 114.149 283.984 112.132C283.984 110.116 282.349 108.481 280.332 108.481C278.316 108.481 276.681 110.116 276.681 112.132C276.681 114.149 278.316 115.784 280.332 115.784Z" fill="white"/>
<path opacity="0.35" d="M336.399 115.784C338.416 115.784 340.05 114.149 340.05 112.132C340.05 110.116 338.416 108.481 336.399 108.481C334.382 108.481 332.747 110.116 332.747 112.132C332.747 114.149 334.382 115.784 336.399 115.784Z" fill="white"/>
<path opacity="0.35" d="M392.465 115.784C394.482 115.784 396.117 114.149 396.117 112.132C396.117 110.116 394.482 108.481 392.465 108.481C390.448 108.481 388.813 110.116 388.813 112.132C388.813 114.149 390.448 115.784 392.465 115.784Z" fill="white"/>
<path opacity="0.35" d="M448.532 115.784C450.548 115.784 452.183 114.149 452.183 112.132C452.183 110.116 450.548 108.481 448.532 108.481C446.515 108.481 444.88 110.116 444.88 112.132C444.88 114.149 446.515 115.784 448.532 115.784Z" fill="white"/>
<path opacity="0.35" d="M504.597 115.784C506.614 115.784 508.249 114.149 508.249 112.132C508.249 110.116 506.614 108.481 504.597 108.481C502.58 108.481 500.945 110.116 500.945 112.132C500.945 114.149 502.58 115.784 504.597 115.784Z" fill="white"/>
<path opacity="0.35" d="M560.663 115.784C562.68 115.784 564.315 114.149 564.315 112.132C564.315 110.116 562.68 108.481 560.663 108.481C558.647 108.481 557.012 110.116 557.012 112.132C557.012 114.149 558.647 115.784 560.663 115.784Z" fill="white"/>
<path opacity="0.35" d="M616.73 115.784C618.747 115.784 620.382 114.149 620.382 112.132C620.382 110.116 618.747 108.481 616.73 108.481C614.713 108.481 613.078 110.116 613.078 112.132C613.078 114.149 614.713 115.784 616.73 115.784Z" fill="white"/>
<path opacity="0.35" d="M672.796 115.784C674.813 115.784 676.448 114.149 676.448 112.132C676.448 110.116 674.813 108.481 672.796 108.481C670.779 108.481 669.145 110.116 669.145 112.132C669.145 114.149 670.779 115.784 672.796 115.784Z" fill="white"/>
<path opacity="0.35" d="M728.863 115.784C730.879 115.784 732.514 114.149 732.514 112.132C732.514 110.116 730.879 108.481 728.863 108.481C726.846 108.481 725.211 110.116 725.211 112.132C725.211 114.149 726.846 115.784 728.863 115.784Z" fill="white"/>
<path d="M784.929 115.784C786.946 115.784 788.581 114.149 788.581 112.132C788.581 110.116 786.946 108.481 784.929 108.481C782.912 108.481 781.277 110.116 781.277 112.132C781.277 114.149 782.912 115.784 784.929 115.784Z" fill="white"/>
<path d="M840.995 115.784C843.012 115.784 844.647 114.149 844.647 112.132C844.647 110.116 843.012 108.481 840.995 108.481C838.979 108.481 837.344 110.116 837.344 112.132C837.344 114.149 838.979 115.784 840.995 115.784Z" fill="white"/>
<path opacity="0.35" d="M897.062 115.784C899.079 115.784 900.714 114.149 900.714 112.132C900.714 110.116 899.079 108.481 897.062 108.481C895.045 108.481 893.41 110.116 893.41 112.132C893.41 114.149 895.045 115.784 897.062 115.784Z" fill="white"/>
<path opacity="0.35" d="M953.127 115.784C955.144 115.784 956.779 114.149 956.779 112.132C956.779 110.116 955.144 108.481 953.127 108.481C951.11 108.481 949.476 110.116 949.476 112.132C949.476 114.149 951.11 115.784 953.127 115.784Z" fill="white"/>
<path opacity="0.35" d="M1009.19 115.784C1011.21 115.784 1012.85 114.149 1012.85 112.132C1012.85 110.116 1011.21 108.481 1009.19 108.481C1007.18 108.481 1005.54 110.116 1005.54 112.132C1005.54 114.149 1007.18 115.784 1009.19 115.784Z" fill="white"/>
<path opacity="0.35" d="M0.00032115 171.85C2.01709 171.85 3.65201 170.215 3.65201 168.199C3.65201 166.182 2.01709 164.547 0.00032115 164.547C-2.01645 164.547 -3.65137 166.182 -3.65137 168.199C-3.65137 170.215 -2.01645 171.85 0.00032115 171.85Z" fill="white"/>
<path d="M56.0667 171.85C58.0835 171.85 59.7184 170.215 59.7184 168.199C59.7184 166.182 58.0835 164.547 56.0667 164.547C54.05 164.547 52.415 166.182 52.415 168.199C52.415 170.215 54.05 171.85 56.0667 171.85Z" fill="white"/>
<path d="M112.133 171.85C114.15 171.85 115.785 170.215 115.785 168.199C115.785 166.182 114.15 164.547 112.133 164.547C110.116 164.547 108.481 166.182 108.481 168.199C108.481 170.215 110.116 171.85 112.133 171.85Z" fill="white"/>
<path opacity="0.35" d="M168.2 171.85C170.216 171.85 171.851 170.215 171.851 168.199C171.851 166.182 170.216 164.547 168.2 164.547C166.183 164.547 164.548 166.182 164.548 168.199C164.548 170.215 166.183 171.85 168.2 171.85Z" fill="white"/>
<path d="M224.266 171.85C226.283 171.85 227.918 170.215 227.918 168.199C227.918 166.182 226.283 164.547 224.266 164.547C222.249 164.547 220.614 166.182 220.614 168.199C220.614 170.215 222.249 171.85 224.266 171.85Z" fill="white"/>
<path opacity="0.35" d="M280.332 171.85C282.349 171.85 283.984 170.215 283.984 168.199C283.984 166.182 282.349 164.547 280.332 164.547C278.316 164.547 276.681 166.182 276.681 168.199C276.681 170.215 278.316 171.85 280.332 171.85Z" fill="white"/>
<path d="M336.399 171.85C338.416 171.85 340.05 170.215 340.05 168.199C340.05 166.182 338.416 164.547 336.399 164.547C334.382 164.547 332.747 166.182 332.747 168.199C332.747 170.215 334.382 171.85 336.399 171.85Z" fill="white"/>
<path opacity="0.35" d="M392.465 171.85C394.482 171.85 396.117 170.215 396.117 168.199C396.117 166.182 394.482 164.547 392.465 164.547C390.448 164.547 388.813 166.182 388.813 168.199C388.813 170.215 390.448 171.85 392.465 171.85Z" fill="white"/>
<path opacity="0.35" d="M448.532 171.85C450.548 171.85 452.183 170.215 452.183 168.199C452.183 166.182 450.548 164.547 448.532 164.547C446.515 164.547 444.88 166.182 444.88 168.199C444.88 170.215 446.515 171.85 448.532 171.85Z" fill="white"/>
<path d="M504.597 171.85C506.614 171.85 508.249 170.215 508.249 168.199C508.249 166.182 506.614 164.547 504.597 164.547C502.58 164.547 500.945 166.182 500.945 168.199C500.945 170.215 502.58 171.85 504.597 171.85Z" fill="white"/>
<path d="M560.663 171.85C562.68 171.85 564.315 170.215 564.315 168.199C564.315 166.182 562.68 164.547 560.663 164.547C558.647 164.547 557.012 166.182 557.012 168.199C557.012 170.215 558.647 171.85 560.663 171.85Z" fill="white"/>
<path opacity="0.35" d="M616.73 171.85C618.747 171.85 620.382 170.215 620.382 168.199C620.382 166.182 618.747 164.547 616.73 164.547C614.713 164.547 613.078 166.182 613.078 168.199C613.078 170.215 614.713 171.85 616.73 171.85Z" fill="white"/>
<path opacity="0.35" d="M672.796 171.85C674.813 171.85 676.448 170.215 676.448 168.199C676.448 166.182 674.813 164.547 672.796 164.547C670.779 164.547 669.145 166.182 669.145 168.199C669.145 170.215 670.779 171.85 672.796 171.85Z" fill="white"/>
<path opacity="0.35" d="M728.863 171.85C730.879 171.85 732.514 170.215 732.514 168.199C732.514 166.182 730.879 164.547 728.863 164.547C726.846 164.547 725.211 166.182 725.211 168.199C725.211 170.215 726.846 171.85 728.863 171.85Z" fill="white"/>
<path opacity="0.35" d="M784.929 171.85C786.946 171.85 788.581 170.215 788.581 168.199C788.581 166.182 786.946 164.547 784.929 164.547C782.912 164.547 781.277 166.182 781.277 168.199C781.277 170.215 782.912 171.85 784.929 171.85Z" fill="white"/>
<path opacity="0.35" d="M840.995 171.85C843.012 171.85 844.647 170.215 844.647 168.199C844.647 166.182 843.012 164.547 840.995 164.547C838.979 164.547 837.344 166.182 837.344 168.199C837.344 170.215 838.979 171.85 840.995 171.85Z" fill="white"/>
<path opacity="0.35" d="M897.062 171.85C899.079 171.85 900.714 170.215 900.714 168.199C900.714 166.182 899.079 164.547 897.062 164.547C895.045 164.547 893.41 166.182 893.41 168.199C893.41 170.215 895.045 171.85 897.062 171.85Z" fill="white"/>
<path opacity="0.35" d="M953.127 171.85C955.144 171.85 956.779 170.215 956.779 168.199C956.779 166.182 955.144 164.547 953.127 164.547C951.11 164.547 949.476 166.182 949.476 168.199C949.476 170.215 951.11 171.85 953.127 171.85Z" fill="white"/>
<path opacity="0.35" d="M1009.19 171.85C1011.21 171.85 1012.85 170.215 1012.85 168.199C1012.85 166.182 1011.21 164.547 1009.19 164.547C1007.18 164.547 1005.54 166.182 1005.54 168.199C1005.54 170.215 1007.18 171.85 1009.19 171.85Z" fill="white"/>
<path opacity="0.35" d="M0.00032115 227.917C2.01709 227.917 3.65201 226.282 3.65201 224.265C3.65201 222.248 2.01709 220.613 0.00032115 220.613C-2.01645 220.613 -3.65137 222.248 -3.65137 224.265C-3.65137 226.282 -2.01645 227.917 0.00032115 227.917Z" fill="white"/>
<path opacity="0.35" d="M56.0667 227.917C58.0835 227.917 59.7184 226.282 59.7184 224.265C59.7184 222.248 58.0835 220.613 56.0667 220.613C54.05 220.613 52.415 222.248 52.415 224.265C52.415 226.282 54.05 227.917 56.0667 227.917Z" fill="white"/>
<path opacity="0.35" d="M112.133 227.917C114.15 227.917 115.785 226.282 115.785 224.265C115.785 222.248 114.15 220.613 112.133 220.613C110.116 220.613 108.481 222.248 108.481 224.265C108.481 226.282 110.116 227.917 112.133 227.917Z" fill="white"/>
<path opacity="0.35" d="M168.2 227.917C170.216 227.917 171.851 226.282 171.851 224.265C171.851 222.248 170.216 220.613 168.2 220.613C166.183 220.613 164.548 222.248 164.548 224.265C164.548 226.282 166.183 227.917 168.2 227.917Z" fill="white"/>
<path opacity="0.35" d="M224.266 227.917C226.283 227.917 227.918 226.282 227.918 224.265C227.918 222.248 226.283 220.613 224.266 220.613C222.249 220.613 220.614 222.248 220.614 224.265C220.614 226.282 222.249 227.917 224.266 227.917Z" fill="white"/>
<path opacity="0.35" d="M280.332 227.917C282.349 227.917 283.984 226.282 283.984 224.265C283.984 222.248 282.349 220.613 280.332 220.613C278.316 220.613 276.681 222.248 276.681 224.265C276.681 226.282 278.316 227.917 280.332 227.917Z" fill="white"/>
<path opacity="0.35" d="M336.399 227.917C338.416 227.917 340.05 226.282 340.05 224.265C340.05 222.248 338.416 220.613 336.399 220.613C334.382 220.613 332.747 222.248 332.747 224.265C332.747 226.282 334.382 227.917 336.399 227.917Z" fill="white"/>
<path d="M392.465 227.917C394.482 227.917 396.117 226.282 396.117 224.265C396.117 222.248 394.482 220.613 392.465 220.613C390.448 220.613 388.813 222.248 388.813 224.265C388.813 226.282 390.448 227.917 392.465 227.917Z" fill="white"/>
<path opacity="0.35" d="M448.532 227.917C450.548 227.917 452.183 226.282 452.183 224.265C452.183 222.248 450.548 220.613 448.532 220.613C446.515 220.613 444.88 222.248 444.88 224.265C444.88 226.282 446.515 227.917 448.532 227.917Z" fill="white"/>
<path d="M504.597 227.917C506.614 227.917 508.249 226.282 508.249 224.265C508.249 222.248 506.614 220.613 504.597 220.613C502.58 220.613 500.945 222.248 500.945 224.265C500.945 226.282 502.58 227.917 504.597 227.917Z" fill="white"/>
<path opacity="0.35" d="M560.663 227.917C562.68 227.917 564.315 226.282 564.315 224.265C564.315 222.248 562.68 220.613 560.663 220.613C558.647 220.613 557.012 222.248 557.012 224.265C557.012 226.282 558.647 227.917 560.663 227.917Z" fill="white"/>
<path d="M616.73 227.917C618.747 227.917 620.382 226.282 620.382 224.265C620.382 222.248 618.747 220.613 616.73 220.613C614.713 220.613 613.078 222.248 613.078 224.265C613.078 226.282 614.713 227.917 616.73 227.917Z" fill="white"/>
<path opacity="0.35" d="M672.796 227.917C674.813 227.917 676.448 226.282 676.448 224.265C676.448 222.248 674.813 220.613 672.796 220.613C670.779 220.613 669.145 222.248 669.145 224.265C669.145 226.282 670.779 227.917 672.796 227.917Z" fill="white"/>
<path d="M728.863 227.917C730.879 227.917 732.514 226.282 732.514 224.265C732.514 222.248 730.879 220.613 728.863 220.613C726.846 220.613 725.211 222.248 725.211 224.265C725.211 226.282 726.846 227.917 728.863 227.917Z" fill="white"/>
<path opacity="0.35" d="M784.929 227.917C786.946 227.917 788.581 226.282 788.581 224.265C788.581 222.248 786.946 220.613 784.929 220.613C782.912 220.613 781.277 222.248 781.277 224.265C781.277 226.282 782.912 227.917 784.929 227.917Z" fill="white"/>
<path opacity="0.35" d="M840.995 227.917C843.012 227.917 844.647 226.282 844.647 224.265C844.647 222.248 843.012 220.613 840.995 220.613C838.979 220.613 837.344 222.248 837.344 224.265C837.344 226.282 838.979 227.917 840.995 227.917Z" fill="white"/>
<path opacity="0.35" d="M897.062 227.917C899.079 227.917 900.714 226.282 900.714 224.265C900.714 222.248 899.079 220.613 897.062 220.613C895.045 220.613 893.41 222.248 893.41 224.265C893.41 226.282 895.045 227.917 897.062 227.917Z" fill="white"/>
<path opacity="0.35" d="M953.127 227.917C955.144 227.917 956.779 226.282 956.779 224.265C956.779 222.248 955.144 220.613 953.127 220.613C951.11 220.613 949.476 222.248 949.476 224.265C949.476 226.282 951.11 227.917 953.127 227.917Z" fill="white"/>
<path opacity="0.35" d="M1009.19 227.917C1011.21 227.917 1012.85 226.282 1012.85 224.265C1012.85 222.248 1011.21 220.613 1009.19 220.613C1007.18 220.613 1005.54 222.248 1005.54 224.265C1005.54 226.282 1007.18 227.917 1009.19 227.917Z" fill="white"/>
<path opacity="0.35" d="M0.00032115 283.983C2.01709 283.983 3.65201 282.348 3.65201 280.331C3.65201 278.315 2.01709 276.68 0.00032115 276.68C-2.01645 276.68 -3.65137 278.315 -3.65137 280.331C-3.65137 282.348 -2.01645 283.983 0.00032115 283.983Z" fill="white"/>
<path opacity="0.35" d="M56.0667 283.983C58.0835 283.983 59.7184 282.348 59.7184 280.331C59.7184 278.315 58.0835 276.68 56.0667 276.68C54.05 276.68 52.415 278.315 52.415 280.331C52.415 282.348 54.05 283.983 56.0667 283.983Z" fill="white"/>
<path d="M112.133 283.983C114.15 283.983 115.785 282.348 115.785 280.331C115.785 278.315 114.15 276.68 112.133 276.68C110.116 276.68 108.481 278.315 108.481 280.331C108.481 282.348 110.116 283.983 112.133 283.983Z" fill="white"/>
<path opacity="0.35" d="M168.2 283.983C170.216 283.983 171.851 282.348 171.851 280.331C171.851 278.315 170.216 276.68 168.2 276.68C166.183 276.68 164.548 278.315 164.548 280.331C164.548 282.348 166.183 283.983 168.2 283.983Z" fill="white"/>
<path opacity="0.35" d="M224.266 283.983C226.283 283.983 227.918 282.348 227.918 280.331C227.918 278.315 226.283 276.68 224.266 276.68C222.249 276.68 220.614 278.315 220.614 280.331C220.614 282.348 222.249 283.983 224.266 283.983Z" fill="white"/>
<path opacity="0.35" d="M280.332 283.983C282.349 283.983 283.984 282.348 283.984 280.331C283.984 278.315 282.349 276.68 280.332 276.68C278.316 276.68 276.681 278.315 276.681 280.331C276.681 282.348 278.316 283.983 280.332 283.983Z" fill="white"/>
<path d="M336.399 283.983C338.416 283.983 340.05 282.348 340.05 280.331C340.05 278.315 338.416 276.68 336.399 276.68C334.382 276.68 332.747 278.315 332.747 280.331C332.747 282.348 334.382 283.983 336.399 283.983Z" fill="white"/>
<path d="M392.465 283.983C394.482 283.983 396.117 282.348 396.117 280.331C396.117 278.315 394.482 276.68 392.465 276.68C390.448 276.68 388.813 278.315 388.813 280.331C388.813 282.348 390.448 283.983 392.465 283.983Z" fill="white"/>
<path opacity="0.35" d="M448.532 283.983C450.548 283.983 452.183 282.348 452.183 280.331C452.183 278.315 450.548 276.68 448.532 276.68C446.515 276.68 444.88 278.315 444.88 280.331C444.88 282.348 446.515 283.983 448.532 283.983Z" fill="white"/>
<path d="M504.597 283.983C506.614 283.983 508.249 282.348 508.249 280.331C508.249 278.315 506.614 276.68 504.597 276.68C502.58 276.68 500.945 278.315 500.945 280.331C500.945 282.348 502.58 283.983 504.597 283.983Z" fill="white"/>
<path opacity="0.35" d="M560.663 283.983C562.68 283.983 564.315 282.348 564.315 280.331C564.315 278.315 562.68 276.68 560.663 276.68C558.647 276.68 557.012 278.315 557.012 280.331C557.012 282.348 558.647 283.983 560.663 283.983Z" fill="white"/>
<path opacity="0.35" d="M616.73 283.983C618.747 283.983 620.382 282.348 620.382 280.331C620.382 278.315 618.747 276.68 616.73 276.68C614.713 276.68 613.078 278.315 613.078 280.331C613.078 282.348 614.713 283.983 616.73 283.983Z" fill="white"/>
<path opacity="0.35" d="M672.796 283.983C674.813 283.983 676.448 282.348 676.448 280.331C676.448 278.315 674.813 276.68 672.796 276.68C670.779 276.68 669.145 278.315 669.145 280.331C669.145 282.348 670.779 283.983 672.796 283.983Z" fill="white"/>
<path opacity="0.35" d="M728.863 283.983C730.879 283.983 732.514 282.348 732.514 280.331C732.514 278.315 730.879 276.68 728.863 276.68C726.846 276.68 725.211 278.315 725.211 280.331C725.211 282.348 726.846 283.983 728.863 283.983Z" fill="white"/>
<path opacity="0.35" d="M784.929 283.983C786.946 283.983 788.581 282.348 788.581 280.331C788.581 278.315 786.946 276.68 784.929 276.68C782.912 276.68 781.277 278.315 781.277 280.331C781.277 282.348 782.912 283.983 784.929 283.983Z" fill="white"/>
<path opacity="0.35" d="M840.995 283.983C843.012 283.983 844.647 282.348 844.647 280.331C844.647 278.315 843.012 276.68 840.995 276.68C838.979 276.68 837.344 278.315 837.344 280.331C837.344 282.348 838.979 283.983 840.995 283.983Z" fill="white"/>
<path opacity="0.35" d="M897.062 283.983C899.079 283.983 900.714 282.348 900.714 280.331C900.714 278.315 899.079 276.68 897.062 276.68C895.045 276.68 893.41 278.315 893.41 280.331C893.41 282.348 895.045 283.983 897.062 283.983Z" fill="white"/>
<path d="M953.127 283.983C955.144 283.983 956.779 282.348 956.779 280.331C956.779 278.315 955.144 276.68 953.127 276.68C951.11 276.68 949.476 278.315 949.476 280.331C949.476 282.348 951.11 283.983 953.127 283.983Z" fill="white"/>
<path opacity="0.35" d="M1009.19 283.983C1011.21 283.983 1012.85 282.348 1012.85 280.331C1012.85 278.315 1011.21 276.68 1009.19 276.68C1007.18 276.68 1005.54 278.315 1005.54 280.331C1005.54 282.348 1007.18 283.983 1009.19 283.983Z" fill="white"/>
<path opacity="0.35" d="M0.00032115 340.049C2.01709 340.049 3.65201 338.414 3.65201 336.398C3.65201 334.381 2.01709 332.746 0.00032115 332.746C-2.01645 332.746 -3.65137 334.381 -3.65137 336.398C-3.65137 338.414 -2.01645 340.049 0.00032115 340.049Z" fill="white"/>
<path d="M56.0667 340.049C58.0835 340.049 59.7184 338.415 59.7184 336.398C59.7184 334.381 58.0835 332.746 56.0667 332.746C54.05 332.746 52.415 334.381 52.415 336.398C52.415 338.415 54.05 340.049 56.0667 340.049Z" fill="white"/>
<path opacity="0.35" d="M112.133 340.049C114.15 340.049 115.785 338.415 115.785 336.398C115.785 334.381 114.15 332.746 112.133 332.746C110.116 332.746 108.481 334.381 108.481 336.398C108.481 338.415 110.116 340.049 112.133 340.049Z" fill="white"/>
<path opacity="0.35" d="M168.2 340.049C170.216 340.049 171.851 338.414 171.851 336.398C171.851 334.381 170.216 332.746 168.2 332.746C166.183 332.746 164.548 334.381 164.548 336.398C164.548 338.414 166.183 340.049 168.2 340.049Z" fill="white"/>
<path opacity="0.35" d="M224.266 340.049C226.283 340.049 227.918 338.414 227.918 336.398C227.918 334.381 226.283 332.746 224.266 332.746C222.249 332.746 220.614 334.381 220.614 336.398C220.614 338.414 222.249 340.049 224.266 340.049Z" fill="white"/>
<path d="M280.332 340.049C282.349 340.049 283.984 338.414 283.984 336.398C283.984 334.381 282.349 332.746 280.332 332.746C278.316 332.746 276.681 334.381 276.681 336.398C276.681 338.414 278.316 340.049 280.332 340.049Z" fill="white"/>
<path d="M336.399 340.049C338.416 340.049 340.05 338.414 340.05 336.398C340.05 334.381 338.416 332.746 336.399 332.746C334.382 332.746 332.747 334.381 332.747 336.398C332.747 338.414 334.382 340.049 336.399 340.049Z" fill="white"/>
<path opacity="0.35" d="M392.465 340.049C394.482 340.049 396.117 338.415 396.117 336.398C396.117 334.381 394.482 332.746 392.465 332.746C390.448 332.746 388.813 334.381 388.813 336.398C388.813 338.415 390.448 340.049 392.465 340.049Z" fill="white"/>
<path opacity="0.35" d="M448.532 340.049C450.548 340.049 452.183 338.415 452.183 336.398C452.183 334.381 450.548 332.746 448.532 332.746C446.515 332.746 444.88 334.381 444.88 336.398C444.88 338.415 446.515 340.049 448.532 340.049Z" fill="white"/>
<path opacity="0.35" d="M504.597 340.049C506.614 340.049 508.249 338.415 508.249 336.398C508.249 334.381 506.614 332.746 504.597 332.746C502.58 332.746 500.945 334.381 500.945 336.398C500.945 338.415 502.58 340.049 504.597 340.049Z" fill="white"/>
<path opacity="0.35" d="M560.663 340.049C562.68 340.049 564.315 338.415 564.315 336.398C564.315 334.381 562.68 332.746 560.663 332.746C558.647 332.746 557.012 334.381 557.012 336.398C557.012 338.415 558.647 340.049 560.663 340.049Z" fill="white"/>
<path opacity="0.35" d="M616.73 340.049C618.747 340.049 620.382 338.415 620.382 336.398C620.382 334.381 618.747 332.746 616.73 332.746C614.713 332.746 613.078 334.381 613.078 336.398C613.078 338.415 614.713 340.049 616.73 340.049Z" fill="white"/>
<path opacity="0.35" d="M672.796 340.049C674.813 340.049 676.448 338.415 676.448 336.398C676.448 334.381 674.813 332.746 672.796 332.746C670.779 332.746 669.145 334.381 669.145 336.398C669.145 338.415 670.779 340.049 672.796 340.049Z" fill="white"/>
<path opacity="0.35" d="M728.863 340.049C730.879 340.049 732.514 338.414 732.514 336.398C732.514 334.381 730.879 332.746 728.863 332.746C726.846 332.746 725.211 334.381 725.211 336.398C725.211 338.414 726.846 340.049 728.863 340.049Z" fill="white"/>
<path opacity="0.35" d="M784.929 340.049C786.946 340.049 788.581 338.414 788.581 336.398C788.581 334.381 786.946 332.746 784.929 332.746C782.912 332.746 781.277 334.381 781.277 336.398C781.277 338.414 782.912 340.049 784.929 340.049Z" fill="white"/>
<path d="M840.995 340.049C843.012 340.049 844.647 338.414 844.647 336.398C844.647 334.381 843.012 332.746 840.995 332.746C838.979 332.746 837.344 334.381 837.344 336.398C837.344 338.414 838.979 340.049 840.995 340.049Z" fill="white"/>
<path opacity="0.35" d="M897.062 340.049C899.079 340.049 900.714 338.414 900.714 336.398C900.714 334.381 899.079 332.746 897.062 332.746C895.045 332.746 893.41 334.381 893.41 336.398C893.41 338.414 895.045 340.049 897.062 340.049Z" fill="white"/>
<path d="M953.127 340.049C955.144 340.049 956.779 338.415 956.779 336.398C956.779 334.381 955.144 332.746 953.127 332.746C951.11 332.746 949.476 334.381 949.476 336.398C949.476 338.415 951.11 340.049 953.127 340.049Z" fill="white"/>
<path opacity="0.35" d="M1009.19 340.049C1011.21 340.049 1012.85 338.415 1012.85 336.398C1012.85 334.381 1011.21 332.746 1009.19 332.746C1007.18 332.746 1005.54 334.381 1005.54 336.398C1005.54 338.415 1007.18 340.049 1009.19 340.049Z" fill="white"/>
<path opacity="0.35" d="M0.00032115 396.116C2.01709 396.116 3.65201 394.481 3.65201 392.464C3.65201 390.447 2.01709 388.812 0.00032115 388.812C-2.01645 388.812 -3.65137 390.447 -3.65137 392.464C-3.65137 394.481 -2.01645 396.116 0.00032115 396.116Z" fill="white"/>
<path opacity="0.35" d="M56.0667 396.116C58.0835 396.116 59.7184 394.481 59.7184 392.464C59.7184 390.447 58.0835 388.812 56.0667 388.812C54.05 388.812 52.415 390.447 52.415 392.464C52.415 394.481 54.05 396.116 56.0667 396.116Z" fill="white"/>
<path opacity="0.35" d="M112.133 396.116C114.15 396.116 115.785 394.481 115.785 392.464C115.785 390.447 114.15 388.812 112.133 388.812C110.116 388.812 108.481 390.447 108.481 392.464C108.481 394.481 110.116 396.116 112.133 396.116Z" fill="white"/>
<path d="M168.2 396.116C170.216 396.116 171.851 394.481 171.851 392.464C171.851 390.447 170.216 388.812 168.2 388.812C166.183 388.812 164.548 390.447 164.548 392.464C164.548 394.481 166.183 396.116 168.2 396.116Z" fill="white"/>
<path d="M224.266 396.116C226.283 396.116 227.918 394.481 227.918 392.464C227.918 390.447 226.283 388.812 224.266 388.812C222.249 388.812 220.614 390.447 220.614 392.464C220.614 394.481 222.249 396.116 224.266 396.116Z" fill="white"/>
<path opacity="0.35" d="M280.332 396.116C282.349 396.116 283.984 394.481 283.984 392.464C283.984 390.447 282.349 388.812 280.332 388.812C278.316 388.812 276.681 390.447 276.681 392.464C276.681 394.481 278.316 396.116 280.332 396.116Z" fill="white"/>
<path opacity="0.35" d="M336.399 396.116C338.416 396.116 340.05 394.481 340.05 392.464C340.05 390.447 338.416 388.812 336.399 388.812C334.382 388.812 332.747 390.447 332.747 392.464C332.747 394.481 334.382 396.116 336.399 396.116Z" fill="white"/>
<path d="M392.465 396.116C394.482 396.116 396.117 394.481 396.117 392.464C396.117 390.447 394.482 388.812 392.465 388.812C390.448 388.812 388.813 390.447 388.813 392.464C388.813 394.481 390.448 396.116 392.465 396.116Z" fill="white"/>
<path d="M448.532 396.116C450.548 396.116 452.183 394.481 452.183 392.464C452.183 390.447 450.548 388.812 448.532 388.812C446.515 388.812 444.88 390.447 444.88 392.464C444.88 394.481 446.515 396.116 448.532 396.116Z" fill="white"/>
<path opacity="0.35" d="M504.597 396.116C506.614 396.116 508.249 394.481 508.249 392.464C508.249 390.447 506.614 388.812 504.597 388.812C502.58 388.812 500.945 390.447 500.945 392.464C500.945 394.481 502.58 396.116 504.597 396.116Z" fill="white"/>
<path opacity="0.35" d="M560.663 396.116C562.68 396.116 564.315 394.481 564.315 392.464C564.315 390.447 562.68 388.812 560.663 388.812C558.647 388.812 557.012 390.447 557.012 392.464C557.012 394.481 558.647 396.116 560.663 396.116Z" fill="white"/>
<path d="M616.73 396.116C618.747 396.116 620.382 394.481 620.382 392.464C620.382 390.447 618.747 388.812 616.73 388.812C614.713 388.812 613.078 390.447 613.078 392.464C613.078 394.481 614.713 396.116 616.73 396.116Z" fill="white"/>
<path d="M672.796 396.116C674.813 396.116 676.448 394.481 676.448 392.464C676.448 390.447 674.813 388.812 672.796 388.812C670.779 388.812 669.145 390.447 669.145 392.464C669.145 394.481 670.779 396.116 672.796 396.116Z" fill="white"/>
<path opacity="0.35" d="M728.863 396.116C730.879 396.116 732.514 394.481 732.514 392.464C732.514 390.447 730.879 388.812 728.863 388.812C726.846 388.812 725.211 390.447 725.211 392.464C725.211 394.481 726.846 396.116 728.863 396.116Z" fill="white"/>
<path opacity="0.35" d="M784.929 396.116C786.946 396.116 788.581 394.481 788.581 392.464C788.581 390.447 786.946 388.812 784.929 388.812C782.912 388.812 781.277 390.447 781.277 392.464C781.277 394.481 782.912 396.116 784.929 396.116Z" fill="white"/>
<path opacity="0.35" d="M840.995 396.116C843.012 396.116 844.647 394.481 844.647 392.464C844.647 390.447 843.012 388.812 840.995 388.812C838.979 388.812 837.344 390.447 837.344 392.464C837.344 394.481 838.979 396.116 840.995 396.116Z" fill="white"/>
<path opacity="0.35" d="M897.062 396.116C899.079 396.116 900.714 394.481 900.714 392.464C900.714 390.447 899.079 388.812 897.062 388.812C895.045 388.812 893.41 390.447 893.41 392.464C893.41 394.481 895.045 396.116 897.062 396.116Z" fill="white"/>
<path opacity="0.35" d="M953.127 396.116C955.144 396.116 956.779 394.481 956.779 392.464C956.779 390.447 955.144 388.812 953.127 388.812C951.11 388.812 949.476 390.447 949.476 392.464C949.476 394.481 951.11 396.116 953.127 396.116Z" fill="white"/>
<path opacity="0.35" d="M1009.19 396.116C1011.21 396.116 1012.85 394.481 1012.85 392.464C1012.85 390.447 1011.21 388.812 1009.19 388.812C1007.18 388.812 1005.54 390.447 1005.54 392.464C1005.54 394.481 1007.18 396.116 1009.19 396.116Z" fill="white"/>
<path opacity="0.35" d="M0.00032115 452.182C2.01709 452.182 3.65201 450.547 3.65201 448.53C3.65201 446.514 2.01709 444.879 0.00032115 444.879C-2.01645 444.879 -3.65137 446.514 -3.65137 448.53C-3.65137 450.547 -2.01645 452.182 0.00032115 452.182Z" fill="white"/>
<path opacity="0.35" d="M56.0667 452.182C58.0835 452.182 59.7184 450.547 59.7184 448.53C59.7184 446.514 58.0835 444.879 56.0667 444.879C54.05 444.879 52.415 446.514 52.415 448.53C52.415 450.547 54.05 452.182 56.0667 452.182Z" fill="white"/>
<path opacity="0.35" d="M112.133 452.182C114.15 452.182 115.785 450.547 115.785 448.53C115.785 446.514 114.15 444.879 112.133 444.879C110.116 444.879 108.481 446.514 108.481 448.53C108.481 450.547 110.116 452.182 112.133 452.182Z" fill="white"/>
<path opacity="0.35" d="M168.2 452.182C170.216 452.182 171.851 450.547 171.851 448.53C171.851 446.514 170.216 444.879 168.2 444.879C166.183 444.879 164.548 446.514 164.548 448.53C164.548 450.547 166.183 452.182 168.2 452.182Z" fill="white"/>
<path d="M224.266 452.182C226.283 452.182 227.918 450.547 227.918 448.53C227.918 446.514 226.283 444.879 224.266 444.879C222.249 444.879 220.614 446.514 220.614 448.53C220.614 450.547 222.249 452.182 224.266 452.182Z" fill="white"/>
<path opacity="0.35" d="M280.332 452.182C282.349 452.182 283.984 450.547 283.984 448.53C283.984 446.514 282.349 444.879 280.332 444.879C278.316 444.879 276.681 446.514 276.681 448.53C276.681 450.547 278.316 452.182 280.332 452.182Z" fill="white"/>
<path opacity="0.35" d="M336.399 452.182C338.416 452.182 340.05 450.547 340.05 448.53C340.05 446.514 338.416 444.879 336.399 444.879C334.382 444.879 332.747 446.514 332.747 448.53C332.747 450.547 334.382 452.182 336.399 452.182Z" fill="white"/>
<path opacity="0.35" d="M392.465 452.182C394.482 452.182 396.117 450.547 396.117 448.53C396.117 446.514 394.482 444.879 392.465 444.879C390.448 444.879 388.813 446.514 388.813 448.53C388.813 450.547 390.448 452.182 392.465 452.182Z" fill="white"/>
<path opacity="0.35" d="M448.532 452.182C450.548 452.182 452.183 450.547 452.183 448.53C452.183 446.514 450.548 444.879 448.532 444.879C446.515 444.879 444.88 446.514 444.88 448.53C444.88 450.547 446.515 452.182 448.532 452.182Z" fill="white"/>
<path opacity="0.35" d="M504.597 452.182C506.614 452.182 508.249 450.547 508.249 448.53C508.249 446.514 506.614 444.879 504.597 444.879C502.58 444.879 500.945 446.514 500.945 448.53C500.945 450.547 502.58 452.182 504.597 452.182Z" fill="white"/>
<path opacity="0.35" d="M560.663 452.182C562.68 452.182 564.315 450.547 564.315 448.53C564.315 446.514 562.68 444.879 560.663 444.879C558.647 444.879 557.012 446.514 557.012 448.53C557.012 450.547 558.647 452.182 560.663 452.182Z" fill="white"/>
<path opacity="0.35" d="M616.73 452.182C618.747 452.182 620.382 450.547 620.382 448.53C620.382 446.514 618.747 444.879 616.73 444.879C614.713 444.879 613.078 446.514 613.078 448.53C613.078 450.547 614.713 452.182 616.73 452.182Z" fill="white"/>
<path opacity="0.35" d="M672.796 452.182C674.813 452.182 676.448 450.547 676.448 448.53C676.448 446.514 674.813 444.879 672.796 444.879C670.779 444.879 669.145 446.514 669.145 448.53C669.145 450.547 670.779 452.182 672.796 452.182Z" fill="white"/>
<path opacity="0.35" d="M728.863 452.182C730.879 452.182 732.514 450.547 732.514 448.53C732.514 446.514 730.879 444.879 728.863 444.879C726.846 444.879 725.211 446.514 725.211 448.53C725.211 450.547 726.846 452.182 728.863 452.182Z" fill="white"/>
<path opacity="0.35" d="M784.929 452.182C786.946 452.182 788.581 450.547 788.581 448.53C788.581 446.514 786.946 444.879 784.929 444.879C782.912 444.879 781.277 446.514 781.277 448.53C781.277 450.547 782.912 452.182 784.929 452.182Z" fill="white"/>
<path opacity="0.35" d="M840.995 452.182C843.012 452.182 844.647 450.547 844.647 448.53C844.647 446.514 843.012 444.879 840.995 444.879C838.979 444.879 837.344 446.514 837.344 448.53C837.344 450.547 838.979 452.182 840.995 452.182Z" fill="white"/>
<path opacity="0.35" d="M897.062 452.182C899.079 452.182 900.714 450.547 900.714 448.53C900.714 446.514 899.079 444.879 897.062 444.879C895.045 444.879 893.41 446.514 893.41 448.53C893.41 450.547 895.045 452.182 897.062 452.182Z" fill="white"/>
<path d="M953.127 452.182C955.144 452.182 956.779 450.547 956.779 448.53C956.779 446.514 955.144 444.879 953.127 444.879C951.11 444.879 949.476 446.514 949.476 448.53C949.476 450.547 951.11 452.182 953.127 452.182Z" fill="white"/>
<path opacity="0.35" d="M1009.19 452.182C1011.21 452.182 1012.85 450.547 1012.85 448.53C1012.85 446.514 1011.21 444.879 1009.19 444.879C1007.18 444.879 1005.54 446.514 1005.54 448.53C1005.54 450.547 1007.18 452.182 1009.19 452.182Z" fill="white"/>
<path opacity="0.35" d="M0.00032115 508.248C2.01709 508.248 3.65201 506.613 3.65201 504.597C3.65201 502.58 2.01709 500.945 0.00032115 500.945C-2.01645 500.945 -3.65137 502.58 -3.65137 504.597C-3.65137 506.613 -2.01645 508.248 0.00032115 508.248Z" fill="white"/>
<path opacity="0.35" d="M56.0667 508.248C58.0835 508.248 59.7184 506.613 59.7184 504.597C59.7184 502.58 58.0835 500.945 56.0667 500.945C54.05 500.945 52.415 502.58 52.415 504.597C52.415 506.613 54.05 508.248 56.0667 508.248Z" fill="white"/>
<path opacity="0.35" d="M112.133 508.248C114.15 508.248 115.785 506.613 115.785 504.597C115.785 502.58 114.15 500.945 112.133 500.945C110.116 500.945 108.481 502.58 108.481 504.597C108.481 506.613 110.116 508.248 112.133 508.248Z" fill="white"/>
<path opacity="0.35" d="M168.2 508.248C170.216 508.248 171.851 506.613 171.851 504.597C171.851 502.58 170.216 500.945 168.2 500.945C166.183 500.945 164.548 502.58 164.548 504.597C164.548 506.613 166.183 508.248 168.2 508.248Z" fill="white"/>
<path opacity="0.35" d="M224.266 508.248C226.283 508.248 227.918 506.613 227.918 504.597C227.918 502.58 226.283 500.945 224.266 500.945C222.249 500.945 220.614 502.58 220.614 504.597C220.614 506.613 222.249 508.248 224.266 508.248Z" fill="white"/>
<path opacity="0.35" d="M280.332 508.248C282.349 508.248 283.984 506.613 283.984 504.597C283.984 502.58 282.349 500.945 280.332 500.945C278.316 500.945 276.681 502.58 276.681 504.597C276.681 506.613 278.316 508.248 280.332 508.248Z" fill="white"/>
<path d="M336.399 508.248C338.416 508.248 340.05 506.613 340.05 504.597C340.05 502.58 338.416 500.945 336.399 500.945C334.382 500.945 332.747 502.58 332.747 504.597C332.747 506.613 334.382 508.248 336.399 508.248Z" fill="white"/>
<path opacity="0.35" d="M392.465 508.248C394.482 508.248 396.117 506.613 396.117 504.597C396.117 502.58 394.482 500.945 392.465 500.945C390.448 500.945 388.813 502.58 388.813 504.597C388.813 506.613 390.448 508.248 392.465 508.248Z" fill="white"/>
<path opacity="0.35" d="M448.532 508.248C450.548 508.248 452.183 506.613 452.183 504.597C452.183 502.58 450.548 500.945 448.532 500.945C446.515 500.945 444.88 502.58 444.88 504.597C444.88 506.613 446.515 508.248 448.532 508.248Z" fill="white"/>
<path opacity="0.35" d="M504.597 508.248C506.614 508.248 508.249 506.613 508.249 504.597C508.249 502.58 506.614 500.945 504.597 500.945C502.58 500.945 500.945 502.58 500.945 504.597C500.945 506.613 502.58 508.248 504.597 508.248Z" fill="white"/>
<path opacity="0.35" d="M560.663 508.248C562.68 508.248 564.315 506.613 564.315 504.597C564.315 502.58 562.68 500.945 560.663 500.945C558.647 500.945 557.012 502.58 557.012 504.597C557.012 506.613 558.647 508.248 560.663 508.248Z" fill="white"/>
<path d="M616.73 508.248C618.747 508.248 620.382 506.613 620.382 504.597C620.382 502.58 618.747 500.945 616.73 500.945C614.713 500.945 613.078 502.58 613.078 504.597C613.078 506.613 614.713 508.248 616.73 508.248Z" fill="white"/>
<path d="M672.796 508.248C674.813 508.248 676.448 506.613 676.448 504.597C676.448 502.58 674.813 500.945 672.796 500.945C670.779 500.945 669.145 502.58 669.145 504.597C669.145 506.613 670.779 508.248 672.796 508.248Z" fill="white"/>
<path opacity="0.35" d="M728.863 508.248C730.879 508.248 732.514 506.613 732.514 504.597C732.514 502.58 730.879 500.945 728.863 500.945C726.846 500.945 725.211 502.58 725.211 504.597C725.211 506.613 726.846 508.248 728.863 508.248Z" fill="white"/>
<path opacity="0.35" d="M784.929 508.248C786.946 508.248 788.581 506.613 788.581 504.597C788.581 502.58 786.946 500.945 784.929 500.945C782.912 500.945 781.277 502.58 781.277 504.597C781.277 506.613 782.912 508.248 784.929 508.248Z" fill="white"/>
<path opacity="0.35" d="M840.995 508.248C843.012 508.248 844.647 506.613 844.647 504.597C844.647 502.58 843.012 500.945 840.995 500.945C838.979 500.945 837.344 502.58 837.344 504.597C837.344 506.613 838.979 508.248 840.995 508.248Z" fill="white"/>
<path d="M897.062 508.248C899.079 508.248 900.714 506.613 900.714 504.597C900.714 502.58 899.079 500.945 897.062 500.945C895.045 500.945 893.41 502.58 893.41 504.597C893.41 506.613 895.045 508.248 897.062 508.248Z" fill="white"/>
<path opacity="0.35" d="M953.127 508.248C955.144 508.248 956.779 506.613 956.779 504.597C956.779 502.58 955.144 500.945 953.127 500.945C951.11 500.945 949.476 502.58 949.476 504.597C949.476 506.613 951.11 508.248 953.127 508.248Z" fill="white"/>
<path opacity="0.35" d="M1009.19 508.248C1011.21 508.248 1012.85 506.613 1012.85 504.597C1012.85 502.58 1011.21 500.945 1009.19 500.945C1007.18 500.945 1005.54 502.58 1005.54 504.597C1005.54 506.613 1007.18 508.248 1009.19 508.248Z" fill="white"/>
<path opacity="0.35" d="M0.00032115 564.315C2.01709 564.315 3.65201 562.68 3.65201 560.663C3.65201 558.646 2.01709 557.011 0.00032115 557.011C-2.01645 557.011 -3.65137 558.646 -3.65137 560.663C-3.65137 562.68 -2.01645 564.315 0.00032115 564.315Z" fill="white"/>
<path opacity="0.35" d="M56.0667 564.315C58.0835 564.315 59.7184 562.68 59.7184 560.663C59.7184 558.646 58.0835 557.011 56.0667 557.011C54.05 557.011 52.415 558.646 52.415 560.663C52.415 562.68 54.05 564.315 56.0667 564.315Z" fill="white"/>
<path d="M112.133 564.315C114.15 564.315 115.785 562.68 115.785 560.663C115.785 558.646 114.15 557.011 112.133 557.011C110.116 557.011 108.481 558.646 108.481 560.663C108.481 562.68 110.116 564.315 112.133 564.315Z" fill="white"/>
<path d="M168.2 564.315C170.216 564.315 171.851 562.68 171.851 560.663C171.851 558.646 170.216 557.011 168.2 557.011C166.183 557.011 164.548 558.646 164.548 560.663C164.548 562.68 166.183 564.315 168.2 564.315Z" fill="white"/>
<path opacity="0.35" d="M224.266 564.315C226.283 564.315 227.918 562.68 227.918 560.663C227.918 558.646 226.283 557.011 224.266 557.011C222.249 557.011 220.614 558.646 220.614 560.663C220.614 562.68 222.249 564.315 224.266 564.315Z" fill="white"/>
<path opacity="0.35" d="M280.332 564.315C282.349 564.315 283.984 562.68 283.984 560.663C283.984 558.646 282.349 557.011 280.332 557.011C278.316 557.011 276.681 558.646 276.681 560.663C276.681 562.68 278.316 564.315 280.332 564.315Z" fill="white"/>
<path opacity="0.35" d="M336.399 564.315C338.416 564.315 340.05 562.68 340.05 560.663C340.05 558.646 338.416 557.011 336.399 557.011C334.382 557.011 332.747 558.646 332.747 560.663C332.747 562.68 334.382 564.315 336.399 564.315Z" fill="white"/>
<path opacity="0.35" d="M392.465 564.315C394.482 564.315 396.117 562.68 396.117 560.663C396.117 558.646 394.482 557.011 392.465 557.011C390.448 557.011 388.813 558.646 388.813 560.663C388.813 562.68 390.448 564.315 392.465 564.315Z" fill="white"/>
<path opacity="0.35" d="M448.532 564.315C450.548 564.315 452.183 562.68 452.183 560.663C452.183 558.646 450.548 557.011 448.532 557.011C446.515 557.011 444.88 558.646 444.88 560.663C444.88 562.68 446.515 564.315 448.532 564.315Z" fill="white"/>
<path d="M504.597 564.315C506.614 564.315 508.249 562.68 508.249 560.663C508.249 558.646 506.614 557.011 504.597 557.011C502.58 557.011 500.945 558.646 500.945 560.663C500.945 562.68 502.58 564.315 504.597 564.315Z" fill="white"/>
<path opacity="0.35" d="M560.663 564.315C562.68 564.315 564.315 562.68 564.315 560.663C564.315 558.646 562.68 557.011 560.663 557.011C558.647 557.011 557.012 558.646 557.012 560.663C557.012 562.68 558.647 564.315 560.663 564.315Z" fill="white"/>
<path opacity="0.35" d="M616.73 564.315C618.747 564.315 620.382 562.68 620.382 560.663C620.382 558.646 618.747 557.011 616.73 557.011C614.713 557.011 613.078 558.646 613.078 560.663C613.078 562.68 614.713 564.315 616.73 564.315Z" fill="white"/>
<path opacity="0.35" d="M672.796 564.315C674.813 564.315 676.448 562.68 676.448 560.663C676.448 558.646 674.813 557.011 672.796 557.011C670.779 557.011 669.145 558.646 669.145 560.663C669.145 562.68 670.779 564.315 672.796 564.315Z" fill="white"/>
<path opacity="0.35" d="M728.863 564.315C730.879 564.315 732.514 562.68 732.514 560.663C732.514 558.646 730.879 557.011 728.863 557.011C726.846 557.011 725.211 558.646 725.211 560.663C725.211 562.68 726.846 564.315 728.863 564.315Z" fill="white"/>
<path d="M784.929 564.315C786.946 564.315 788.581 562.68 788.581 560.663C788.581 558.646 786.946 557.011 784.929 557.011C782.912 557.011 781.277 558.646 781.277 560.663C781.277 562.68 782.912 564.315 784.929 564.315Z" fill="white"/>
<path opacity="0.35" d="M840.995 564.315C843.012 564.315 844.647 562.68 844.647 560.663C844.647 558.646 843.012 557.011 840.995 557.011C838.979 557.011 837.344 558.646 837.344 560.663C837.344 562.68 838.979 564.315 840.995 564.315Z" fill="white"/>
<path opacity="0.35" d="M897.062 564.315C899.079 564.315 900.714 562.68 900.714 560.663C900.714 558.646 899.079 557.011 897.062 557.011C895.045 557.011 893.41 558.646 893.41 560.663C893.41 562.68 895.045 564.315 897.062 564.315Z" fill="white"/>
<path opacity="0.35" d="M953.127 564.315C955.144 564.315 956.779 562.68 956.779 560.663C956.779 558.646 955.144 557.011 953.127 557.011C951.11 557.011 949.476 558.646 949.476 560.663C949.476 562.68 951.11 564.315 953.127 564.315Z" fill="white"/>
<path opacity="0.35" d="M1009.19 564.315C1011.21 564.315 1012.85 562.68 1012.85 560.663C1012.85 558.646 1011.21 557.011 1009.19 557.011C1007.18 557.011 1005.54 558.646 1005.54 560.663C1005.54 562.68 1007.18 564.315 1009.19 564.315Z" fill="white"/>
<path opacity="0.35" d="M0.00032115 620.381C2.01709 620.381 3.65201 618.746 3.65201 616.729C3.65201 614.713 2.01709 613.078 0.00032115 613.078C-2.01645 613.078 -3.65137 614.713 -3.65137 616.729C-3.65137 618.746 -2.01645 620.381 0.00032115 620.381Z" fill="white"/>
<path d="M56.0667 620.381C58.0835 620.381 59.7184 618.746 59.7184 616.729C59.7184 614.713 58.0835 613.078 56.0667 613.078C54.05 613.078 52.415 614.713 52.415 616.729C52.415 618.746 54.05 620.381 56.0667 620.381Z" fill="white"/>
<path opacity="0.35" d="M112.133 620.381C114.15 620.381 115.785 618.746 115.785 616.729C115.785 614.713 114.15 613.078 112.133 613.078C110.116 613.078 108.481 614.713 108.481 616.729C108.481 618.746 110.116 620.381 112.133 620.381Z" fill="white"/>
<path opacity="0.35" d="M168.2 620.381C170.216 620.381 171.851 618.746 171.851 616.729C171.851 614.713 170.216 613.078 168.2 613.078C166.183 613.078 164.548 614.713 164.548 616.729C164.548 618.746 166.183 620.381 168.2 620.381Z" fill="white"/>
<path opacity="0.35" d="M224.266 620.381C226.283 620.381 227.918 618.746 227.918 616.729C227.918 614.713 226.283 613.078 224.266 613.078C222.249 613.078 220.614 614.713 220.614 616.729C220.614 618.746 222.249 620.381 224.266 620.381Z" fill="white"/>
<path d="M280.332 620.381C282.349 620.381 283.984 618.746 283.984 616.729C283.984 614.713 282.349 613.078 280.332 613.078C278.316 613.078 276.681 614.713 276.681 616.729C276.681 618.746 278.316 620.381 280.332 620.381Z" fill="white"/>
<path opacity="0.35" d="M336.399 620.381C338.416 620.381 340.05 618.746 340.05 616.729C340.05 614.713 338.416 613.078 336.399 613.078C334.382 613.078 332.747 614.713 332.747 616.729C332.747 618.746 334.382 620.381 336.399 620.381Z" fill="white"/>
<path d="M392.465 620.381C394.482 620.381 396.117 618.746 396.117 616.729C396.117 614.713 394.482 613.078 392.465 613.078C390.448 613.078 388.813 614.713 388.813 616.729C388.813 618.746 390.448 620.381 392.465 620.381Z" fill="white"/>
<path d="M448.532 620.381C450.548 620.381 452.183 618.746 452.183 616.729C452.183 614.713 450.548 613.078 448.532 613.078C446.515 613.078 444.88 614.713 444.88 616.729C444.88 618.746 446.515 620.381 448.532 620.381Z" fill="white"/>
<path opacity="0.35" d="M504.597 620.381C506.614 620.381 508.249 618.746 508.249 616.729C508.249 614.713 506.614 613.078 504.597 613.078C502.58 613.078 500.945 614.713 500.945 616.729C500.945 618.746 502.58 620.381 504.597 620.381Z" fill="white"/>
<path opacity="0.35" d="M560.663 620.381C562.68 620.381 564.315 618.746 564.315 616.729C564.315 614.713 562.68 613.078 560.663 613.078C558.647 613.078 557.012 614.713 557.012 616.729C557.012 618.746 558.647 620.381 560.663 620.381Z" fill="white"/>
<path opacity="0.35" d="M616.73 620.381C618.747 620.381 620.382 618.746 620.382 616.729C620.382 614.713 618.747 613.078 616.73 613.078C614.713 613.078 613.078 614.713 613.078 616.729C613.078 618.746 614.713 620.381 616.73 620.381Z" fill="white"/>
<path opacity="0.35" d="M672.796 620.381C674.813 620.381 676.448 618.746 676.448 616.729C676.448 614.713 674.813 613.078 672.796 613.078C670.779 613.078 669.145 614.713 669.145 616.729C669.145 618.746 670.779 620.381 672.796 620.381Z" fill="white"/>
<path d="M728.863 620.381C730.879 620.381 732.514 618.746 732.514 616.729C732.514 614.713 730.879 613.078 728.863 613.078C726.846 613.078 725.211 614.713 725.211 616.729C725.211 618.746 726.846 620.381 728.863 620.381Z" fill="white"/>
<path d="M784.929 620.381C786.946 620.381 788.581 618.746 788.581 616.729C788.581 614.713 786.946 613.078 784.929 613.078C782.912 613.078 781.277 614.713 781.277 616.729C781.277 618.746 782.912 620.381 784.929 620.381Z" fill="white"/>
<path d="M840.995 620.381C843.012 620.381 844.647 618.746 844.647 616.729C844.647 614.713 843.012 613.078 840.995 613.078C838.979 613.078 837.344 614.713 837.344 616.729C837.344 618.746 838.979 620.381 840.995 620.381Z" fill="white"/>
<path opacity="0.35" d="M897.062 620.381C899.079 620.381 900.714 618.746 900.714 616.729C900.714 614.713 899.079 613.078 897.062 613.078C895.045 613.078 893.41 614.713 893.41 616.729C893.41 618.746 895.045 620.381 897.062 620.381Z" fill="white"/>
<path opacity="0.35" d="M953.127 620.381C955.144 620.381 956.779 618.746 956.779 616.729C956.779 614.713 955.144 613.078 953.127 613.078C951.11 613.078 949.476 614.713 949.476 616.729C949.476 618.746 951.11 620.381 953.127 620.381Z" fill="white"/>
<path opacity="0.35" d="M1009.19 620.381C1011.21 620.381 1012.85 618.746 1012.85 616.729C1012.85 614.713 1011.21 613.078 1009.19 613.078C1007.18 613.078 1005.54 614.713 1005.54 616.729C1005.54 618.746 1007.18 620.381 1009.19 620.381Z" fill="white"/>
<path opacity="0.35" d="M0.00032115 676.447C2.01709 676.447 3.65201 674.812 3.65201 672.796C3.65201 670.779 2.01709 669.144 0.00032115 669.144C-2.01645 669.144 -3.65137 670.779 -3.65137 672.796C-3.65137 674.812 -2.01645 676.447 0.00032115 676.447Z" fill="white"/>
<path d="M56.0667 676.447C58.0835 676.447 59.7184 674.812 59.7184 672.796C59.7184 670.779 58.0835 669.144 56.0667 669.144C54.05 669.144 52.415 670.779 52.415 672.796C52.415 674.812 54.05 676.447 56.0667 676.447Z" fill="white"/>
<path opacity="0.35" d="M112.133 676.447C114.15 676.447 115.785 674.812 115.785 672.796C115.785 670.779 114.15 669.144 112.133 669.144C110.116 669.144 108.481 670.779 108.481 672.796C108.481 674.812 110.116 676.447 112.133 676.447Z" fill="white"/>
<path opacity="0.35" d="M168.2 676.447C170.216 676.447 171.851 674.812 171.851 672.796C171.851 670.779 170.216 669.144 168.2 669.144C166.183 669.144 164.548 670.779 164.548 672.796C164.548 674.812 166.183 676.447 168.2 676.447Z" fill="white"/>
<path d="M224.266 676.447C226.283 676.447 227.918 674.812 227.918 672.796C227.918 670.779 226.283 669.144 224.266 669.144C222.249 669.144 220.614 670.779 220.614 672.796C220.614 674.812 222.249 676.447 224.266 676.447Z" fill="white"/>
<path opacity="0.35" d="M280.332 676.447C282.349 676.447 283.984 674.812 283.984 672.796C283.984 670.779 282.349 669.144 280.332 669.144C278.316 669.144 276.681 670.779 276.681 672.796C276.681 674.812 278.316 676.447 280.332 676.447Z" fill="white"/>
<path opacity="0.35" d="M336.399 676.447C338.416 676.447 340.05 674.812 340.05 672.796C340.05 670.779 338.416 669.144 336.399 669.144C334.382 669.144 332.747 670.779 332.747 672.796C332.747 674.812 334.382 676.447 336.399 676.447Z" fill="white"/>
<path opacity="0.35" d="M392.465 676.447C394.482 676.447 396.117 674.812 396.117 672.796C396.117 670.779 394.482 669.144 392.465 669.144C390.448 669.144 388.813 670.779 388.813 672.796C388.813 674.812 390.448 676.447 392.465 676.447Z" fill="white"/>
<path opacity="0.35" d="M448.532 676.447C450.548 676.447 452.183 674.812 452.183 672.796C452.183 670.779 450.548 669.144 448.532 669.144C446.515 669.144 444.88 670.779 444.88 672.796C444.88 674.812 446.515 676.447 448.532 676.447Z" fill="white"/>
<path opacity="0.35" d="M504.597 676.447C506.614 676.447 508.249 674.812 508.249 672.796C508.249 670.779 506.614 669.144 504.597 669.144C502.58 669.144 500.945 670.779 500.945 672.796C500.945 674.812 502.58 676.447 504.597 676.447Z" fill="white"/>
<path opacity="0.35" d="M560.663 676.447C562.68 676.447 564.315 674.812 564.315 672.796C564.315 670.779 562.68 669.144 560.663 669.144C558.647 669.144 557.012 670.779 557.012 672.796C557.012 674.812 558.647 676.447 560.663 676.447Z" fill="white"/>
<path opacity="0.35" d="M616.73 676.447C618.747 676.447 620.382 674.812 620.382 672.796C620.382 670.779 618.747 669.144 616.73 669.144C614.713 669.144 613.078 670.779 613.078 672.796C613.078 674.812 614.713 676.447 616.73 676.447Z" fill="white"/>
<path opacity="0.35" d="M672.796 676.447C674.813 676.447 676.448 674.812 676.448 672.796C676.448 670.779 674.813 669.144 672.796 669.144C670.779 669.144 669.145 670.779 669.145 672.796C669.145 674.812 670.779 676.447 672.796 676.447Z" fill="white"/>
<path opacity="0.35" d="M728.863 676.447C730.879 676.447 732.514 674.812 732.514 672.796C732.514 670.779 730.879 669.144 728.863 669.144C726.846 669.144 725.211 670.779 725.211 672.796C725.211 674.812 726.846 676.447 728.863 676.447Z" fill="white"/>
<path opacity="0.35" d="M784.929 676.447C786.946 676.447 788.581 674.812 788.581 672.796C788.581 670.779 786.946 669.144 784.929 669.144C782.912 669.144 781.277 670.779 781.277 672.796C781.277 674.812 782.912 676.447 784.929 676.447Z" fill="white"/>
<path opacity="0.35" d="M840.995 676.447C843.012 676.447 844.647 674.812 844.647 672.796C844.647 670.779 843.012 669.144 840.995 669.144C838.979 669.144 837.344 670.779 837.344 672.796C837.344 674.812 838.979 676.447 840.995 676.447Z" fill="white"/>
<path opacity="0.35" d="M897.062 676.447C899.079 676.447 900.714 674.812 900.714 672.796C900.714 670.779 899.079 669.144 897.062 669.144C895.045 669.144 893.41 670.779 893.41 672.796C893.41 674.812 895.045 676.447 897.062 676.447Z" fill="white"/>
<path opacity="0.35" d="M953.127 676.447C955.144 676.447 956.779 674.812 956.779 672.796C956.779 670.779 955.144 669.144 953.127 669.144C951.11 669.144 949.476 670.779 949.476 672.796C949.476 674.812 951.11 676.447 953.127 676.447Z" fill="white"/>
<path opacity="0.35" d="M1009.19 676.447C1011.21 676.447 1012.85 674.812 1012.85 672.796C1012.85 670.779 1011.21 669.144 1009.19 669.144C1007.18 669.144 1005.54 670.779 1005.54 672.796C1005.54 674.812 1007.18 676.447 1009.19 676.447Z" fill="white"/>
<path opacity="0.35" d="M0.00032115 732.514C2.01709 732.514 3.65201 730.879 3.65201 728.862C3.65201 726.845 2.01709 725.21 0.00032115 725.21C-2.01645 725.21 -3.65137 726.845 -3.65137 728.862C-3.65137 730.879 -2.01645 732.514 0.00032115 732.514Z" fill="white"/>
<path d="M56.0667 732.514C58.0835 732.514 59.7184 730.879 59.7184 728.862C59.7184 726.845 58.0835 725.21 56.0667 725.21C54.05 725.21 52.415 726.845 52.415 728.862C52.415 730.879 54.05 732.514 56.0667 732.514Z" fill="white"/>
<path opacity="0.35" d="M112.133 732.514C114.15 732.514 115.785 730.879 115.785 728.862C115.785 726.845 114.15 725.21 112.133 725.21C110.116 725.21 108.481 726.845 108.481 728.862C108.481 730.879 110.116 732.514 112.133 732.514Z" fill="white"/>
<path opacity="0.35" d="M168.2 732.514C170.216 732.514 171.851 730.879 171.851 728.862C171.851 726.845 170.216 725.21 168.2 725.21C166.183 725.21 164.548 726.845 164.548 728.862C164.548 730.879 166.183 732.514 168.2 732.514Z" fill="white"/>
<path opacity="0.35" d="M224.266 732.514C226.283 732.514 227.918 730.879 227.918 728.862C227.918 726.845 226.283 725.21 224.266 725.21C222.249 725.21 220.614 726.845 220.614 728.862C220.614 730.879 222.249 732.514 224.266 732.514Z" fill="white"/>
<path opacity="0.35" d="M280.332 732.514C282.349 732.514 283.984 730.879 283.984 728.862C283.984 726.845 282.349 725.21 280.332 725.21C278.316 725.21 276.681 726.845 276.681 728.862C276.681 730.879 278.316 732.514 280.332 732.514Z" fill="white"/>
<path d="M336.399 732.514C338.416 732.514 340.05 730.879 340.05 728.862C340.05 726.845 338.416 725.21 336.399 725.21C334.382 725.21 332.747 726.845 332.747 728.862C332.747 730.879 334.382 732.514 336.399 732.514Z" fill="white"/>
<path opacity="0.35" d="M392.465 732.514C394.482 732.514 396.117 730.879 396.117 728.862C396.117 726.845 394.482 725.21 392.465 725.21C390.448 725.21 388.813 726.845 388.813 728.862C388.813 730.879 390.448 732.514 392.465 732.514Z" fill="white"/>
<path opacity="0.35" d="M448.532 732.514C450.548 732.514 452.183 730.879 452.183 728.862C452.183 726.845 450.548 725.21 448.532 725.21C446.515 725.21 444.88 726.845 444.88 728.862C444.88 730.879 446.515 732.514 448.532 732.514Z" fill="white"/>
<path opacity="0.35" d="M504.597 732.514C506.614 732.514 508.249 730.879 508.249 728.862C508.249 726.845 506.614 725.21 504.597 725.21C502.58 725.21 500.945 726.845 500.945 728.862C500.945 730.879 502.58 732.514 504.597 732.514Z" fill="white"/>
<path opacity="0.35" d="M560.663 732.514C562.68 732.514 564.315 730.879 564.315 728.862C564.315 726.845 562.68 725.21 560.663 725.21C558.647 725.21 557.012 726.845 557.012 728.862C557.012 730.879 558.647 732.514 560.663 732.514Z" fill="white"/>
<path opacity="0.35" d="M616.73 732.514C618.747 732.514 620.382 730.879 620.382 728.862C620.382 726.845 618.747 725.21 616.73 725.21C614.713 725.21 613.078 726.845 613.078 728.862C613.078 730.879 614.713 732.514 616.73 732.514Z" fill="white"/>
<path opacity="0.35" d="M672.796 732.514C674.813 732.514 676.448 730.879 676.448 728.862C676.448 726.845 674.813 725.21 672.796 725.21C670.779 725.21 669.145 726.845 669.145 728.862C669.145 730.879 670.779 732.514 672.796 732.514Z" fill="white"/>
<path d="M728.863 732.514C730.879 732.514 732.514 730.879 732.514 728.862C732.514 726.845 730.879 725.21 728.863 725.21C726.846 725.21 725.211 726.845 725.211 728.862C725.211 730.879 726.846 732.514 728.863 732.514Z" fill="white"/>
<path opacity="0.35" d="M784.929 732.514C786.946 732.514 788.581 730.879 788.581 728.862C788.581 726.845 786.946 725.21 784.929 725.21C782.912 725.21 781.277 726.845 781.277 728.862C781.277 730.879 782.912 732.514 784.929 732.514Z" fill="white"/>
<path opacity="0.35" d="M840.995 732.514C843.012 732.514 844.647 730.879 844.647 728.862C844.647 726.845 843.012 725.21 840.995 725.21C838.979 725.21 837.344 726.845 837.344 728.862C837.344 730.879 838.979 732.514 840.995 732.514Z" fill="white"/>
<path opacity="0.35" d="M897.062 732.514C899.079 732.514 900.714 730.879 900.714 728.862C900.714 726.845 899.079 725.21 897.062 725.21C895.045 725.21 893.41 726.845 893.41 728.862C893.41 730.879 895.045 732.514 897.062 732.514Z" fill="white"/>
<path opacity="0.35" d="M953.127 732.514C955.144 732.514 956.779 730.879 956.779 728.862C956.779 726.845 955.144 725.21 953.127 725.21C951.11 725.21 949.476 726.845 949.476 728.862C949.476 730.879 951.11 732.514 953.127 732.514Z" fill="white"/>
<path opacity="0.35" d="M1009.19 732.514C1011.21 732.514 1012.85 730.879 1012.85 728.862C1012.85 726.845 1011.21 725.21 1009.19 725.21C1007.18 725.21 1005.54 726.845 1005.54 728.862C1005.54 730.879 1007.18 732.514 1009.19 732.514Z" fill="white"/>
<path opacity="0.35" d="M0.00032115 788.58C2.01709 788.58 3.65201 786.945 3.65201 784.928C3.65201 782.911 2.01709 781.277 0.00032115 781.277C-2.01645 781.277 -3.65137 782.911 -3.65137 784.928C-3.65137 786.945 -2.01645 788.58 0.00032115 788.58Z" fill="white"/>
<path opacity="0.35" d="M56.0667 788.58C58.0835 788.58 59.7184 786.945 59.7184 784.928C59.7184 782.911 58.0835 781.277 56.0667 781.277C54.05 781.277 52.415 782.911 52.415 784.928C52.415 786.945 54.05 788.58 56.0667 788.58Z" fill="white"/>
<path opacity="0.35" d="M112.133 788.58C114.15 788.58 115.785 786.945 115.785 784.928C115.785 782.911 114.15 781.277 112.133 781.277C110.116 781.277 108.481 782.911 108.481 784.928C108.481 786.945 110.116 788.58 112.133 788.58Z" fill="white"/>
<path opacity="0.35" d="M168.2 788.58C170.216 788.58 171.851 786.945 171.851 784.928C171.851 782.911 170.216 781.277 168.2 781.277C166.183 781.277 164.548 782.911 164.548 784.928C164.548 786.945 166.183 788.58 168.2 788.58Z" fill="white"/>
<path opacity="0.35" d="M224.266 788.58C226.283 788.58 227.918 786.945 227.918 784.928C227.918 782.911 226.283 781.277 224.266 781.277C222.249 781.277 220.614 782.911 220.614 784.928C220.614 786.945 222.249 788.58 224.266 788.58Z" fill="white"/>
<path opacity="0.35" d="M280.332 788.58C282.349 788.58 283.984 786.945 283.984 784.928C283.984 782.911 282.349 781.277 280.332 781.277C278.316 781.277 276.681 782.911 276.681 784.928C276.681 786.945 278.316 788.58 280.332 788.58Z" fill="white"/>
<path opacity="0.35" d="M336.399 788.58C338.416 788.58 340.05 786.945 340.05 784.928C340.05 782.911 338.416 781.277 336.399 781.277C334.382 781.277 332.747 782.911 332.747 784.928C332.747 786.945 334.382 788.58 336.399 788.58Z" fill="white"/>
<path opacity="0.35" d="M392.465 788.58C394.482 788.58 396.117 786.945 396.117 784.928C396.117 782.911 394.482 781.277 392.465 781.277C390.448 781.277 388.813 782.911 388.813 784.928C388.813 786.945 390.448 788.58 392.465 788.58Z" fill="white"/>
<path opacity="0.35" d="M448.532 788.58C450.548 788.58 452.183 786.945 452.183 784.928C452.183 782.911 450.548 781.277 448.532 781.277C446.515 781.277 444.88 782.911 444.88 784.928C444.88 786.945 446.515 788.58 448.532 788.58Z" fill="white"/>
<path d="M504.597 788.58C506.614 788.58 508.249 786.945 508.249 784.928C508.249 782.911 506.614 781.277 504.597 781.277C502.58 781.277 500.945 782.911 500.945 784.928C500.945 786.945 502.58 788.58 504.597 788.58Z" fill="white"/>
<path opacity="0.35" d="M560.663 788.58C562.68 788.58 564.315 786.945 564.315 784.928C564.315 782.911 562.68 781.277 560.663 781.277C558.647 781.277 557.012 782.911 557.012 784.928C557.012 786.945 558.647 788.58 560.663 788.58Z" fill="white"/>
<path opacity="0.35" d="M616.73 788.58C618.747 788.58 620.382 786.945 620.382 784.928C620.382 782.911 618.747 781.277 616.73 781.277C614.713 781.277 613.078 782.911 613.078 784.928C613.078 786.945 614.713 788.58 616.73 788.58Z" fill="white"/>
<path opacity="0.35" d="M672.796 788.58C674.813 788.58 676.448 786.945 676.448 784.928C676.448 782.911 674.813 781.277 672.796 781.277C670.779 781.277 669.145 782.911 669.145 784.928C669.145 786.945 670.779 788.58 672.796 788.58Z" fill="white"/>
<path opacity="0.35" d="M728.863 788.58C730.879 788.58 732.514 786.945 732.514 784.928C732.514 782.911 730.879 781.277 728.863 781.277C726.846 781.277 725.211 782.911 725.211 784.928C725.211 786.945 726.846 788.58 728.863 788.58Z" fill="white"/>
<path opacity="0.35" d="M784.929 788.58C786.946 788.58 788.581 786.945 788.581 784.928C788.581 782.911 786.946 781.277 784.929 781.277C782.912 781.277 781.277 782.911 781.277 784.928C781.277 786.945 782.912 788.58 784.929 788.58Z" fill="white"/>
<path opacity="0.35" d="M840.995 788.58C843.012 788.58 844.647 786.945 844.647 784.928C844.647 782.911 843.012 781.277 840.995 781.277C838.979 781.277 837.344 782.911 837.344 784.928C837.344 786.945 838.979 788.58 840.995 788.58Z" fill="white"/>
<path opacity="0.35" d="M897.062 788.58C899.079 788.58 900.714 786.945 900.714 784.928C900.714 782.911 899.079 781.277 897.062 781.277C895.045 781.277 893.41 782.911 893.41 784.928C893.41 786.945 895.045 788.58 897.062 788.58Z" fill="white"/>
<path opacity="0.35" d="M953.127 788.58C955.144 788.58 956.779 786.945 956.779 784.928C956.779 782.911 955.144 781.277 953.127 781.277C951.11 781.277 949.476 782.911 949.476 784.928C949.476 786.945 951.11 788.58 953.127 788.58Z" fill="white"/>
<path opacity="0.35" d="M1009.19 788.58C1011.21 788.58 1012.85 786.945 1012.85 784.928C1012.85 782.911 1011.21 781.277 1009.19 781.277C1007.18 781.277 1005.54 782.911 1005.54 784.928C1005.54 786.945 1007.18 788.58 1009.19 788.58Z" fill="white"/>
<path opacity="0.35" d="M0.00032115 844.646C2.01709 844.646 3.65201 843.012 3.65201 840.995C3.65201 838.978 2.01709 837.343 0.00032115 837.343C-2.01645 837.343 -3.65137 838.978 -3.65137 840.995C-3.65137 843.012 -2.01645 844.646 0.00032115 844.646Z" fill="white"/>
<path opacity="0.35" d="M56.0667 844.646C58.0835 844.646 59.7184 843.012 59.7184 840.995C59.7184 838.978 58.0835 837.343 56.0667 837.343C54.05 837.343 52.415 838.978 52.415 840.995C52.415 843.012 54.05 844.646 56.0667 844.646Z" fill="white"/>
<path opacity="0.35" d="M112.133 844.646C114.15 844.646 115.785 843.012 115.785 840.995C115.785 838.978 114.15 837.343 112.133 837.343C110.116 837.343 108.481 838.978 108.481 840.995C108.481 843.012 110.116 844.646 112.133 844.646Z" fill="white"/>
<path opacity="0.35" d="M168.2 844.646C170.216 844.646 171.851 843.012 171.851 840.995C171.851 838.978 170.216 837.343 168.2 837.343C166.183 837.343 164.548 838.978 164.548 840.995C164.548 843.012 166.183 844.646 168.2 844.646Z" fill="white"/>
<path d="M224.266 844.646C226.283 844.646 227.918 843.012 227.918 840.995C227.918 838.978 226.283 837.343 224.266 837.343C222.249 837.343 220.614 838.978 220.614 840.995C220.614 843.012 222.249 844.646 224.266 844.646Z" fill="white"/>
<path opacity="0.35" d="M280.332 844.646C282.349 844.646 283.984 843.012 283.984 840.995C283.984 838.978 282.349 837.343 280.332 837.343C278.316 837.343 276.681 838.978 276.681 840.995C276.681 843.012 278.316 844.646 280.332 844.646Z" fill="white"/>
<path opacity="0.35" d="M336.399 844.646C338.416 844.646 340.05 843.012 340.05 840.995C340.05 838.978 338.416 837.343 336.399 837.343C334.382 837.343 332.747 838.978 332.747 840.995C332.747 843.012 334.382 844.646 336.399 844.646Z" fill="white"/>
<path opacity="0.35" d="M392.465 844.646C394.482 844.646 396.117 843.012 396.117 840.995C396.117 838.978 394.482 837.343 392.465 837.343C390.448 837.343 388.813 838.978 388.813 840.995C388.813 843.012 390.448 844.646 392.465 844.646Z" fill="white"/>
<path opacity="0.35" d="M448.532 844.646C450.548 844.646 452.183 843.012 452.183 840.995C452.183 838.978 450.548 837.343 448.532 837.343C446.515 837.343 444.88 838.978 444.88 840.995C444.88 843.012 446.515 844.646 448.532 844.646Z" fill="white"/>
<path d="M504.597 844.646C506.614 844.646 508.249 843.012 508.249 840.995C508.249 838.978 506.614 837.343 504.597 837.343C502.58 837.343 500.945 838.978 500.945 840.995C500.945 843.012 502.58 844.646 504.597 844.646Z" fill="white"/>
<path opacity="0.35" d="M560.663 844.646C562.68 844.646 564.315 843.012 564.315 840.995C564.315 838.978 562.68 837.343 560.663 837.343C558.647 837.343 557.012 838.978 557.012 840.995C557.012 843.012 558.647 844.646 560.663 844.646Z" fill="white"/>
<path opacity="0.35" d="M616.73 844.646C618.747 844.646 620.382 843.012 620.382 840.995C620.382 838.978 618.747 837.343 616.73 837.343C614.713 837.343 613.078 838.978 613.078 840.995C613.078 843.012 614.713 844.646 616.73 844.646Z" fill="white"/>
<path d="M672.796 844.646C674.813 844.646 676.448 843.012 676.448 840.995C676.448 838.978 674.813 837.343 672.796 837.343C670.779 837.343 669.145 838.978 669.145 840.995C669.145 843.012 670.779 844.646 672.796 844.646Z" fill="white"/>
<path opacity="0.35" d="M728.863 844.646C730.879 844.646 732.514 843.012 732.514 840.995C732.514 838.978 730.879 837.343 728.863 837.343C726.846 837.343 725.211 838.978 725.211 840.995C725.211 843.012 726.846 844.646 728.863 844.646Z" fill="white"/>
<path opacity="0.35" d="M784.929 844.646C786.946 844.646 788.581 843.012 788.581 840.995C788.581 838.978 786.946 837.343 784.929 837.343C782.912 837.343 781.277 838.978 781.277 840.995C781.277 843.012 782.912 844.646 784.929 844.646Z" fill="white"/>
<path d="M840.995 844.646C843.012 844.646 844.647 843.012 844.647 840.995C844.647 838.978 843.012 837.343 840.995 837.343C838.979 837.343 837.344 838.978 837.344 840.995C837.344 843.012 838.979 844.646 840.995 844.646Z" fill="white"/>
<path d="M897.062 844.646C899.079 844.646 900.714 843.012 900.714 840.995C900.714 838.978 899.079 837.343 897.062 837.343C895.045 837.343 893.41 838.978 893.41 840.995C893.41 843.012 895.045 844.646 897.062 844.646Z" fill="white"/>
<path d="M953.127 844.646C955.144 844.646 956.779 843.012 956.779 840.995C956.779 838.978 955.144 837.343 953.127 837.343C951.11 837.343 949.476 838.978 949.476 840.995C949.476 843.012 951.11 844.646 953.127 844.646Z" fill="white"/>
<path opacity="0.35" d="M1009.19 844.646C1011.21 844.646 1012.85 843.012 1012.85 840.995C1012.85 838.978 1011.21 837.343 1009.19 837.343C1007.18 837.343 1005.54 838.978 1005.54 840.995C1005.54 843.012 1007.18 844.646 1009.19 844.646Z" fill="white"/>
<path opacity="0.35" d="M0.00032115 900.713C2.01709 900.713 3.65201 899.078 3.65201 897.061C3.65201 895.044 2.01709 893.409 0.00032115 893.409C-2.01645 893.409 -3.65137 895.044 -3.65137 897.061C-3.65137 899.078 -2.01645 900.713 0.00032115 900.713Z" fill="white"/>
<path opacity="0.35" d="M56.0667 900.713C58.0835 900.713 59.7184 899.078 59.7184 897.061C59.7184 895.044 58.0835 893.409 56.0667 893.409C54.05 893.409 52.415 895.044 52.415 897.061C52.415 899.078 54.05 900.713 56.0667 900.713Z" fill="white"/>
<path opacity="0.35" d="M112.133 900.713C114.15 900.713 115.785 899.078 115.785 897.061C115.785 895.044 114.15 893.409 112.133 893.409C110.116 893.409 108.481 895.044 108.481 897.061C108.481 899.078 110.116 900.713 112.133 900.713Z" fill="white"/>
<path opacity="0.35" d="M168.2 900.713C170.216 900.713 171.851 899.078 171.851 897.061C171.851 895.044 170.216 893.409 168.2 893.409C166.183 893.409 164.548 895.044 164.548 897.061C164.548 899.078 166.183 900.713 168.2 900.713Z" fill="white"/>
<path opacity="0.35" d="M224.266 900.713C226.283 900.713 227.918 899.078 227.918 897.061C227.918 895.044 226.283 893.409 224.266 893.409C222.249 893.409 220.614 895.044 220.614 897.061C220.614 899.078 222.249 900.713 224.266 900.713Z" fill="white"/>
<path opacity="0.35" d="M280.332 900.713C282.349 900.713 283.984 899.078 283.984 897.061C283.984 895.044 282.349 893.409 280.332 893.409C278.316 893.409 276.681 895.044 276.681 897.061C276.681 899.078 278.316 900.713 280.332 900.713Z" fill="white"/>
<path opacity="0.35" d="M336.399 900.713C338.416 900.713 340.05 899.078 340.05 897.061C340.05 895.044 338.416 893.409 336.399 893.409C334.382 893.409 332.747 895.044 332.747 897.061C332.747 899.078 334.382 900.713 336.399 900.713Z" fill="white"/>
<path d="M392.465 900.713C394.482 900.713 396.117 899.078 396.117 897.061C396.117 895.044 394.482 893.409 392.465 893.409C390.448 893.409 388.813 895.044 388.813 897.061C388.813 899.078 390.448 900.713 392.465 900.713Z" fill="white"/>
<path opacity="0.35" d="M448.532 900.713C450.548 900.713 452.183 899.078 452.183 897.061C452.183 895.044 450.548 893.409 448.532 893.409C446.515 893.409 444.88 895.044 444.88 897.061C444.88 899.078 446.515 900.713 448.532 900.713Z" fill="white"/>
<path d="M504.597 900.713C506.614 900.713 508.249 899.078 508.249 897.061C508.249 895.044 506.614 893.409 504.597 893.409C502.58 893.409 500.945 895.044 500.945 897.061C500.945 899.078 502.58 900.713 504.597 900.713Z" fill="white"/>
<path d="M560.663 900.713C562.68 900.713 564.315 899.078 564.315 897.061C564.315 895.044 562.68 893.409 560.663 893.409C558.647 893.409 557.012 895.044 557.012 897.061C557.012 899.078 558.647 900.713 560.663 900.713Z" fill="white"/>
<path opacity="0.35" d="M616.73 900.713C618.747 900.713 620.382 899.078 620.382 897.061C620.382 895.044 618.747 893.409 616.73 893.409C614.713 893.409 613.078 895.044 613.078 897.061C613.078 899.078 614.713 900.713 616.73 900.713Z" fill="white"/>
<path opacity="0.35" d="M672.796 900.713C674.813 900.713 676.448 899.078 676.448 897.061C676.448 895.044 674.813 893.409 672.796 893.409C670.779 893.409 669.145 895.044 669.145 897.061C669.145 899.078 670.779 900.713 672.796 900.713Z" fill="white"/>
<path opacity="0.35" d="M728.863 900.713C730.879 900.713 732.514 899.078 732.514 897.061C732.514 895.044 730.879 893.409 728.863 893.409C726.846 893.409 725.211 895.044 725.211 897.061C725.211 899.078 726.846 900.713 728.863 900.713Z" fill="white"/>
<path opacity="0.35" d="M784.929 900.713C786.946 900.713 788.581 899.078 788.581 897.061C788.581 895.044 786.946 893.409 784.929 893.409C782.912 893.409 781.277 895.044 781.277 897.061C781.277 899.078 782.912 900.713 784.929 900.713Z" fill="white"/>
<path opacity="0.35" d="M840.995 900.713C843.012 900.713 844.647 899.078 844.647 897.061C844.647 895.044 843.012 893.409 840.995 893.409C838.979 893.409 837.344 895.044 837.344 897.061C837.344 899.078 838.979 900.713 840.995 900.713Z" fill="white"/>
<path opacity="0.35" d="M897.062 900.713C899.079 900.713 900.714 899.078 900.714 897.061C900.714 895.044 899.079 893.409 897.062 893.409C895.045 893.409 893.41 895.044 893.41 897.061C893.41 899.078 895.045 900.713 897.062 900.713Z" fill="white"/>
<path opacity="0.35" d="M953.127 900.713C955.144 900.713 956.779 899.078 956.779 897.061C956.779 895.044 955.144 893.409 953.127 893.409C951.11 893.409 949.476 895.044 949.476 897.061C949.476 899.078 951.11 900.713 953.127 900.713Z" fill="white"/>
<path opacity="0.35" d="M1009.19 900.713C1011.21 900.713 1012.85 899.078 1012.85 897.061C1012.85 895.044 1011.21 893.409 1009.19 893.409C1007.18 893.409 1005.54 895.044 1005.54 897.061C1005.54 899.078 1007.18 900.713 1009.19 900.713Z" fill="white"/>
<path opacity="0.35" d="M0.00032115 956.779C2.01709 956.779 3.65201 955.144 3.65201 953.127C3.65201 951.11 2.01709 949.476 0.00032115 949.476C-2.01645 949.476 -3.65137 951.11 -3.65137 953.127C-3.65137 955.144 -2.01645 956.779 0.00032115 956.779Z" fill="white"/>
<path opacity="0.35" d="M56.0667 956.779C58.0835 956.779 59.7184 955.144 59.7184 953.127C59.7184 951.11 58.0835 949.476 56.0667 949.476C54.05 949.476 52.415 951.11 52.415 953.127C52.415 955.144 54.05 956.779 56.0667 956.779Z" fill="white"/>
<path opacity="0.35" d="M112.133 956.779C114.15 956.779 115.785 955.144 115.785 953.127C115.785 951.11 114.15 949.476 112.133 949.476C110.116 949.476 108.481 951.11 108.481 953.127C108.481 955.144 110.116 956.779 112.133 956.779Z" fill="white"/>
<path d="M168.2 956.779C170.216 956.779 171.851 955.144 171.851 953.127C171.851 951.11 170.216 949.476 168.2 949.476C166.183 949.476 164.548 951.11 164.548 953.127C164.548 955.144 166.183 956.779 168.2 956.779Z" fill="white"/>
<path d="M224.266 956.779C226.283 956.779 227.918 955.144 227.918 953.127C227.918 951.11 226.283 949.476 224.266 949.476C222.249 949.476 220.614 951.11 220.614 953.127C220.614 955.144 222.249 956.779 224.266 956.779Z" fill="white"/>
<path d="M280.332 956.779C282.349 956.779 283.984 955.144 283.984 953.127C283.984 951.11 282.349 949.476 280.332 949.476C278.316 949.476 276.681 951.11 276.681 953.127C276.681 955.144 278.316 956.779 280.332 956.779Z" fill="white"/>
<path opacity="0.35" d="M336.399 956.779C338.416 956.779 340.05 955.144 340.05 953.127C340.05 951.11 338.416 949.476 336.399 949.476C334.382 949.476 332.747 951.11 332.747 953.127C332.747 955.144 334.382 956.779 336.399 956.779Z" fill="white"/>
<path opacity="0.35" d="M392.465 956.779C394.482 956.779 396.117 955.144 396.117 953.127C396.117 951.11 394.482 949.476 392.465 949.476C390.448 949.476 388.813 951.11 388.813 953.127C388.813 955.144 390.448 956.779 392.465 956.779Z" fill="white"/>
<path opacity="0.35" d="M448.532 956.779C450.548 956.779 452.183 955.144 452.183 953.127C452.183 951.11 450.548 949.476 448.532 949.476C446.515 949.476 444.88 951.11 444.88 953.127C444.88 955.144 446.515 956.779 448.532 956.779Z" fill="white"/>
<path opacity="0.35" d="M504.597 956.779C506.614 956.779 508.249 955.144 508.249 953.127C508.249 951.11 506.614 949.476 504.597 949.476C502.58 949.476 500.945 951.11 500.945 953.127C500.945 955.144 502.58 956.779 504.597 956.779Z" fill="white"/>
<path opacity="0.35" d="M560.663 956.779C562.68 956.779 564.315 955.144 564.315 953.127C564.315 951.11 562.68 949.476 560.663 949.476C558.647 949.476 557.012 951.11 557.012 953.127C557.012 955.144 558.647 956.779 560.663 956.779Z" fill="white"/>
<path d="M616.73 956.779C618.747 956.779 620.382 955.144 620.382 953.127C620.382 951.11 618.747 949.476 616.73 949.476C614.713 949.476 613.078 951.11 613.078 953.127C613.078 955.144 614.713 956.779 616.73 956.779Z" fill="white"/>
<path opacity="0.35" d="M672.796 956.779C674.813 956.779 676.448 955.144 676.448 953.127C676.448 951.11 674.813 949.476 672.796 949.476C670.779 949.476 669.145 951.11 669.145 953.127C669.145 955.144 670.779 956.779 672.796 956.779Z" fill="white"/>
<path opacity="0.35" d="M728.863 956.779C730.879 956.779 732.514 955.144 732.514 953.127C732.514 951.11 730.879 949.476 728.863 949.476C726.846 949.476 725.211 951.11 725.211 953.127C725.211 955.144 726.846 956.779 728.863 956.779Z" fill="white"/>
<path opacity="0.35" d="M784.929 956.779C786.946 956.779 788.581 955.144 788.581 953.127C788.581 951.11 786.946 949.476 784.929 949.476C782.912 949.476 781.277 951.11 781.277 953.127C781.277 955.144 782.912 956.779 784.929 956.779Z" fill="white"/>
<path opacity="0.35" d="M840.995 956.779C843.012 956.779 844.647 955.144 844.647 953.127C844.647 951.11 843.012 949.476 840.995 949.476C838.979 949.476 837.344 951.11 837.344 953.127C837.344 955.144 838.979 956.779 840.995 956.779Z" fill="white"/>
<path d="M897.062 956.779C899.079 956.779 900.714 955.144 900.714 953.127C900.714 951.11 899.079 949.476 897.062 949.476C895.045 949.476 893.41 951.11 893.41 953.127C893.41 955.144 895.045 956.779 897.062 956.779Z" fill="white"/>
<path d="M953.127 956.779C955.144 956.779 956.779 955.144 956.779 953.127C956.779 951.11 955.144 949.476 953.127 949.476C951.11 949.476 949.476 951.11 949.476 953.127C949.476 955.144 951.11 956.779 953.127 956.779Z" fill="white"/>
<path opacity="0.35" d="M1009.19 956.779C1011.21 956.779 1012.85 955.144 1012.85 953.127C1012.85 951.11 1011.21 949.476 1009.19 949.476C1007.18 949.476 1005.54 951.11 1005.54 953.127C1005.54 955.144 1007.18 956.779 1009.19 956.779Z" fill="white"/>
<path opacity="0.35" d="M0.00032115 1012.85C2.01709 1012.85 3.65201 1011.21 3.65201 1009.19C3.65201 1007.18 2.01709 1005.54 0.00032115 1005.54C-2.01645 1005.54 -3.65137 1007.18 -3.65137 1009.19C-3.65137 1011.21 -2.01645 1012.85 0.00032115 1012.85Z" fill="white"/>
<path opacity="0.35" d="M56.0667 1012.85C58.0835 1012.85 59.7184 1011.21 59.7184 1009.19C59.7184 1007.18 58.0835 1005.54 56.0667 1005.54C54.05 1005.54 52.415 1007.18 52.415 1009.19C52.415 1011.21 54.05 1012.85 56.0667 1012.85Z" fill="white"/>
<path opacity="0.35" d="M112.133 1012.85C114.15 1012.85 115.785 1011.21 115.785 1009.19C115.785 1007.18 114.15 1005.54 112.133 1005.54C110.116 1005.54 108.481 1007.18 108.481 1009.19C108.481 1011.21 110.116 1012.85 112.133 1012.85Z" fill="white"/>
<path opacity="0.35" d="M168.2 1012.85C170.216 1012.85 171.851 1011.21 171.851 1009.19C171.851 1007.18 170.216 1005.54 168.2 1005.54C166.183 1005.54 164.548 1007.18 164.548 1009.19C164.548 1011.21 166.183 1012.85 168.2 1012.85Z" fill="white"/>
<path opacity="0.35" d="M224.266 1012.85C226.283 1012.85 227.918 1011.21 227.918 1009.19C227.918 1007.18 226.283 1005.54 224.266 1005.54C222.249 1005.54 220.614 1007.18 220.614 1009.19C220.614 1011.21 222.249 1012.85 224.266 1012.85Z" fill="white"/>
<path opacity="0.35" d="M280.332 1012.85C282.349 1012.85 283.984 1011.21 283.984 1009.19C283.984 1007.18 282.349 1005.54 280.332 1005.54C278.316 1005.54 276.681 1007.18 276.681 1009.19C276.681 1011.21 278.316 1012.85 280.332 1012.85Z" fill="white"/>
<path opacity="0.35" d="M336.399 1012.85C338.416 1012.85 340.05 1011.21 340.05 1009.19C340.05 1007.18 338.416 1005.54 336.399 1005.54C334.382 1005.54 332.747 1007.18 332.747 1009.19C332.747 1011.21 334.382 1012.85 336.399 1012.85Z" fill="white"/>
<path opacity="0.35" d="M392.465 1012.85C394.482 1012.85 396.117 1011.21 396.117 1009.19C396.117 1007.18 394.482 1005.54 392.465 1005.54C390.448 1005.54 388.813 1007.18 388.813 1009.19C388.813 1011.21 390.448 1012.85 392.465 1012.85Z" fill="white"/>
<path opacity="0.35" d="M448.532 1012.85C450.548 1012.85 452.183 1011.21 452.183 1009.19C452.183 1007.18 450.548 1005.54 448.532 1005.54C446.515 1005.54 444.88 1007.18 444.88 1009.19C444.88 1011.21 446.515 1012.85 448.532 1012.85Z" fill="white"/>
<path opacity="0.35" d="M504.597 1012.85C506.614 1012.85 508.249 1011.21 508.249 1009.19C508.249 1007.18 506.614 1005.54 504.597 1005.54C502.58 1005.54 500.945 1007.18 500.945 1009.19C500.945 1011.21 502.58 1012.85 504.597 1012.85Z" fill="white"/>
<path opacity="0.35" d="M560.663 1012.85C562.68 1012.85 564.315 1011.21 564.315 1009.19C564.315 1007.18 562.68 1005.54 560.663 1005.54C558.647 1005.54 557.012 1007.18 557.012 1009.19C557.012 1011.21 558.647 1012.85 560.663 1012.85Z" fill="white"/>
<path opacity="0.35" d="M616.73 1012.85C618.747 1012.85 620.382 1011.21 620.382 1009.19C620.382 1007.18 618.747 1005.54 616.73 1005.54C614.713 1005.54 613.078 1007.18 613.078 1009.19C613.078 1011.21 614.713 1012.85 616.73 1012.85Z" fill="white"/>
<path opacity="0.35" d="M672.796 1012.85C674.813 1012.85 676.448 1011.21 676.448 1009.19C676.448 1007.18 674.813 1005.54 672.796 1005.54C670.779 1005.54 669.145 1007.18 669.145 1009.19C669.145 1011.21 670.779 1012.85 672.796 1012.85Z" fill="white"/>
<path opacity="0.35" d="M728.863 1012.85C730.879 1012.85 732.514 1011.21 732.514 1009.19C732.514 1007.18 730.879 1005.54 728.863 1005.54C726.846 1005.54 725.211 1007.18 725.211 1009.19C725.211 1011.21 726.846 1012.85 728.863 1012.85Z" fill="white"/>
<path opacity="0.35" d="M784.929 1012.85C786.946 1012.85 788.581 1011.21 788.581 1009.19C788.581 1007.18 786.946 1005.54 784.929 1005.54C782.912 1005.54 781.277 1007.18 781.277 1009.19C781.277 1011.21 782.912 1012.85 784.929 1012.85Z" fill="white"/>
<path opacity="0.35" d="M840.995 1012.85C843.012 1012.85 844.647 1011.21 844.647 1009.19C844.647 1007.18 843.012 1005.54 840.995 1005.54C838.979 1005.54 837.344 1007.18 837.344 1009.19C837.344 1011.21 838.979 1012.85 840.995 1012.85Z" fill="white"/>
<path opacity="0.35" d="M897.062 1012.85C899.079 1012.85 900.714 1011.21 900.714 1009.19C900.714 1007.18 899.079 1005.54 897.062 1005.54C895.045 1005.54 893.41 1007.18 893.41 1009.19C893.41 1011.21 895.045 1012.85 897.062 1012.85Z" fill="white"/>
<path opacity="0.35" d="M953.127 1012.85C955.144 1012.85 956.779 1011.21 956.779 1009.19C956.779 1007.18 955.144 1005.54 953.127 1005.54C951.11 1005.54 949.476 1007.18 949.476 1009.19C949.476 1011.21 951.11 1012.85 953.127 1012.85Z" fill="white"/>
<path opacity="0.35" d="M1009.19 1012.85C1011.21 1012.85 1012.85 1011.21 1012.85 1009.19C1012.85 1007.18 1011.21 1005.54 1009.19 1005.54C1007.18 1005.54 1005.54 1007.18 1005.54 1009.19C1005.54 1011.21 1007.18 1012.85 1009.19 1012.85Z" fill="white"/>
</g>
<defs>
<clipPath id="clip0_207_1080">
<rect width="1009.19" height="1009.19" fill="white"/>
</clipPath>
</defs>
</svg>
