<svg width="2055" height="1270" viewBox="0 0 2055 1270" fill="none" xmlns="http://www.w3.org/2000/svg">
<rect x="1457.51" y="933.076" width="35.8588" height="35.8588" transform="rotate(-90 1457.51 933.076)" stroke="#007536" stroke-width="1.49412" stroke-dasharray="9.71 9.71"/>
<circle cx="1475.44" cy="915.147" r="17.1823" transform="rotate(-90 1475.44 915.147)" stroke="#18C86A" stroke-width="2.98823"/>
<rect x="1457.51" y="970.429" width="35.8588" height="35.8588" transform="rotate(-90 1457.51 970.429)" stroke="#007536" stroke-width="1.49412" stroke-linecap="square" stroke-dasharray="10.46 10.46"/>
<circle cx="1475.44" cy="952.5" r="17.1823" transform="rotate(-90 1475.44 952.5)" stroke="#18C86A" stroke-width="2.98823"/>
<rect x="1494.87" y="970.429" width="73.2117" height="73.2117" transform="rotate(-90 1494.87 970.429)" stroke="#007536" stroke-width="1.49412" stroke-linecap="square" stroke-dasharray="10.46 10.46"/>
<circle cx="1531.47" cy="933.823" r="35.8588" transform="rotate(-90 1531.47 933.823)" stroke="#18C86A" stroke-width="2.98823"/>
<rect x="1457.51" y="895.724" width="110.565" height="110.565" transform="rotate(-90 1457.51 895.724)" stroke="#007536" stroke-width="1.49412" stroke-linecap="square" stroke-dasharray="10.46 10.46"/>
<circle cx="1512.79" cy="840.441" r="54.5353" transform="rotate(-90 1512.79 840.441)" stroke="#18C86A" stroke-width="2.98823"/>
<rect x="1270.75" y="970.429" width="185.271" height="185.271" transform="rotate(-90 1270.75 970.429)" stroke="#007536" stroke-width="1.49412" stroke-linecap="square" stroke-dasharray="9.71 9.71"/>
<circle cx="1363.38" cy="877.794" r="91.8882" transform="rotate(-90 1363.38 877.794)" stroke="#18C86A" stroke-width="2.98823"/>
<rect x="1270.75" y="1269.25" width="297.329" height="297.329" transform="rotate(-90 1270.75 1269.25)" stroke="#007536" stroke-width="1.49412" stroke-linecap="square" stroke-dasharray="10.46 10.46"/>
<circle cx="1419.41" cy="1120.59" r="147.918" transform="rotate(-90 1419.41 1120.59)" stroke="#18C86A" stroke-width="2.98823"/>
<rect x="1569.57" y="1269.25" width="484.094" height="484.094" transform="rotate(-90 1569.57 1269.25)" stroke="#007536" stroke-width="1.49412" stroke-linecap="square" stroke-dasharray="10.46 10.46"/>
<circle cx="1811.62" cy="1027.21" r="241.3" transform="rotate(-90 1811.62 1027.21)" stroke="#18C86A" stroke-width="2.98823"/>
<rect x="1270.75" y="783.665" width="782.917" height="782.917" transform="rotate(-90 1270.75 783.665)" stroke="#007536" stroke-width="1.49412" stroke-linecap="square" stroke-dasharray="10.46 10.46"/>
<circle cx="1662.2" cy="392.206" r="390.712" transform="rotate(-90 1662.2 392.206)" stroke="#18C86A" stroke-width="2.98823"/>
<rect x="0.747059" y="1269.25" width="1268.51" height="1268.51" transform="rotate(-90 0.747059 1269.25)" stroke="#007536" stroke-width="1.49412" stroke-linecap="square" stroke-dasharray="10.46 10.46"/>
<circle cx="635" cy="635" r="633.506" transform="rotate(-90 635 635)" stroke="#18C86A" stroke-width="2.98823"/>
</svg>
