<svg width="304" height="352" viewBox="0 0 304 352" fill="none" xmlns="http://www.w3.org/2000/svg">
<path d="M182.25 158.223V190.776L152 208.135L121.75 190.776V158.223L152 140.864L182.25 158.223Z" fill="white" stroke="#129141" stroke-width="1.5"/>
<path d="M215.191 140.157V211.53L151.569 247.557L88.7969 211.533V140.155L151.569 103.475L215.191 140.157Z" stroke="white" stroke-width="1.5"/>
<path d="M244.33 123.058V225.703L151.994 277.264L59.6592 225.704V123.058L151.994 71.0666L244.33 123.058Z" stroke="white" stroke-width="1.5"/>
<path d="M89.4102 140.337L60.838 123.922" stroke="white" stroke-width="1.5"/>
<path d="M214.453 140.412L243.824 123.539" stroke="white" stroke-width="1.5"/>
<path d="M151.993 246.446L151.993 275.919" stroke="white" stroke-width="1.5"/>
<path d="M151.997 311.876L151.997 348.329" stroke="white" stroke-width="1.5"/>
<path d="M271.731 107.507L303.025 89.529" stroke="white" stroke-width="1.5"/>
<path d="M32.2676 107.51L0.974298 89.5322" stroke="white" stroke-width="1.5"/>
<path d="M272.616 107.096V243.934L152.002 312.363L31.3877 243.934V107.096L152.002 38.666L272.616 107.096Z" stroke="white" stroke-width="1.5"/>
<path d="M303.25 88.9775V262.838L152 350.163L0.75 262.838V88.9775L152 0.868164L303.25 88.9775Z" stroke="white" stroke-width="1.5"/>
</svg>
