<svg width="239" height="234" viewBox="0 0 239 234" fill="none" xmlns="http://www.w3.org/2000/svg">
<ellipse cx="119" cy="117" rx="115.5" ry="10" transform="rotate(90 119 117)" stroke="white" stroke-width="3" stroke-linejoin="round"/>
<ellipse opacity="0.64" cx="92" cy="116.5" rx="82" ry="9.5" transform="rotate(90 92 116.5)" stroke="white" stroke-width="3" stroke-linejoin="round"/>
<ellipse opacity="0.64" cx="146.5" cy="116.5" rx="82" ry="9.5" transform="rotate(90 146.5 116.5)" stroke="white" stroke-width="3" stroke-linejoin="round"/>
<ellipse opacity="0.48" cx="65" cy="116.5" rx="82" ry="9.5" transform="rotate(90 65 116.5)" stroke="white" stroke-width="3" stroke-linejoin="round"/>
<ellipse opacity="0.48" cx="173.5" cy="116.5" rx="82" ry="9.5" transform="rotate(90 173.5 116.5)" stroke="white" stroke-width="3" stroke-linejoin="round"/>
<ellipse opacity="0.24" cx="38" cy="116.5" rx="82" ry="9.5" transform="rotate(90 38 116.5)" stroke="white" stroke-width="3" stroke-linejoin="round"/>
<ellipse opacity="0.24" cx="200.5" cy="116.5" rx="82" ry="9.5" transform="rotate(90 200.5 116.5)" stroke="white" stroke-width="3" stroke-linejoin="round"/>
<ellipse opacity="0.12" cx="11" cy="116.5" rx="82" ry="9.5" transform="rotate(90 11 116.5)" stroke="white" stroke-width="3" stroke-linejoin="round"/>
<ellipse opacity="0.12" cx="227.5" cy="116.5" rx="82" ry="9.5" transform="rotate(90 227.5 116.5)" stroke="white" stroke-width="3" stroke-linejoin="round"/>
</svg>
