<svg width="886" height="886" viewBox="0 0 886 886" fill="none" xmlns="http://www.w3.org/2000/svg">
<path d="M173 612C173 462.883 293.883 342 443 342C592.117 342 713 462.883 713 612C713 761.117 592.117 882 443 882C293.883 882 173 761.117 173 612Z" stroke="#18C86A" stroke-width="8"/>
<path d="M4.00014 443C4.00021 200.547 200.547 4.00031 443 4.00038C685.453 4.00052 882 200.547 882 443.001C882 685.453 685.453 882 443 882C200.547 882 4.00013 685.453 4.00014 443Z" stroke="#18C86A" stroke-width="8"/>
<path d="M343 782C343 726.772 387.772 682 443 682C498.228 682 543 726.772 543 782C543 837.229 498.228 882 443 882C387.772 882 343 837.229 343 782Z" stroke="white" stroke-width="8"/>
</svg>
