<svg width="886" height="886" viewBox="0 0 886 886" fill="none" xmlns="http://www.w3.org/2000/svg">
<path d="M4.00014 443C4.00021 200.547 200.547 4.00031 443 4.00038C685.453 4.00052 882 200.547 882 443.001C882 685.453 685.453 882 443 882C200.547 882 4.00013 685.453 4.00014 443Z" stroke="#18C86A" stroke-width="8"/>
<path d="M682 443C682 387.772 726.772 343 782 343C837.228 343 882 387.772 882 443C882 498.229 837.228 543 782 543C726.772 543 682 498.229 682 443Z" stroke="#18C86A" stroke-width="8"/>
<ellipse cx="860" cy="443" rx="26" ry="26" transform="rotate(-90 860 443)" fill="white"/>
</svg>
