<svg width="886" height="886" viewBox="0 0 886 886" fill="none" xmlns="http://www.w3.org/2000/svg">
<path d="M434 443C434 438.03 438.029 434 443 434C447.971 434 452 438.03 452 443C452 447.971 447.971 452 443 452C438.029 452 434 447.971 434 443Z" stroke="#18C86A" stroke-width="8"/>
<path d="M434 443C434 438.03 438.029 434 443 434C447.971 434 452 438.03 452 443C452 447.971 447.971 452 443 452C438.029 452 434 447.971 434 443Z" stroke="#18C86A" stroke-width="8"/>
<path d="M421 443C421 430.85 430.85 421 443 421C455.15 421 465 430.85 465 443C465 455.151 455.15 465 443 465C430.85 465 421 455.151 421 443Z" stroke="#18C86A" stroke-width="8"/>
<path d="M408 443C408 423.67 423.67 408 443 408C462.33 408 478 423.67 478 443C478 462.33 462.33 478 443 478C423.67 478 408 462.33 408 443Z" stroke="#18C86A" stroke-width="8"/>
<path d="M382 443C382 409.311 409.311 382 443 382C476.689 382 504 409.311 504 443C504 476.69 476.689 504 443 504C409.311 504 382 476.69 382 443Z" stroke="#18C86A" stroke-width="8"/>
<path d="M343 443C343 387.772 387.772 343 443 343C498.228 343 543 387.772 543 443C543 498.229 498.228 543 443 543C387.772 543 343 498.229 343 443Z" stroke="#18C86A" stroke-width="8"/>
<path d="M278 443C278 351.873 351.873 278 443 278C534.127 278 608 351.873 608 443C608 534.127 534.127 608 443 608C351.873 608 278 534.127 278 443Z" stroke="#18C86A" stroke-width="8"/>
<path d="M173 443C173 293.883 293.883 173 443 173C592.117 173 713 293.883 713 443C713 592.117 592.117 713 443 713C293.883 713 173 592.117 173 443Z" stroke="#18C86A" stroke-width="8"/>
<path d="M4.00014 443C4.00021 200.547 200.547 4.00031 443 4.00038C685.453 4.00052 882 200.547 882 443.001C882 685.453 685.453 882 443 882C200.547 882 4.00013 685.453 4.00014 443Z" stroke="#18C86A" stroke-width="8"/>
</svg>
