<svg width="504" height="504" viewBox="0 0 504 504" fill="none" xmlns="http://www.w3.org/2000/svg">
<g clip-path="url(#clip0_207_404)">
<rect x="250.609" y="243.512" width="2.78299" height="13.915" rx="1.3915" fill="white"/>
<rect x="223.608" y="246.614" width="2.78299" height="13.2192" rx="1.3915" transform="rotate(-77 223.608 246.614)" fill="white"/>
<rect x="238.284" y="277.178" width="2.78299" height="13.2192" rx="1.3915" transform="rotate(-149 238.284 277.178)" fill="white"/>
<rect x="271.896" y="272.661" width="2.78299" height="13.2192" rx="1.3915" transform="rotate(139 271.896 272.661)" fill="white"/>
<rect x="277.995" y="239.305" width="2.78299" height="13.2192" rx="1.3915" transform="rotate(67 277.995 239.305)" fill="white"/>
<rect x="248.162" y="223.216" width="2.78299" height="13.2192" rx="1.3915" transform="rotate(-5 248.162 223.216)" fill="white"/>
<rect x="215.487" y="218.483" width="2.78299" height="12.5235" rx="1.3915" transform="rotate(-46 215.487 218.483)" fill="white"/>
<rect x="202.87" y="246.26" width="2.78299" height="12.5235" rx="1.3915" transform="rotate(-82 202.87 246.26)" fill="white"/>
<rect x="208.978" y="276.149" width="2.78299" height="12.5235" rx="1.3915" transform="rotate(-118 208.978 276.149)" fill="white"/>
<rect x="231.48" y="296.733" width="2.78299" height="12.5235" rx="1.3915" transform="rotate(-154 231.48 296.733)" fill="white"/>
<rect x="261.819" y="300.177" width="2.78299" height="12.5235" rx="1.3915" transform="rotate(170 261.819 300.177)" fill="white"/>
<rect x="288.332" y="285.113" width="2.78299" height="12.5235" rx="1.3915" transform="rotate(134 288.332 285.113)" fill="white"/>
<rect x="300.967" y="257.348" width="2.78299" height="12.5235" rx="1.3915" transform="rotate(98 300.967 257.348)" fill="white"/>
<rect x="294.858" y="227.459" width="2.78299" height="12.5235" rx="1.3915" transform="rotate(62 294.858 227.459)" fill="white"/>
<rect x="272.339" y="206.863" width="2.78299" height="12.5235" rx="1.3915" transform="rotate(26 272.339 206.863)" fill="white"/>
<rect x="242.051" y="203.455" width="2.78299" height="12.5235" rx="1.3915" transform="rotate(-10 242.051 203.455)" fill="white"/>
<rect x="206.916" y="198.351" width="2.78299" height="11.8277" rx="1.3915" transform="rotate(-39 206.916 198.351)" fill="white"/>
<rect x="189.059" y="221.275" width="2.78299" height="11.8277" rx="1.3915" transform="rotate(-63 189.059 221.275)" fill="white"/>
<rect x="182.086" y="249.488" width="2.78299" height="11.8277" rx="1.3915" transform="rotate(-87 182.086 249.488)" fill="white"/>
<rect x="187.19" y="278.102" width="2.78299" height="11.8277" rx="1.3915" transform="rotate(-111 187.19 278.102)" fill="white"/>
<rect x="203.461" y="302.154" width="2.78299" height="11.8277" rx="1.3915" transform="rotate(-135 203.461 302.154)" fill="white"/>
<rect x="228.128" y="317.51" width="2.78299" height="11.8277" rx="1.3915" transform="rotate(-159 228.128 317.51)" fill="white"/>
<rect x="256.923" y="321.515" width="2.78299" height="11.8277" rx="1.3915" transform="rotate(177 256.923 321.515)" fill="white"/>
<rect x="284.843" y="313.458" width="2.78299" height="11.8277" rx="1.3915" transform="rotate(153 284.843 313.458)" fill="white"/>
<rect x="307.058" y="294.735" width="2.78299" height="11.8277" rx="1.3915" transform="rotate(129 307.058 294.735)" fill="white"/>
<rect x="319.754" y="268.598" width="2.78299" height="11.8277" rx="1.3915" transform="rotate(105 319.754 268.598)" fill="white"/>
<rect x="320.737" y="239.567" width="2.78299" height="11.8277" rx="1.3915" transform="rotate(81 320.737 239.567)" fill="white"/>
<rect x="309.796" y="212.637" width="2.78299" height="11.8277" rx="1.3915" transform="rotate(57 309.796 212.637)" fill="white"/>
<rect x="288.849" y="192.48" width="2.78299" height="11.8277" rx="1.3915" transform="rotate(33 288.849 192.48)" fill="white"/>
<rect x="261.533" y="182.591" width="2.78299" height="11.8277" rx="1.3915" transform="rotate(9 261.533 182.591)" fill="white"/>
<rect x="232.571" y="184.679" width="2.78299" height="11.8277" rx="1.3915" transform="rotate(-15 232.571 184.679)" fill="white"/>
<rect x="195.207" y="181.412" width="2.78299" height="11.132" rx="1.3915" transform="rotate(-38 195.207 181.412)" fill="white"/>
<rect x="176.215" y="202.376" width="2.78299" height="11.132" rx="1.3915" transform="rotate(-56 176.215 202.376)" fill="white"/>
<rect x="164.643" y="228.184" width="2.78299" height="11.132" rx="1.3915" transform="rotate(-74 164.643 228.184)" fill="white"/>
<rect x="161.62" y="256.31" width="2.78299" height="11.132" rx="1.3915" transform="rotate(-92 161.62 256.31)" fill="white"/>
<rect x="167.446" y="284" width="2.78299" height="11.132" rx="1.3915" transform="rotate(-110 167.446 284)" fill="white"/>
<rect x="181.504" y="308.523" width="2.78299" height="11.132" rx="1.3915" transform="rotate(-128 181.504 308.523)" fill="white"/>
<rect x="202.463" y="327.501" width="2.78299" height="11.132" rx="1.3915" transform="rotate(-146 202.463 327.501)" fill="white"/>
<rect x="228.271" y="339.074" width="2.78299" height="11.132" rx="1.3915" transform="rotate(-164 228.271 339.074)" fill="white"/>
<rect x="256.4" y="342.11" width="2.78299" height="11.132" rx="1.3915" transform="rotate(178 256.4 342.11)" fill="white"/>
<rect x="284.102" y="336.312" width="2.78299" height="11.132" rx="1.3915" transform="rotate(160 284.102 336.312)" fill="white"/>
<rect x="308.614" y="322.227" width="2.78299" height="11.132" rx="1.3915" transform="rotate(142 308.614 322.227)" fill="white"/>
<rect x="327.587" y="301.254" width="2.78299" height="11.132" rx="1.3915" transform="rotate(124 327.587 301.254)" fill="white"/>
<rect x="339.16" y="275.446" width="2.78299" height="11.132" rx="1.3915" transform="rotate(106 339.16 275.446)" fill="white"/>
<rect x="342.201" y="247.329" width="2.78299" height="11.132" rx="1.3915" transform="rotate(88 342.201 247.329)" fill="white"/>
<rect x="336.413" y="219.656" width="2.78299" height="11.132" rx="1.3915" transform="rotate(70 336.413 219.656)" fill="white"/>
<rect x="322.317" y="195.116" width="2.78299" height="11.132" rx="1.3915" transform="rotate(52 322.317 195.116)" fill="white"/>
<rect x="301.34" y="176.129" width="2.78299" height="11.132" rx="1.3915" transform="rotate(34 301.34 176.129)" fill="white"/>
<rect x="275.532" y="164.556" width="2.78299" height="11.132" rx="1.3915" transform="rotate(16 275.532 164.556)" fill="white"/>
<rect x="247.421" y="161.529" width="2.78299" height="11.132" rx="1.3915" transform="rotate(-2 247.421 161.529)" fill="white"/>
<rect x="219.758" y="167.344" width="2.78299" height="11.132" rx="1.3915" transform="rotate(-20 219.758 167.344)" fill="white"/>
<rect x="180.479" y="166.966" width="2.78299" height="10.4362" rx="1.3915" transform="rotate(-39.4 180.479 166.966)" fill="white"/>
<rect x="161.608" y="187.394" width="2.78299" height="10.4362" rx="1.3915" transform="rotate(-53.8 161.608 187.394)" fill="white"/>
<rect x="148.418" y="211.872" width="2.78299" height="10.4362" rx="1.3915" transform="rotate(-68.2 148.418 211.872)" fill="white"/>
<rect x="141.737" y="238.863" width="2.78299" height="10.4362" rx="1.3915" transform="rotate(-82.6 141.737 238.863)" fill="white"/>
<rect x="141.983" y="266.67" width="2.78299" height="10.4362" rx="1.3915" transform="rotate(-97 141.983 266.67)" fill="white"/>
<rect x="149.144" y="293.547" width="2.78299" height="10.4362" rx="1.3915" transform="rotate(-111.4 149.144 293.547)" fill="white"/>
<rect x="162.739" y="317.794" width="2.78299" height="10.4362" rx="1.3915" transform="rotate(-125.8 162.739 317.794)" fill="white"/>
<rect x="181.933" y="337.895" width="2.78299" height="10.4362" rx="1.3915" transform="rotate(-140.2 181.933 337.895)" fill="white"/>
<rect x="205.531" y="352.59" width="2.78299" height="10.4362" rx="1.3915" transform="rotate(-154.6 205.531 352.59)" fill="white"/>
<rect x="232.049" y="360.956" width="2.78299" height="10.4362" rx="1.3915" transform="rotate(-169 232.049 360.956)" fill="white"/>
<rect x="259.82" y="362.467" width="2.78299" height="10.4362" rx="1.3915" transform="rotate(176.6 259.82 362.467)" fill="white"/>
<rect x="287.101" y="357.028" width="2.78299" height="10.4362" rx="1.3915" transform="rotate(162.2 287.101 357.028)" fill="white"/>
<rect x="312.157" y="344.975" width="2.78299" height="10.4362" rx="1.3915" transform="rotate(147.8 312.157 344.975)" fill="white"/>
<rect x="333.416" y="327.064" width="2.78299" height="10.4362" rx="1.3915" transform="rotate(133.4 333.416 327.064)" fill="white"/>
<rect x="349.559" y="304.427" width="2.78299" height="10.4362" rx="1.3915" transform="rotate(119 349.559 304.427)" fill="white"/>
<rect x="359.572" y="278.488" width="2.78299" height="10.4362" rx="1.3915" transform="rotate(104.6 359.572 278.488)" fill="white"/>
<rect x="362.826" y="250.875" width="2.78299" height="10.4362" rx="1.3915" transform="rotate(90.2 362.826 250.875)" fill="white"/>
<rect x="359.117" y="223.324" width="2.78299" height="10.4362" rx="1.3915" transform="rotate(75.8 359.117 223.324)" fill="white"/>
<rect x="348.669" y="197.563" width="2.78299" height="10.4362" rx="1.3915" transform="rotate(61.4 348.669 197.563)" fill="white"/>
<rect x="332.118" y="175.204" width="2.78299" height="10.4362" rx="1.3915" transform="rotate(47 332.118 175.204)" fill="white"/>
<rect x="310.534" y="157.661" width="2.78299" height="10.4362" rx="1.3915" transform="rotate(32.6 310.534 157.661)" fill="white"/>
<rect x="285.273" y="146.037" width="2.78299" height="10.4362" rx="1.3915" transform="rotate(18.2 285.273 146.037)" fill="white"/>
<rect x="257.921" y="141.062" width="2.78299" height="10.4362" rx="1.3915" transform="rotate(3.8 257.921 141.062)" fill="white"/>
<rect x="230.197" y="143.049" width="2.78299" height="10.4362" rx="1.3915" transform="rotate(-10.6 230.197 143.049)" fill="white"/>
<rect x="203.843" y="151.873" width="2.78299" height="10.4362" rx="1.3915" transform="rotate(-25 203.843 151.873)" fill="white"/>
<rect x="162.967" y="155.051" width="2.78299" height="9.74047" rx="1.3915" transform="rotate(-42 162.967 155.051)" fill="white"/>
<rect x="144.776" y="175.656" width="2.78299" height="9.74048" rx="1.3915" transform="rotate(-54 144.776 175.656)" fill="white"/>
<rect x="131.273" y="199.591" width="2.78299" height="9.74047" rx="1.3915" transform="rotate(-66 131.273 199.591)" fill="white"/>
<rect x="123.047" y="225.811" width="2.78299" height="9.74047" rx="1.3915" transform="rotate(-78 123.047 225.811)" fill="white"/>
<rect x="120.455" y="253.169" width="2.78299" height="9.74048" rx="1.3915" transform="rotate(-90 120.455 253.169)" fill="white"/>
<rect x="123.614" y="280.471" width="2.78299" height="9.74048" rx="1.3915" transform="rotate(-102 123.614 280.471)" fill="white"/>
<rect x="132.383" y="306.521" width="2.78299" height="9.74048" rx="1.3915" transform="rotate(-114 132.383 306.521)" fill="white"/>
<rect x="146.364" y="330.179" width="2.78299" height="9.74047" rx="1.3915" transform="rotate(-126 146.364 330.179)" fill="white"/>
<rect x="164.946" y="350.409" width="2.78299" height="9.74047" rx="1.3915" transform="rotate(-138 164.946 350.409)" fill="white"/>
<rect x="187.334" y="366.333" width="2.78299" height="9.74047" rx="1.3915" transform="rotate(-150 187.334 366.333)" fill="white"/>
<rect x="212.547" y="377.253" width="2.78299" height="9.74048" rx="1.3915" transform="rotate(-162 212.547 377.253)" fill="white"/>
<rect x="239.484" y="382.693" width="2.78299" height="9.74047" rx="1.3915" transform="rotate(-174 239.484 382.693)" fill="white"/>
<rect x="266.968" y="382.416" width="2.78299" height="9.74047" rx="1.3915" transform="rotate(174 266.968 382.416)" fill="white"/>
<rect x="293.799" y="376.432" width="2.78299" height="9.74048" rx="1.3915" transform="rotate(162 293.799 376.432)" fill="white"/>
<rect x="318.802" y="365.004" width="2.78299" height="9.74047" rx="1.3915" transform="rotate(150 318.802 365.004)" fill="white"/>
<rect x="340.854" y="348.622" width="2.78299" height="9.74047" rx="1.3915" transform="rotate(138 340.854 348.622)" fill="white"/>
<rect x="359.024" y="328.012" width="2.78299" height="9.74048" rx="1.3915" transform="rotate(126 359.024 328.012)" fill="white"/>
<rect x="372.516" y="304.074" width="2.78299" height="9.74047" rx="1.3915" transform="rotate(114 372.516 304.074)" fill="white"/>
<rect x="380.74" y="277.853" width="2.78299" height="9.74047" rx="1.3915" transform="rotate(102 380.74 277.853)" fill="white"/>
<rect x="383.338" y="250.497" width="2.78299" height="9.74048" rx="1.3915" transform="rotate(90 383.338 250.497)" fill="white"/>
<rect x="380.195" y="223.2" width="2.78299" height="9.74048" rx="1.3915" transform="rotate(78 380.195 223.2)" fill="white"/>
<rect x="371.451" y="197.156" width="2.78299" height="9.74048" rx="1.3915" transform="rotate(66 371.451 197.156)" fill="white"/>
<rect x="357.47" y="173.498" width="2.78299" height="9.74047" rx="1.3915" transform="rotate(54 357.47 173.498)" fill="white"/>
<rect x="338.863" y="153.261" width="2.78299" height="9.74047" rx="1.3915" transform="rotate(42 338.863 153.261)" fill="white"/>
<rect x="316.46" y="137.334" width="2.78299" height="9.74047" rx="1.3915" transform="rotate(30 316.46 137.334)" fill="white"/>
<rect x="291.239" y="126.411" width="2.78299" height="9.74048" rx="1.3915" transform="rotate(18 291.239 126.411)" fill="white"/>
<rect x="264.305" y="120.972" width="2.78299" height="9.74047" rx="1.3915" transform="rotate(6 264.305 120.972)" fill="white"/>
<rect x="236.832" y="121.253" width="2.78299" height="9.74047" rx="1.3915" transform="rotate(-6 236.832 121.253)" fill="white"/>
<rect x="210.021" y="127.242" width="2.78299" height="9.74048" rx="1.3915" transform="rotate(-18 210.021 127.242)" fill="white"/>
<rect x="185.047" y="138.677" width="2.78299" height="9.74047" rx="1.3915" transform="rotate(-30 185.047 138.677)" fill="white"/>
<rect x="142.979" y="145.876" width="2.78299" height="9.04473" rx="1.3915" transform="rotate(-45.2857 142.979 145.876)" fill="white"/>
<rect x="125.799" y="167.028" width="2.78299" height="9.04473" rx="1.3915" transform="rotate(-55.5714 125.799 167.028)" fill="white"/>
<rect x="112.675" y="190.906" width="2.78299" height="9.04473" rx="1.3915" transform="rotate(-65.8571 112.675 190.906)" fill="white"/>
<rect x="104.028" y="216.743" width="2.78299" height="9.04473" rx="1.3915" transform="rotate(-76.1429 104.028 216.743)" fill="white"/>
<rect x="100.138" y="243.709" width="2.78299" height="9.04473" rx="1.3915" transform="rotate(-86.4286 100.138 243.709)" fill="white"/>
<rect x="101.128" y="270.937" width="2.78299" height="9.04473" rx="1.3915" transform="rotate(-96.7143 101.128 270.937)" fill="white"/>
<rect x="106.968" y="297.552" width="2.78299" height="9.04473" rx="1.3915" transform="rotate(-107 106.968 297.552)" fill="white"/>
<rect x="117.469" y="322.699" width="2.78299" height="9.04473" rx="1.3915" transform="rotate(-117.286 117.469 322.699)" fill="white"/>
<rect x="132.287" y="345.567" width="2.78299" height="9.04473" rx="1.3915" transform="rotate(-127.571 132.287 345.567)" fill="white"/>
<rect x="150.932" y="365.42" width="2.78299" height="9.04473" rx="1.3915" transform="rotate(-137.857 150.932 365.42)" fill="white"/>
<rect x="172.825" y="381.623" width="2.78299" height="9.04473" rx="1.3915" transform="rotate(-148.143 172.825 381.623)" fill="white"/>
<rect x="197.264" y="393.656" width="2.78299" height="9.04473" rx="1.3915" transform="rotate(-158.429 197.264 393.656)" fill="white"/>
<rect x="223.462" y="401.131" width="2.78299" height="9.04473" rx="1.3915" transform="rotate(-168.714 223.462 401.131)" fill="white"/>
<rect x="250.576" y="403.808" width="2.78299" height="9.04473" rx="1.3915" transform="rotate(-179 250.576 403.808)" fill="white"/>
<rect x="277.736" y="401.602" width="2.78299" height="9.04473" rx="1.3915" transform="rotate(170.714 277.736 401.602)" fill="white"/>
<rect x="304.069" y="394.583" width="2.78299" height="9.04473" rx="1.3915" transform="rotate(160.429 304.069 394.583)" fill="white"/>
<rect x="328.73" y="382.976" width="2.78299" height="9.04473" rx="1.3915" transform="rotate(150.143 328.73 382.976)" fill="white"/>
<rect x="350.909" y="367.153" width="2.78299" height="9.04473" rx="1.3915" transform="rotate(139.857 350.909 367.153)" fill="white"/>
<rect x="369.896" y="347.623" width="2.78299" height="9.04473" rx="1.3915" transform="rotate(129.571 369.896 347.623)" fill="white"/>
<rect x="385.094" y="325.014" width="2.78299" height="9.04473" rx="1.3915" transform="rotate(119.286 385.094 325.014)" fill="white"/>
<rect x="396.014" y="300.054" width="2.78299" height="9.04473" rx="1.3915" transform="rotate(109 396.014 300.054)" fill="white"/>
<rect x="402.306" y="273.545" width="2.78299" height="9.04473" rx="1.3915" transform="rotate(98.7143 402.306 273.545)" fill="white"/>
<rect x="403.765" y="246.339" width="2.78299" height="9.04473" rx="1.3915" transform="rotate(88.4286 403.765 246.339)" fill="white"/>
<rect x="400.348" y="219.311" width="2.78299" height="9.04473" rx="1.3915" transform="rotate(78.1429 400.348 219.311)" fill="white"/>
<rect x="392.162" y="193.329" width="2.78299" height="9.04473" rx="1.3915" transform="rotate(67.8571 392.162 193.329)" fill="white"/>
<rect x="379.472" y="169.228" width="2.78299" height="9.04473" rx="1.3915" transform="rotate(57.5714 379.472 169.228)" fill="white"/>
<rect x="362.663" y="147.779" width="2.78299" height="9.04473" rx="1.3915" transform="rotate(47.2857 362.663 147.779)" fill="white"/>
<rect x="342.291" y="129.674" width="2.78299" height="9.04473" rx="1.3915" transform="rotate(37 342.291 129.674)" fill="white"/>
<rect x="319.017" y="115.497" width="2.78299" height="9.04473" rx="1.3915" transform="rotate(26.7143 319.017 115.497)" fill="white"/>
<rect x="293.589" y="105.703" width="2.78299" height="9.04473" rx="1.3915" transform="rotate(16.4286 293.589 105.703)" fill="white"/>
<rect x="266.824" y="100.606" width="2.78299" height="9.04473" rx="1.3915" transform="rotate(6.14286 266.824 100.606)" fill="white"/>
<rect x="239.583" y="100.37" width="2.78299" height="9.04473" rx="1.3915" transform="rotate(-4.14286 239.583 100.37)" fill="white"/>
<rect x="212.74" y="105.004" width="2.78299" height="9.04473" rx="1.3915" transform="rotate(-14.4286 212.74 105.004)" fill="white"/>
<rect x="187.16" y="114.358" width="2.78299" height="9.04473" rx="1.3915" transform="rotate(-24.7143 187.16 114.358)" fill="white"/>
<rect x="163.664" y="128.131" width="2.78299" height="9.04473" rx="1.3915" transform="rotate(-35 163.664 128.131)" fill="white"/>
<rect x="120.854" y="139.698" width="2.78299" height="8.34898" rx="1.3915" transform="rotate(-49 120.854 139.698)" fill="white"/>
<rect x="104.913" y="161.579" width="2.78299" height="8.34898" rx="1.3915" transform="rotate(-58 104.913 161.579)" fill="white"/>
<rect x="92.5938" y="185.684" width="2.78299" height="8.34898" rx="1.3915" transform="rotate(-67 92.5938 185.684)" fill="white"/>
<rect x="84.2012" y="211.419" width="2.78299" height="8.34898" rx="1.3915" transform="rotate(-76 84.2012 211.419)" fill="white"/>
<rect x="79.9395" y="238.149" width="2.78299" height="8.34898" rx="1.3915" transform="rotate(-85 79.9395 238.149)" fill="white"/>
<rect x="79.9131" y="265.217" width="2.78299" height="8.34898" rx="1.3915" transform="rotate(-94 79.9131 265.217)" fill="white"/>
<rect x="84.127" y="291.956" width="2.78299" height="8.34898" rx="1.3915" transform="rotate(-103 84.127 291.956)" fill="white"/>
<rect x="92.4717" y="317.707" width="2.78299" height="8.34898" rx="1.3915" transform="rotate(-112 92.4717 317.707)" fill="white"/>
<rect x="104.745" y="341.838" width="2.78299" height="8.34898" rx="1.3915" transform="rotate(-121 104.745 341.838)" fill="white"/>
<rect x="120.645" y="363.752" width="2.78299" height="8.34898" rx="1.3915" transform="rotate(-130 120.645 363.752)" fill="white"/>
<rect x="139.755" y="382.91" width="2.78299" height="8.34898" rx="1.3915" transform="rotate(-139 139.755 382.91)" fill="white"/>
<rect x="161.629" y="398.84" width="2.78299" height="8.34898" rx="1.3915" transform="rotate(-148 161.629 398.84)" fill="white"/>
<rect x="185.728" y="411.152" width="2.78299" height="8.34898" rx="1.3915" transform="rotate(-157 185.728 411.152)" fill="white"/>
<rect x="211.458" y="419.541" width="2.78299" height="8.34898" rx="1.3915" transform="rotate(-166 211.458 419.541)" fill="white"/>
<rect x="238.187" y="423.801" width="2.78299" height="8.34898" rx="1.3915" transform="rotate(-175 238.187 423.801)" fill="white"/>
<rect x="265.257" y="423.828" width="2.78299" height="8.34898" rx="1.3915" transform="rotate(176 265.257 423.828)" fill="white"/>
<rect x="291.999" y="419.62" width="2.78299" height="8.34898" rx="1.3915" transform="rotate(167 291.999 419.62)" fill="white"/>
<rect x="317.757" y="411.282" width="2.78299" height="8.34898" rx="1.3915" transform="rotate(158 317.757 411.282)" fill="white"/>
<rect x="341.896" y="399.018" width="2.78299" height="8.34898" rx="1.3915" transform="rotate(149 341.896 399.018)" fill="white"/>
<rect x="363.82" y="383.13" width="2.78299" height="8.34898" rx="1.3915" transform="rotate(140 363.82 383.13)" fill="white"/>
<rect x="382.969" y="364.008" width="2.78299" height="8.34898" rx="1.3915" transform="rotate(131 382.969 364.008)" fill="white"/>
<rect x="398.89" y="342.125" width="2.78299" height="8.34898" rx="1.3915" transform="rotate(122 398.89 342.125)" fill="white"/>
<rect x="411.195" y="318.019" width="2.78299" height="8.34898" rx="1.3915" transform="rotate(113 411.195 318.019)" fill="white"/>
<rect x="419.58" y="292.284" width="2.78299" height="8.34898" rx="1.3915" transform="rotate(104 419.58 292.284)" fill="white"/>
<rect x="423.84" y="265.553" width="2.78299" height="8.34898" rx="1.3915" transform="rotate(95 423.84 265.553)" fill="white"/>
<rect x="423.868" y="238.486" width="2.78299" height="8.34898" rx="1.3915" transform="rotate(86 423.868 238.486)" fill="white"/>
<rect x="419.663" y="211.748" width="2.78299" height="8.34898" rx="1.3915" transform="rotate(77 419.663 211.748)" fill="white"/>
<rect x="411.332" y="185.997" width="2.78299" height="8.34898" rx="1.3915" transform="rotate(68 411.332 185.997)" fill="white"/>
<rect x="399.075" y="161.868" width="2.78299" height="8.34898" rx="1.3915" transform="rotate(59 399.075 161.868)" fill="white"/>
<rect x="383.198" y="139.956" width="2.78299" height="8.34898" rx="1.3915" transform="rotate(50 383.198 139.956)" fill="white"/>
<rect x="364.067" y="120.796" width="2.78299" height="8.34898" rx="1.3915" transform="rotate(41 364.067 120.796)" fill="white"/>
<rect x="342.174" y="104.864" width="2.78299" height="8.34898" rx="1.3915" transform="rotate(32 342.174 104.864)" fill="white"/>
<rect x="318.062" y="92.5513" width="2.78299" height="8.34898" rx="1.3915" transform="rotate(23 318.062 92.5513)" fill="white"/>
<rect x="292.323" y="84.1614" width="2.78299" height="8.34898" rx="1.3915" transform="rotate(14 292.323 84.1614)" fill="white"/>
<rect x="265.592" y="79.9007" width="2.78299" height="8.34898" rx="1.3915" transform="rotate(5 265.592 79.9007)" fill="white"/>
<rect x="238.525" y="79.8743" width="2.78299" height="8.34898" rx="1.3915" transform="rotate(-4 238.525 79.8743)" fill="white"/>
<rect x="211.791" y="84.0828" width="2.78299" height="8.34898" rx="1.3915" transform="rotate(-13 211.791 84.0828)" fill="white"/>
<rect x="186.047" y="92.4224" width="2.78299" height="8.34898" rx="1.3915" transform="rotate(-22 186.047 92.4224)" fill="white"/>
<rect x="161.926" y="104.688" width="2.78299" height="8.34898" rx="1.3915" transform="rotate(-31 161.926 104.688)" fill="white"/>
<rect x="140.023" y="120.578" width="2.78299" height="8.34898" rx="1.3915" transform="rotate(-40 140.023 120.578)" fill="white"/>
<rect x="96.9561" y="136.77" width="2.78299" height="7.65323" rx="1.3915" transform="rotate(-53 96.9561 136.77)" fill="white"/>
<rect x="82.4375" y="159.455" width="2.78299" height="7.65323" rx="1.3915" transform="rotate(-61 82.4375 159.455)" fill="white"/>
<rect x="71.2197" y="183.939" width="2.78299" height="7.65323" rx="1.3915" transform="rotate(-69 71.2197 183.939)" fill="white"/>
<rect x="63.5205" y="209.745" width="2.78299" height="7.65323" rx="1.3915" transform="rotate(-77 63.5205 209.745)" fill="white"/>
<rect x="59.4902" y="236.371" width="2.78299" height="7.65323" rx="1.3915" transform="rotate(-85 59.4902 236.371)" fill="white"/>
<rect x="59.2061" y="263.298" width="2.78299" height="7.65323" rx="1.3915" transform="rotate(-93 59.2061 263.298)" fill="white"/>
<rect x="62.6758" y="290.003" width="2.78299" height="7.65323" rx="1.3915" transform="rotate(-101 62.6758 290.003)" fill="white"/>
<rect x="69.8291" y="315.965" width="2.78299" height="7.65323" rx="1.3915" transform="rotate(-109 69.8291 315.965)" fill="white"/>
<rect x="80.5273" y="340.679" width="2.78299" height="7.65323" rx="1.3915" transform="rotate(-117 80.5273 340.679)" fill="white"/>
<rect x="94.5645" y="363.665" width="2.78299" height="7.65323" rx="1.3915" transform="rotate(-125 94.5645 363.665)" fill="white"/>
<rect x="111.666" y="384.475" width="2.78299" height="7.65323" rx="1.3915" transform="rotate(-133 111.666 384.475)" fill="white"/>
<rect x="131.481" y="402.704" width="2.78299" height="7.65323" rx="1.3915" transform="rotate(-141 131.481 402.704)" fill="white"/>
<rect x="153.638" y="417.996" width="2.78299" height="7.65323" rx="1.3915" transform="rotate(-149 153.638 417.996)" fill="white"/>
<rect x="177.708" y="430.055" width="2.78299" height="7.65323" rx="1.3915" transform="rotate(-157 177.708 430.055)" fill="white"/>
<rect x="203.225" y="438.646" width="2.78299" height="7.65323" rx="1.3915" transform="rotate(-165 203.225 438.646)" fill="white"/>
<rect x="229.691" y="443.601" width="2.78299" height="7.65323" rx="1.3915" transform="rotate(-173 229.691 443.601)" fill="white"/>
<rect x="256.591" y="444.824" width="2.78299" height="7.65323" rx="1.3915" transform="rotate(179 256.591 444.824)" fill="white"/>
<rect x="283.401" y="442.291" width="2.78299" height="7.65323" rx="1.3915" transform="rotate(171 283.401 442.291)" fill="white"/>
<rect x="309.602" y="436.052" width="2.78299" height="7.65323" rx="1.3915" transform="rotate(163 309.602 436.052)" fill="white"/>
<rect x="334.68" y="426.228" width="2.78299" height="7.65323" rx="1.3915" transform="rotate(155 334.68 426.228)" fill="white"/>
<rect x="358.148" y="413.01" width="2.78299" height="7.65323" rx="1.3915" transform="rotate(147 358.148 413.01)" fill="white"/>
<rect x="379.551" y="396.655" width="2.78299" height="7.65323" rx="1.3915" transform="rotate(139 379.551 396.655)" fill="white"/>
<rect x="398.46" y="377.483" width="2.78299" height="7.65323" rx="1.3915" transform="rotate(131 398.46 377.483)" fill="white"/>
<rect x="414.508" y="355.865" width="2.78299" height="7.65323" rx="1.3915" transform="rotate(123 414.508 355.865)" fill="white"/>
<rect x="427.393" y="332.222" width="2.78299" height="7.65323" rx="1.3915" transform="rotate(115 427.393 332.222)" fill="white"/>
<rect x="436.863" y="307.016" width="2.78299" height="7.65323" rx="1.3915" transform="rotate(107 436.863 307.016)" fill="white"/>
<rect x="442.735" y="280.736" width="2.78299" height="7.65323" rx="1.3915" transform="rotate(99 442.735 280.736)" fill="white"/>
<rect x="444.896" y="253.894" width="2.78299" height="7.65323" rx="1.3915" transform="rotate(91 444.896 253.894)" fill="white"/>
<rect x="443.3" y="227.013" width="2.78299" height="7.65323" rx="1.3915" transform="rotate(83 443.3 227.013)" fill="white"/>
<rect x="437.982" y="200.615" width="2.78299" height="7.65323" rx="1.3915" transform="rotate(75 437.982 200.615)" fill="white"/>
<rect x="429.045" y="175.215" width="2.78299" height="7.65323" rx="1.3915" transform="rotate(67 429.045 175.215)" fill="white"/>
<rect x="416.659" y="151.306" width="2.78299" height="7.65323" rx="1.3915" transform="rotate(59 416.659 151.306)" fill="white"/>
<rect x="401.07" y="129.355" width="2.78299" height="7.65323" rx="1.3915" transform="rotate(51 401.07 129.355)" fill="white"/>
<rect x="382.574" y="109.788" width="2.78299" height="7.65323" rx="1.3915" transform="rotate(43 382.574 109.788)" fill="white"/>
<rect x="361.521" y="92.9868" width="2.78299" height="7.65323" rx="1.3915" transform="rotate(35 361.521 92.9868)" fill="white"/>
<rect x="338.335" y="79.2776" width="2.78299" height="7.65323" rx="1.3915" transform="rotate(27 338.335 79.2776)" fill="white"/>
<rect x="313.469" y="68.9277" width="2.78299" height="7.65323" rx="1.3915" transform="rotate(19 313.469 68.9277)" fill="white"/>
<rect x="287.405" y="62.1382" width="2.78299" height="7.65323" rx="1.3915" transform="rotate(11 287.405 62.1382)" fill="white"/>
<rect x="260.654" y="59.0415" width="2.78299" height="7.65323" rx="1.3915" transform="rotate(3 260.654 59.0415)" fill="white"/>
<rect x="233.733" y="59.6979" width="2.78299" height="7.65323" rx="1.3915" transform="rotate(-5 233.733 59.6979)" fill="white"/>
<rect x="207.169" y="64.0946" width="2.78299" height="7.65323" rx="1.3915" transform="rotate(-13 207.169 64.0946)" fill="white"/>
<rect x="181.476" y="72.1459" width="2.78299" height="7.65323" rx="1.3915" transform="rotate(-21 181.476 72.1459)" fill="white"/>
<rect x="157.155" y="83.6951" width="2.78299" height="7.65323" rx="1.3915" transform="rotate(-29 157.155 83.6951)" fill="white"/>
<rect x="134.682" y="98.5175" width="2.78299" height="7.65323" rx="1.3915" transform="rotate(-37 134.682 98.5175)" fill="white"/>
<rect x="114.491" y="116.325" width="2.78299" height="7.65323" rx="1.3915" transform="rotate(-45 114.491 116.325)" fill="white"/>
<rect x="71.6953" y="137.316" width="2.78299" height="6.95748" rx="1.3915" transform="rotate(-57.2 71.6953 137.316)" fill="white"/>
<rect x="58.75" y="160.807" width="2.78299" height="6.95748" rx="1.3915" transform="rotate(-64.4 58.75 160.807)" fill="white"/>
<rect x="48.8545" y="185.734" width="2.78299" height="6.95748" rx="1.3915" transform="rotate(-71.6 48.8545 185.734)" fill="white"/>
<rect x="42.1611" y="211.704" width="2.78299" height="6.95748" rx="1.3915" transform="rotate(-78.8 42.1611 211.704)" fill="white"/>
<rect x="38.7783" y="238.308" width="2.78299" height="6.95748" rx="1.3915" transform="rotate(-86 38.7783 238.308)" fill="white"/>
<rect x="38.7578" y="265.125" width="2.78299" height="6.95748" rx="1.3915" transform="rotate(-93.2 38.7578 265.125)" fill="white"/>
<rect x="42.1006" y="291.733" width="2.78299" height="6.95748" rx="1.3915" transform="rotate(-100.4 42.1006 291.733)" fill="white"/>
<rect x="48.7529" y="317.712" width="2.78299" height="6.95748" rx="1.3915" transform="rotate(-107.6 48.7529 317.712)" fill="white"/>
<rect x="58.6104" y="342.653" width="2.78299" height="6.95748" rx="1.3915" transform="rotate(-114.8 58.6104 342.653)" fill="white"/>
<rect x="71.5186" y="366.162" width="2.78299" height="6.95748" rx="1.3915" transform="rotate(-122 71.5186 366.162)" fill="white"/>
<rect x="87.2715" y="387.868" width="2.78299" height="6.95748" rx="1.3915" transform="rotate(-129.2 87.2715 387.868)" fill="white"/>
<rect x="105.624" y="407.429" width="2.78299" height="6.95748" rx="1.3915" transform="rotate(-136.4 105.624 407.429)" fill="white"/>
<rect x="126.274" y="424.538" width="2.78299" height="6.95748" rx="1.3915" transform="rotate(-143.6 126.274 424.538)" fill="white"/>
<rect x="148.898" y="438.924" width="2.78299" height="6.95748" rx="1.3915" transform="rotate(-150.8 148.898 438.924)" fill="white"/>
<rect x="173.147" y="450.361" width="2.78299" height="6.95748" rx="1.3915" transform="rotate(-158 173.147 450.361)" fill="white"/>
<rect x="198.64" y="458.667" width="2.78299" height="6.95748" rx="1.3915" transform="rotate(-165.2 198.64 458.667)" fill="white"/>
<rect x="224.976" y="463.711" width="2.78299" height="6.95748" rx="1.3915" transform="rotate(-172.4 224.976 463.711)" fill="white"/>
<rect x="251.735" y="465.414" width="2.78299" height="6.95748" rx="1.3915" transform="rotate(-179.6 251.735 465.414)" fill="white"/>
<rect x="278.501" y="463.75" width="2.78299" height="6.95748" rx="1.3915" transform="rotate(173.2 278.501 463.75)" fill="white"/>
<rect x="304.848" y="458.744" width="2.78299" height="6.95748" rx="1.3915" transform="rotate(166 304.848 458.744)" fill="white"/>
<rect x="330.361" y="450.475" width="2.78299" height="6.95748" rx="1.3915" transform="rotate(158.8 330.361 450.475)" fill="white"/>
<rect x="354.639" y="439.074" width="2.78299" height="6.95748" rx="1.3915" transform="rotate(151.6 354.639 439.074)" fill="white"/>
<rect x="377.298" y="424.721" width="2.78299" height="6.95748" rx="1.3915" transform="rotate(144.4 377.298 424.721)" fill="white"/>
<rect x="397.98" y="407.641" width="2.78299" height="6.95748" rx="1.3915" transform="rotate(137.2 397.98 407.641)" fill="white"/>
<rect x="416.362" y="388.105" width="2.78299" height="6.95748" rx="1.3915" transform="rotate(130 416.362 388.105)" fill="white"/>
<rect x="432.131" y="366.422" width="2.78299" height="6.95748" rx="1.3915" transform="rotate(122.8 432.131 366.422)" fill="white"/>
<rect x="445.06" y="342.932" width="2.78299" height="6.95748" rx="1.3915" transform="rotate(115.6 445.06 342.932)" fill="white"/>
<rect x="454.943" y="318.006" width="2.78299" height="6.95748" rx="1.3915" transform="rotate(108.4 454.943 318.006)" fill="white"/>
<rect x="461.627" y="292.036" width="2.78299" height="6.95748" rx="1.3915" transform="rotate(101.2 461.627 292.036)" fill="white"/>
<rect x="465.004" y="265.433" width="2.78299" height="6.95748" rx="1.3915" transform="rotate(94 465.004 265.433)" fill="white"/>
<rect x="465.021" y="238.616" width="2.78299" height="6.95748" rx="1.3915" transform="rotate(86.8 465.021 238.616)" fill="white"/>
<rect x="461.68" y="212.008" width="2.78299" height="6.95748" rx="1.3915" transform="rotate(79.6 461.68 212.008)" fill="white"/>
<rect x="455.032" y="186.029" width="2.78299" height="6.95748" rx="1.3915" transform="rotate(72.4 455.032 186.029)" fill="white"/>
<rect x="445.183" y="161.088" width="2.78299" height="6.95748" rx="1.3915" transform="rotate(65.2 445.183 161.088)" fill="white"/>
<rect x="432.285" y="137.578" width="2.78299" height="6.95748" rx="1.3915" transform="rotate(58 432.285 137.578)" fill="white"/>
<rect x="416.546" y="115.87" width="2.78299" height="6.95748" rx="1.3915" transform="rotate(50.8 416.546 115.87)" fill="white"/>
<rect x="398.21" y="96.3076" width="2.78299" height="6.95748" rx="1.3915" transform="rotate(43.6 398.21 96.3076)" fill="white"/>
<rect x="377.561" y="79.1988" width="2.78299" height="6.95748" rx="1.3915" transform="rotate(36.4 377.561 79.1988)" fill="white"/>
<rect x="354.919" y="64.8139" width="2.78299" height="6.95748" rx="1.3915" transform="rotate(29.2 354.919 64.8139)" fill="white"/>
<rect x="330.656" y="53.3789" width="2.78299" height="6.95748" rx="1.3915" transform="rotate(22 330.656 53.3789)" fill="white"/>
<rect x="305.152" y="45.0739" width="2.78299" height="6.95748" rx="1.3915" transform="rotate(14.8 305.152 45.0739)" fill="white"/>
<rect x="278.81" y="40.0302" width="2.78299" height="6.95748" rx="1.3915" transform="rotate(7.6 278.81 40.0302)" fill="white"/>
<rect x="252.045" y="38.3271" width="2.78299" height="6.95748" rx="1.3915" transform="rotate(0.400001 252.045 38.3271)" fill="white"/>
<rect x="225.279" y="39.9917" width="2.78299" height="6.95748" rx="1.3915" transform="rotate(-6.8 225.279 39.9917)" fill="white"/>
<rect x="198.935" y="44.9975" width="2.78299" height="6.95748" rx="1.3915" transform="rotate(-14 198.935 44.9975)" fill="white"/>
<rect x="173.427" y="53.2656" width="2.78299" height="6.95748" rx="1.3915" transform="rotate(-21.2 173.427 53.2656)" fill="white"/>
<rect x="149.159" y="64.6658" width="2.78299" height="6.95748" rx="1.3915" transform="rotate(-28.4 149.159 64.6658)" fill="white"/>
<rect x="126.513" y="79.0182" width="2.78299" height="6.95748" rx="1.3915" transform="rotate(-35.6 126.513 79.0182)" fill="white"/>
<rect x="105.844" y="96.0964" width="2.78299" height="6.95748" rx="1.3915" transform="rotate(-42.8 105.844 96.0964)" fill="white"/>
<rect x="87.4824" y="115.631" width="2.78299" height="6.95748" rx="1.3915" transform="rotate(-50 87.4824 115.631)" fill="white"/>
<rect x="45.4863" y="141.53" width="2.78299" height="6.26173" rx="1.3915" transform="rotate(-61.5455 45.4863 141.53)" fill="white"/>
<rect x="34.2461" y="165.781" width="2.78299" height="6.26173" rx="1.3915" transform="rotate(-68.0909 34.2461 165.781)" fill="white"/>
<rect x="25.8438" y="191.155" width="2.78299" height="6.26173" rx="1.3915" transform="rotate(-74.6364 25.8438 191.155)" fill="white"/>
<rect x="20.3906" y="217.319" width="2.78299" height="6.26173" rx="1.3915" transform="rotate(-81.1818 20.3906 217.319)" fill="white"/>
<rect x="17.957" y="243.935" width="2.78299" height="6.26173" rx="1.3915" transform="rotate(-87.7273 17.957 243.935)" fill="white"/>
<rect x="18.5742" y="270.653" width="2.78299" height="6.26173" rx="1.3915" transform="rotate(-94.2727 18.5742 270.653)" fill="white"/>
<rect x="22.2334" y="297.127" width="2.78299" height="6.26173" rx="1.3915" transform="rotate(-100.818 22.2334 297.127)" fill="white"/>
<rect x="28.8896" y="323.01" width="2.78299" height="6.26173" rx="1.3915" transform="rotate(-107.364 28.8896 323.01)" fill="white"/>
<rect x="38.4531" y="347.966" width="2.78299" height="6.26173" rx="1.3915" transform="rotate(-113.909 38.4531 347.966)" fill="white"/>
<rect x="50.8018" y="371.669" width="2.78299" height="6.26173" rx="1.3915" transform="rotate(-120.455 50.8018 371.669)" fill="white"/>
<rect x="65.7715" y="393.81" width="2.78299" height="6.26173" rx="1.3915" transform="rotate(-127 65.7715 393.81)" fill="white"/>
<rect x="83.1699" y="414.101" width="2.78299" height="6.26173" rx="1.3915" transform="rotate(-133.545 83.1699 414.101)" fill="white"/>
<rect x="102.77" y="432.277" width="2.78299" height="6.26173" rx="1.3915" transform="rotate(-140.091 102.77 432.277)" fill="white"/>
<rect x="124.31" y="448.101" width="2.78299" height="6.26173" rx="1.3915" transform="rotate(-146.636 124.31 448.101)" fill="white"/>
<rect x="147.501" y="461.37" width="2.78299" height="6.26173" rx="1.3915" transform="rotate(-153.182 147.501 461.37)" fill="white"/>
<rect x="172.055" y="471.907" width="2.78299" height="6.26173" rx="1.3915" transform="rotate(-159.727 172.055 471.907)" fill="white"/>
<rect x="197.651" y="479.576" width="2.78299" height="6.26173" rx="1.3915" transform="rotate(-166.273 197.651 479.576)" fill="white"/>
<rect x="223.956" y="484.276" width="2.78299" height="6.26173" rx="1.3915" transform="rotate(-172.818 223.956 484.276)" fill="white"/>
<rect x="250.626" y="485.946" width="2.78299" height="6.26173" rx="1.3915" transform="rotate(-179.364 250.626 485.946)" fill="white"/>
<rect x="277.313" y="484.565" width="2.78299" height="6.26173" rx="1.3915" transform="rotate(174.091 277.313 484.565)" fill="white"/>
<rect x="303.672" y="480.15" width="2.78299" height="6.26173" rx="1.3915" transform="rotate(167.545 303.672 480.15)" fill="white"/>
<rect x="329.356" y="472.759" width="2.78299" height="6.26173" rx="1.3915" transform="rotate(161 329.356 472.759)" fill="white"/>
<rect x="354.032" y="462.488" width="2.78299" height="6.26173" rx="1.3915" transform="rotate(154.455 354.032 462.488)" fill="white"/>
<rect x="377.378" y="449.471" width="2.78299" height="6.26173" rx="1.3915" transform="rotate(147.909 377.378 449.471)" fill="white"/>
<rect x="399.088" y="433.878" width="2.78299" height="6.26173" rx="1.3915" transform="rotate(141.364 399.088 433.878)" fill="white"/>
<rect x="418.882" y="415.913" width="2.78299" height="6.26173" rx="1.3915" transform="rotate(134.818 418.882 415.913)" fill="white"/>
<rect x="436.499" y="395.809" width="2.78299" height="6.26173" rx="1.3915" transform="rotate(128.273 436.499 395.809)" fill="white"/>
<rect x="451.703" y="373.829" width="2.78299" height="6.26173" rx="1.3915" transform="rotate(121.727 451.703 373.829)" fill="white"/>
<rect x="464.295" y="350.262" width="2.78299" height="6.26173" rx="1.3915" transform="rotate(115.182 464.295 350.262)" fill="white"/>
<rect x="474.119" y="325.411" width="2.78299" height="6.26173" rx="1.3915" transform="rotate(108.636 474.119 325.411)" fill="white"/>
<rect x="481.047" y="299.602" width="2.78299" height="6.26173" rx="1.3915" transform="rotate(102.091 481.047 299.602)" fill="white"/>
<rect x="484.989" y="273.17" width="2.78299" height="6.26173" rx="1.3915" transform="rotate(95.5455 484.989 273.17)" fill="white"/>
<rect x="485.895" y="246.461" width="2.78299" height="6.26173" rx="1.3915" transform="rotate(89 485.895 246.461)" fill="white"/>
<rect x="483.749" y="219.822" width="2.78299" height="6.26173" rx="1.3915" transform="rotate(82.4545 483.749 219.822)" fill="white"/>
<rect x="478.584" y="193.6" width="2.78299" height="6.26173" rx="1.3915" transform="rotate(75.9091 478.584 193.6)" fill="white"/>
<rect x="470.464" y="168.139" width="2.78299" height="6.26173" rx="1.3915" transform="rotate(69.3636 470.464 168.139)" fill="white"/>
<rect x="459.496" y="143.768" width="2.78299" height="6.26173" rx="1.3915" transform="rotate(62.8182 459.496 143.768)" fill="white"/>
<rect x="445.823" y="120.807" width="2.78299" height="6.26173" rx="1.3915" transform="rotate(56.2727 445.823 120.807)" fill="white"/>
<rect x="429.624" y="99.5545" width="2.78299" height="6.26173" rx="1.3915" transform="rotate(49.7273 429.624 99.5545)" fill="white"/>
<rect x="411.108" y="80.2874" width="2.78299" height="6.26173" rx="1.3915" transform="rotate(43.1818 411.108 80.2874)" fill="white"/>
<rect x="390.519" y="63.2572" width="2.78299" height="6.26173" rx="1.3915" transform="rotate(36.6364 390.519 63.2572)" fill="white"/>
<rect x="368.11" y="48.688" width="2.78299" height="6.26173" rx="1.3915" transform="rotate(30.0909 368.11 48.688)" fill="white"/>
<rect x="344.185" y="36.7683" width="2.78299" height="6.26173" rx="1.3915" transform="rotate(23.5455 344.185 36.7683)" fill="white"/>
<rect x="319.055" y="27.6526" width="2.78299" height="6.26173" rx="1.3915" transform="rotate(17 319.055 27.6526)" fill="white"/>
<rect x="293.053" y="21.4599" width="2.78299" height="6.26173" rx="1.3915" transform="rotate(10.4545 293.053 21.4599)" fill="white"/>
<rect x="266.515" y="18.2708" width="2.78299" height="6.26173" rx="1.3915" transform="rotate(3.90909 266.515 18.2708)" fill="white"/>
<rect x="239.787" y="18.127" width="2.78299" height="6.26173" rx="1.3915" transform="rotate(-2.63636 239.787 18.127)" fill="white"/>
<rect x="213.22" y="21.0302" width="2.78299" height="6.26173" rx="1.3915" transform="rotate(-9.18182 213.22 21.0302)" fill="white"/>
<rect x="187.156" y="26.9427" width="2.78299" height="6.26173" rx="1.3915" transform="rotate(-15.7273 187.156 26.9427)" fill="white"/>
<rect x="161.939" y="35.7873" width="2.78299" height="6.26173" rx="1.3915" transform="rotate(-22.2727 161.939 35.7873)" fill="white"/>
<rect x="137.896" y="47.449" width="2.78299" height="6.26173" rx="1.3915" transform="rotate(-28.8182 137.896 47.449)" fill="white"/>
<rect x="115.341" y="61.7754" width="2.78299" height="6.26173" rx="1.3915" transform="rotate(-35.3636 115.341 61.7754)" fill="white"/>
<rect x="94.5664" y="78.5798" width="2.78299" height="6.26173" rx="1.3915" transform="rotate(-41.9091 94.5664 78.5798)" fill="white"/>
<rect x="75.8447" y="97.6433" width="2.78299" height="6.26173" rx="1.3915" transform="rotate(-48.4545 75.8447 97.6433)" fill="white"/>
<rect x="59.4189" y="118.717" width="2.78299" height="6.26173" rx="1.3915" transform="rotate(-55 59.4189 118.717)" fill="white"/>
</g>
<defs>
<clipPath id="clip0_207_404">
<rect width="504" height="504" fill="white"/>
</clipPath>
</defs>
</svg>
